<svg width="117" height="117" viewBox="0 0 117 117" fill="none" xmlns="http://www.w3.org/2000/svg">
<path d="M117 117H0L22.7748 22.1349H94.2252L117 117Z" fill="#E9F2FF"/>
<path d="M94.2252 22.1349H82.4546L105.229 117H117L94.2252 22.1349Z" fill="#DEEBFF"/>
<path d="M77.5776 38.3702H35.2869C34.3118 38.3702 33.5214 39.1607 33.5214 40.1358C33.5214 41.1108 34.3118 41.9013 35.2869 41.9013H77.5778C78.5529 41.9013 79.3433 41.1108 79.3433 40.1358C79.3433 39.1607 78.5529 38.3702 77.5776 38.3702Z" fill="#91A8DD"/>
<path d="M71.9769 53.0018H32.9327C31.9577 53.0018 31.1672 53.7923 31.1672 54.7673C31.1672 55.7424 31.9577 56.5329 32.9327 56.5329H71.9769C72.952 56.5329 73.7424 55.7424 73.7424 54.7673C73.7424 53.7923 72.952 53.0018 71.9769 53.0018Z" fill="#91A8DD"/>
<path d="M67.0542 67.6333H30.1078C29.1327 67.6333 28.3423 68.4237 28.3423 69.3988C28.3423 70.3739 29.1327 71.1643 30.1078 71.1643H67.0542C68.0293 71.1643 68.8197 70.3739 68.8197 69.3988C68.8197 68.424 68.0293 67.6333 67.0542 67.6333Z" fill="#91A8DD"/>
<path d="M26.0282 102.333C27.5725 99.713 29.155 97.1145 30.7692 94.5373C31.9628 92.6317 33.1723 90.7334 34.4517 88.8841C34.8978 88.2394 35.4385 87.4725 35.7675 87.0728C36.0148 86.7721 36.2582 86.4627 36.5854 86.2493C36.8939 86.048 37.0555 85.9984 37.2298 86.106C37.0479 85.9936 37.3057 86.319 37.3585 86.4584C37.5993 87.0952 37.4533 87.8823 37.3987 88.5374C37.281 89.9501 37.1185 91.358 36.9885 92.7693C36.7607 95.2425 36.108 99.04 38.8454 100.372C40.3635 101.111 41.9587 100.286 43.3063 99.5496C44.6952 98.7904 46.0034 98.0359 47.4659 97.4363C47.8716 97.2699 48.0509 97.3357 47.4504 97.1954C47.1952 97.1358 47.4006 96.8862 47.3949 97.1691C47.3887 97.4806 47.7744 98.0855 47.8812 98.4298C48.2031 99.4691 48.4776 100.566 49.0244 101.516C51.3212 105.509 57.7978 104.105 61.3535 102.935C63.5023 102.228 62.582 98.8169 60.4148 99.5299C59.0503 99.9789 57.6084 100.317 56.1811 100.471C55.1418 100.583 53.9976 100.668 52.9837 100.357C52.201 100.117 52.0187 99.7637 51.7401 98.9538C51.0875 97.0567 50.6174 93.9281 48.0537 93.8074C46.5537 93.7368 44.9715 94.5551 43.6918 95.2587C42.9619 95.66 42.2551 96.1015 41.5243 96.5007C41.2046 96.6755 40.8813 96.859 40.5449 97C39.8555 97.2891 40.4197 97.1058 40.395 97.2096C40.49 96.8092 40.334 96.1646 40.3443 95.729C40.3607 95.0339 40.3943 94.3394 40.4462 93.6461C40.5485 92.2775 40.7147 90.9142 40.8415 89.5479C41.0808 86.9705 41.1178 83.4639 37.9837 82.6481C35.5548 82.016 33.7648 83.8814 32.4564 85.6302C31.1911 87.3212 30.0432 89.1027 28.9061 90.8811C26.8698 94.0654 24.8991 97.2941 22.9798 100.55C21.8226 102.513 24.8737 104.291 26.0282 102.333Z" fill="#F55745"/>
<path d="M96.9692 12.9712L107.745 16.7764L82.9297 87.0493L72.1539 83.2441L96.9692 12.9712Z" fill="#F55745"/>
<path d="M109.917 11.5935L98.523 7.57163C96.6699 6.91761 94.6375 7.88949 93.9835 9.74252C93.3295 11.5956 94.3014 13.628 96.1544 14.282L104.193 17.1195L94.5548 44.4246C93.9008 46.2776 94.8726 48.31 96.7257 48.964C98.5787 49.618 100.611 48.6462 101.265 46.7931L112.088 16.133C112.742 14.2799 111.77 12.2475 109.917 11.5935Z" fill="#FFBA47"/>
<path d="M76.0685 89.3352C75.1485 89.0105 74.1405 89.4929 73.8158 90.4125L70.2702 100.457C69.9454 101.376 70.4278 102.385 71.3474 102.71C71.5419 102.778 71.74 102.811 71.9351 102.811C72.6627 102.811 73.3439 102.358 73.6001 101.633L77.1457 91.5882C77.4702 90.6684 76.9878 89.66 76.0685 89.3352Z" fill="#91A8DD"/>
<path d="M76.6302 96.9247L70.8666 94.8902L72.1643 83.2302L82.9397 87.0339L76.6302 96.9247Z" fill="#FFBA47"/>
<path d="M107.895 10.8799L100.545 8.28506L102.551 2.60119C103.267 0.571284 105.494 -0.49337 107.524 0.223255C109.554 0.939651 110.618 3.16608 109.902 5.19598L107.895 10.8799Z" fill="#91A8DD"/>
</svg>
