<svg width="101" height="104" viewBox="0 0 101 104" fill="none" xmlns="http://www.w3.org/2000/svg">
<path d="M98.5581 21.3936C99.8195 21.3936 100.843 22.4173 100.843 23.6787C100.843 24.9401 99.8195 25.9639 98.5581 25.9639C97.2967 25.9639 96.2729 24.9401 96.2729 23.6787C96.2729 22.4173 97.2967 21.3936 98.5581 21.3936Z" fill="#94D4FF"/>
<path d="M98.5581 80.8076C99.8195 80.8076 100.843 81.8314 100.843 83.0928C100.843 84.3542 99.8195 85.3779 98.5581 85.3779C97.2967 85.3779 96.2729 84.3542 96.2729 83.0928C96.2729 81.8314 97.2967 80.8076 98.5581 80.8076Z" fill="#94D4FF"/>
<path d="M87.1323 94.5186C89.6574 94.5186 91.7026 96.5638 91.7026 99.0889C91.7026 101.614 89.6574 103.659 87.1323 103.659C84.6072 103.659 82.562 101.614 82.562 99.0889C82.562 96.5638 84.6072 94.5186 87.1323 94.5186Z" fill="#3256C1"/>
<path d="M82.562 0.827148C83.8234 0.827148 84.8472 1.8509 84.8472 3.1123C84.8472 4.37371 83.8234 5.39746 82.562 5.39746C81.3006 5.39746 80.2769 4.37371 80.2769 3.1123C80.2769 1.8509 81.3006 0.827148 82.562 0.827148Z" fill="#94D4FF"/>
<path d="M50.5698 7.68262C25.328 7.68262 4.8667 28.1439 4.8667 53.3857C4.8667 78.6276 25.328 99.0889 50.5698 99.0889C75.8117 99.0889 96.2729 78.6276 96.2729 53.3857C96.2729 28.1439 75.8117 7.68262 50.5698 7.68262Z" fill="#00ACE8"/>
<path d="M50.5698 87.6631C31.6396 87.6631 16.2925 72.316 16.2925 53.3857C16.2925 34.4555 31.6396 19.1084 50.5698 19.1084C69.5001 19.1084 84.8472 34.4555 84.8472 53.3857C84.8472 72.316 69.5001 87.6631 50.5698 87.6631Z" fill="white"/>
<path d="M67.5597 42.5815C69.3447 44.3662 69.3447 47.2592 67.5597 49.044L51.4014 65.2046L44.939 71.667L38.4743 65.2046L33.6274 60.3555C32.7365 59.4643 32.2886 58.2943 32.2886 57.1243C32.2886 55.9543 32.7365 54.7843 33.6274 53.8928C35.4124 52.1081 38.3054 52.1081 40.0899 53.8928L44.939 58.7396L61.0975 42.5815C61.991 41.6903 63.1588 41.2424 64.3288 41.2424C65.4988 41.2424 66.6665 41.6903 67.5597 42.5815Z" fill="#07CC66"/>
<path d="M16.2925 99.0889C17.5539 99.0889 18.5776 100.113 18.5776 101.374C18.5776 102.635 17.5539 103.659 16.2925 103.659C15.0308 103.659 14.0073 102.635 14.0073 101.374C14.0073 100.113 15.0308 99.0889 16.2925 99.0889Z" fill="#94D4FF"/>
<path d="M10.5796 5.39746C13.7354 5.39746 16.2925 7.95455 16.2925 11.1104C16.2925 14.2662 13.7354 16.8232 10.5796 16.8232C7.42356 16.8232 4.8667 14.2662 4.8667 11.1104C4.8667 7.95455 7.42356 5.39746 10.5796 5.39746Z" fill="#3256C1"/>
<path d="M2.58154 23.6787C3.84295 23.6787 4.8667 24.7025 4.8667 25.9639C4.8667 27.2253 3.84295 28.249 2.58154 28.249C1.31991 28.249 0.296387 27.2253 0.296387 25.9639C0.296387 24.7025 1.31991 23.6787 2.58154 23.6787Z" fill="#94D4FF"/>
<path d="M2.58154 80.8076C3.84295 80.8076 4.8667 81.8314 4.8667 83.0928C4.8667 84.3542 3.84295 85.3779 2.58154 85.3779C1.31991 85.3779 0.296387 84.3542 0.296387 83.0928C0.296387 81.8314 1.31991 80.8076 2.58154 80.8076Z" fill="#94D4FF"/>
<path d="M77.9917 53.3857C77.9917 52.1237 76.9684 51.1006 75.7065 51.1006C74.4447 51.1006 73.4214 52.1237 73.4214 53.3857C73.4214 65.9863 63.1704 76.2373 50.5698 76.2373C49.3077 76.2373 48.2847 77.2606 48.2847 78.5225V87.5854C49.0401 87.6352 49.8018 87.6631 50.5698 87.6631C51.3379 87.6631 52.0993 87.6352 52.855 87.5854V80.7132C66.9101 79.548 77.9917 67.7365 77.9917 53.3857Z" fill="#D0DCE7"/>
<path d="M23.1479 53.3857C23.1479 54.6476 24.171 55.6709 25.4331 55.6709C26.695 55.6709 27.7183 54.6476 27.7183 53.3857C27.7183 40.7854 37.9692 30.5342 50.5698 30.5342C51.8317 30.5342 52.855 29.5111 52.855 28.249V19.1861C52.0993 19.1363 51.3379 19.1084 50.5698 19.1084C49.8018 19.1084 49.0401 19.1363 48.2847 19.1861V26.0582C34.2296 27.2234 23.1479 39.035 23.1479 53.3857Z" fill="#D0DCE7"/>
</svg>
