<svg width="117" height="117" viewBox="0 0 117 117" fill="none" xmlns="http://www.w3.org/2000/svg">
<path d="M117 30.735V108C117 110.387 116.052 112.676 114.364 114.364C112.676 116.052 110.387 117 108 117H36C33.6131 117 31.3239 116.052 29.636 114.364C27.9482 112.676 27 110.387 27 108V9C27 6.61305 27.9482 4.32387 29.636 2.63604C31.3239 0.948214 33.6131 2.82569e-06 36 2.82569e-06H86.265C87.4526 -0.000938212 88.6287 0.233175 89.7254 0.688849C90.8221 1.14452 91.8177 1.81274 92.655 2.655L114.345 24.345C115.187 25.1823 115.855 26.1779 116.311 27.2746C116.767 28.3714 117.001 29.5474 117 30.735Z" fill="#F2F1F1"/>
<path d="M117 30.735V31.5H94.5C92.1131 31.5 89.8239 30.5518 88.136 28.864C86.4482 27.1761 85.5 24.887 85.5 22.5V2.82569e-06H86.265C87.4526 -0.000938212 88.6287 0.233175 89.7254 0.688849C90.8221 1.14452 91.8177 1.81274 92.655 2.655L114.345 24.345C115.187 25.1823 115.855 26.1779 116.311 27.2746C116.767 28.3714 117.001 29.5474 117 30.735Z" fill="#E1DEDD"/>
<path d="M67.5 34.875H54C53.1049 34.875 52.2465 34.5194 51.6135 33.8865C50.9806 33.2535 50.625 32.3951 50.625 31.5C50.625 30.6049 50.9806 29.7465 51.6135 29.1135C52.2465 28.4806 53.1049 28.125 54 28.125H67.5C68.3951 28.125 69.2536 28.4806 69.8865 29.1135C70.5194 29.7465 70.875 30.6049 70.875 31.5C70.875 32.3951 70.5194 33.2535 69.8865 33.8865C69.2536 34.5194 68.3951 34.875 67.5 34.875Z" fill="#00ACE8"/>
<path d="M99 52.875H76.5C75.6049 52.875 74.7464 52.5194 74.1135 51.8865C73.4806 51.2535 73.125 50.3951 73.125 49.5C73.125 48.6049 73.4806 47.7465 74.1135 47.1135C74.7464 46.4806 75.6049 46.125 76.5 46.125H99C99.8951 46.125 100.754 46.4806 101.386 47.1135C102.019 47.7465 102.375 48.6049 102.375 49.5C102.375 50.3951 102.019 51.2535 101.386 51.8865C100.754 52.5194 99.8951 52.875 99 52.875Z" fill="#00ACE8"/>
<path d="M99 70.875H81C80.1049 70.875 79.2464 70.5194 78.6135 69.8865C77.9806 69.2536 77.625 68.3951 77.625 67.5C77.625 66.6049 77.9806 65.7464 78.6135 65.1135C79.2464 64.4806 80.1049 64.125 81 64.125H99C99.8951 64.125 100.754 64.4806 101.386 65.1135C102.019 65.7464 102.375 66.6049 102.375 67.5C102.375 68.3951 102.019 69.2536 101.386 69.8865C100.754 70.5194 99.8951 70.875 99 70.875Z" fill="#00ACE8"/>
<path d="M99 88.875H76.5C75.6049 88.875 74.7464 88.5194 74.1135 87.8865C73.4806 87.2536 73.125 86.3951 73.125 85.5C73.125 84.6049 73.4806 83.7464 74.1135 83.1135C74.7464 82.4806 75.6049 82.125 76.5 82.125H99C99.8951 82.125 100.754 82.4806 101.386 83.1135C102.019 83.7464 102.375 84.6049 102.375 85.5C102.375 86.3951 102.019 87.2536 101.386 87.8865C100.754 88.5194 99.8951 88.875 99 88.875Z" fill="#00ACE8"/>
<path d="M31.5 103.5C48.897 103.5 63 89.397 63 72C63 54.603 48.897 40.5 31.5 40.5C14.103 40.5 0 54.603 0 72C0 89.397 14.103 103.5 31.5 103.5Z" fill="#E63946"/>
<path d="M36.2702 72.0002L42.8852 65.3852C43.4814 64.7454 43.8059 63.8992 43.7905 63.0248C43.7751 62.1505 43.4209 61.3162 42.8025 60.6979C42.1841 60.0795 41.3499 59.7253 40.4756 59.7099C39.6012 59.6944 38.755 60.019 38.1152 60.6152L31.5002 67.2302L24.8852 60.6152C24.2454 60.019 23.3992 59.6944 22.5249 59.7099C21.6505 59.7253 20.8163 60.0795 20.1979 60.6979C19.5795 61.3162 19.2253 62.1505 19.2099 63.0248C19.1945 63.8992 19.519 64.7454 20.1152 65.3852L26.7302 72.0002L20.1152 78.6152C19.4832 79.248 19.1282 80.1058 19.1282 81.0002C19.1282 81.8945 19.4832 82.7523 20.1152 83.3852C20.748 84.0172 21.6058 84.3722 22.5002 84.3722C23.3946 84.3722 24.2524 84.0172 24.8852 83.3852L31.5002 76.7702L38.1152 83.3852C38.748 84.0172 39.6058 84.3722 40.5002 84.3722C41.3946 84.3722 42.2524 84.0172 42.8852 83.3852C43.5172 82.7523 43.8722 81.8945 43.8722 81.0002C43.8722 80.1058 43.5172 79.248 42.8852 78.6152L36.2702 72.0002Z" fill="#F2F1F1"/>
</svg>
