<svg width="117" height="117" viewBox="0 0 117 117" fill="none" xmlns="http://www.w3.org/2000/svg">
<path d="M51.188 102.371C79.4565 102.371 102.373 79.4549 102.373 51.1864C102.373 22.918 79.4565 0.00183105 51.188 0.00183105C22.9195 0.00183105 0.00341797 22.918 0.00341797 51.1864C0.00341797 79.4549 22.9195 102.371 51.188 102.371Z" fill="#00ACE8"/>
<path d="M7.3155 51.1865C7.3155 24.1473 28.282 2.00515 54.8441 0.130516C25.0788 -1.97034 0.00341797 21.5862 0.00341797 51.1865C0.00341797 80.7876 25.0795 104.343 54.8441 102.242C28.2818 100.368 7.3155 78.2257 7.3155 51.1865Z" fill="#16C3FF"/>
<path d="M94.3359 51.1863C94.3359 51.7852 95.0483 52.3813 95.0246 52.9743C94.1101 75.7903 75.7712 94.1217 52.952 95.0241C52.3668 95.0471 51.7786 94.493 51.1879 94.493C50.5966 94.493 50.0079 95.0471 49.4223 95.0241C38.6386 94.5972 28.8552 90.2781 21.4389 83.4326C20.9961 83.024 21.117 81.8797 20.6913 81.4533C20.2841 81.0454 19.3301 81.3562 18.9391 80.9325C12.0996 73.5215 7.78271 63.7473 7.35107 52.9734C7.3273 52.3807 8.05965 51.785 8.05965 51.1863C8.05965 50.5951 7.32685 50.007 7.35015 49.4216C7.77677 38.6374 12.0959 28.854 18.9416 21.4375C19.3571 20.9876 20.3435 21.2798 20.7772 20.8477C21.1775 20.4488 21.0235 19.3239 21.4389 18.9404C28.8552 12.0947 38.6386 7.77557 49.4228 7.34872C50.0082 7.32565 50.5966 7.87954 51.1877 7.87954C51.7791 7.87954 52.3677 7.32565 52.9531 7.34872C63.7305 7.77534 73.5081 12.0895 80.923 18.9276C81.3615 19.3321 81.0681 20.2331 81.4897 20.6547C81.9078 21.0731 83.0414 21.012 83.4427 21.4469C90.2834 28.8625 94.5991 38.6424 95.0255 49.4222C95.0486 50.0074 94.3359 50.5956 94.3359 51.1863Z" fill="#EAF6FF"/>
<path d="M14.3773 51.1865C14.3773 28.145 32.1397 9.2524 54.7187 7.45431C54.1363 7.40792 53.5508 7.37296 52.9622 7.34943C52.3736 7.32589 51.782 7.87978 51.1877 7.87978C50.5963 7.87978 50.0079 7.32589 49.4223 7.34897C38.6335 7.77604 28.8463 12.0989 21.4289 18.9498C21.002 19.344 21.188 20.4374 20.7772 20.848C20.3585 21.2664 19.3435 21.0025 18.9421 21.4375C12.0936 28.857 7.77353 38.6456 7.34989 49.4351C7.32704 50.0161 8.06007 50.6 8.06007 51.1868C8.06007 51.7779 7.32727 52.3665 7.35057 52.9519C7.77719 63.7359 12.0966 73.519 18.9418 80.9355C19.325 81.3507 20.2927 81.0534 20.6915 81.4535C21.1238 81.8872 20.9888 83.0172 21.4389 83.4328C28.8552 90.2783 38.6385 94.5975 49.4225 95.0243C50.0081 95.0474 50.5968 94.4933 51.1881 94.4933C51.779 94.4933 52.367 95.0474 52.9522 95.0243C53.5442 95.0008 54.1333 94.9656 54.7192 94.919C32.1399 93.1204 14.3773 74.2278 14.3773 51.1865Z" fill="#D8ECFE"/>
<path d="M91.4043 116.995C105.539 116.995 116.997 105.537 116.997 91.403C116.997 77.2687 105.539 65.8107 91.4043 65.8107C77.2701 65.8107 65.812 77.2687 65.812 91.403C65.812 105.537 77.2701 116.995 91.4043 116.995Z" fill="#EF6062"/>
<path d="M72.8741 91.403C72.8741 78.4667 82.4721 67.7724 94.9354 66.0524C93.7812 65.8932 92.6024 65.8107 91.4043 65.8107C77.2701 65.8107 65.812 77.2687 65.812 91.403C65.812 106.852 79.4465 118.891 94.9354 116.754C82.4721 115.034 72.8741 104.339 72.8741 91.403Z" fill="#EA4952"/>
<path d="M91.4044 96.529C89.344 96.529 87.6309 94.9432 87.4721 92.889L86.3654 78.5662C86.1385 75.6304 88.4597 73.1228 91.4044 73.1228C94.3491 73.1228 96.6702 75.6302 96.4433 78.5662L95.3367 92.889C95.1779 94.943 93.4645 96.529 91.4044 96.529Z" fill="#EAF6FF"/>
<path d="M92.1802 92.8887L91.0736 78.566C90.9123 76.48 92.0374 74.6104 93.7585 73.7027C90.2795 71.8679 86.0575 74.5777 86.3655 78.566L87.4722 92.8887C87.7123 95.9975 91.2914 97.5865 93.7585 95.7494C92.8731 95.0904 92.2712 94.0664 92.1802 92.8887Z" fill="#D8ECFE"/>
<path d="M91.4046 109.683C93.4238 109.683 95.0606 108.046 95.0606 106.027C95.0606 104.008 93.4238 102.371 91.4046 102.371C89.3854 102.371 87.7485 104.008 87.7485 106.027C87.7485 108.046 89.3854 109.683 91.4046 109.683Z" fill="#EAF6FF"/>
<path d="M93.7584 103.23C91.405 101.247 87.7483 102.909 87.7483 106.027C87.7483 109.144 91.4043 110.808 93.7584 108.824C92.0211 107.361 92.0238 104.691 93.7584 103.23Z" fill="#D8ECFE"/>
<path d="M68.2431 49.4208H52.9533V25.5941C52.9533 24.6189 52.1629 23.8287 51.1879 23.8287C50.2129 23.8287 49.4225 24.6191 49.4225 25.5941C49.4289 52.3157 49.407 50.7064 49.4396 50.9401C49.2907 52.0065 50.1178 52.9519 51.1879 52.9519H68.2431C69.2184 52.9519 70.0085 52.1615 70.0085 51.1864C70.0085 50.2114 69.2181 49.4208 68.2431 49.4208Z" fill="#565F64"/>
<path d="M51.188 54.8425C53.2072 54.8425 54.8441 53.2056 54.8441 51.1864C54.8441 49.1673 53.2072 47.5304 51.188 47.5304C49.1688 47.5304 47.532 49.1673 47.532 51.1864C47.532 53.2056 49.1688 54.8425 51.188 54.8425Z" fill="#EF6062"/>
<path d="M49.4224 7.34893V14.6261C49.4224 15.6013 50.2128 16.3915 51.1878 16.3915C52.1628 16.3915 52.9532 15.6011 52.9532 14.6261V7.34893C51.7734 7.30231 50.604 7.30231 49.4224 7.34893Z" fill="#565F64"/>
<path d="M80.9369 18.9404L75.7914 24.0859C75.102 24.7752 75.102 25.8933 75.7917 26.5827C76.4811 27.2721 77.5987 27.2721 78.2885 26.5825L83.4335 21.4371C82.6349 20.5722 81.802 19.739 80.9369 18.9404Z" fill="#565F64"/>
<path d="M85.9827 51.1863C85.9827 52.1615 86.7731 52.9517 87.7481 52.9517H95.0252C95.0718 51.7717 95.0718 50.6022 95.0252 49.4207H87.7481C86.7731 49.4209 85.9827 50.2113 85.9827 51.1863Z" fill="#565F64"/>
<path d="M18.9419 21.4375L24.0873 26.5829C24.7772 27.2723 25.8945 27.2721 26.5844 26.5829C27.2738 25.8933 27.2738 24.7755 26.5844 24.0859L21.439 18.9404C20.5736 19.739 19.7405 20.5722 18.9419 21.4375Z" fill="#565F64"/>
<path d="M7.35039 52.9518H14.6275C15.6028 52.9518 16.3929 52.1615 16.3929 51.1864C16.3929 50.2114 15.6025 49.421 14.6275 49.421H7.35039C7.32731 50.0067 7.31543 50.5953 7.31543 51.1867C7.31543 51.7776 7.32708 52.3662 7.35039 52.9518Z" fill="#565F64"/>
<path d="M24.0876 75.7901L18.9421 80.9355C19.7408 81.8006 20.5736 82.6338 21.439 83.4324L26.5844 78.2874C27.274 77.598 27.274 76.4799 26.5846 75.7906C25.8948 75.1007 24.777 75.1009 24.0876 75.7901Z" fill="#565F64"/>
<path d="M51.1878 85.9813C50.2125 85.9813 49.4224 86.7717 49.4224 87.7467V95.0239C50.6024 95.0705 51.7718 95.0707 52.9534 95.0239V87.7467C52.9534 86.7717 52.163 85.9813 51.1878 85.9813Z" fill="#565F64"/>
</svg>
