<svg width="101" height="104" viewBox="0 0 101 104" fill="none" xmlns="http://www.w3.org/2000/svg">
<path d="M98.5582 21.3936C99.8196 21.3936 100.843 22.4173 100.843 23.6787C100.843 24.9401 99.8196 25.9639 98.5582 25.9639C97.2968 25.9639 96.2731 24.9401 96.2731 23.6787C96.2731 22.4173 97.2968 21.3936 98.5582 21.3936Z" fill="#94D4FF"/>
<path d="M98.5582 80.8076C99.8196 80.8076 100.843 81.8314 100.843 83.0928C100.843 84.3542 99.8196 85.3779 98.5582 85.3779C97.2968 85.3779 96.2731 84.3542 96.2731 83.0928C96.2731 81.8314 97.2968 80.8076 98.5582 80.8076Z" fill="#94D4FF"/>
<path d="M87.1324 94.5186C89.6575 94.5186 91.7028 96.5638 91.7028 99.0889C91.7028 101.614 89.6575 103.659 87.1324 103.659C84.6073 103.659 82.5621 101.614 82.5621 99.0889C82.5621 96.5638 84.6073 94.5186 87.1324 94.5186Z" fill="#3256C1"/>
<path d="M82.5621 0.827148C83.8235 0.827148 84.8473 1.8509 84.8473 3.1123C84.8473 4.37371 83.8235 5.39746 82.5621 5.39746C81.3007 5.39746 80.277 4.37371 80.277 3.1123C80.277 1.8509 81.3007 0.827148 82.5621 0.827148Z" fill="#94D4FF"/>
<path d="M50.5699 7.68262C25.3281 7.68262 4.86682 28.1439 4.86682 53.3857C4.86682 78.6276 25.3281 99.0889 50.5699 99.0889C75.8118 99.0889 96.2731 78.6276 96.2731 53.3857C96.2731 28.1439 75.8118 7.68262 50.5699 7.68262Z" fill="#00ACE8"/>
<path d="M50.5699 87.6631C31.6397 87.6631 16.2926 72.316 16.2926 53.3857C16.2926 34.4555 31.6397 19.1084 50.5699 19.1084C69.5002 19.1084 84.8473 34.4555 84.8473 53.3857C84.8473 72.316 69.5002 87.6631 50.5699 87.6631Z" fill="white"/>
<path d="M67.5599 42.5815C69.3448 44.3662 69.3448 47.2592 67.5599 49.044L51.4015 65.2046L44.9391 71.667L38.4744 65.2046L33.6276 60.3555C32.7366 59.4643 32.2887 58.2943 32.2887 57.1243C32.2887 55.9543 32.7366 54.7843 33.6276 53.8928C35.4125 52.1081 38.3055 52.1081 40.09 53.8928L44.9391 58.7396L61.0977 42.5815C61.9912 41.6903 63.1589 41.2424 64.3289 41.2424C65.4989 41.2424 66.6666 41.6903 67.5599 42.5815Z" fill="#07CC66"/>
<path d="M16.2926 99.0889C17.554 99.0889 18.5778 100.113 18.5778 101.374C18.5778 102.635 17.554 103.659 16.2926 103.659C15.031 103.659 14.0074 102.635 14.0074 101.374C14.0074 100.113 15.031 99.0889 16.2926 99.0889Z" fill="#94D4FF"/>
<path d="M10.5797 5.39746C13.7355 5.39746 16.2926 7.95455 16.2926 11.1104C16.2926 14.2662 13.7355 16.8232 10.5797 16.8232C7.42368 16.8232 4.86682 14.2662 4.86682 11.1104C4.86682 7.95455 7.42368 5.39746 10.5797 5.39746Z" fill="#3256C1"/>
<path d="M2.58167 23.6787C3.84307 23.6787 4.86682 24.7025 4.86682 25.9639C4.86682 27.2253 3.84307 28.249 2.58167 28.249C1.32003 28.249 0.296509 27.2253 0.296509 25.9639C0.296509 24.7025 1.32003 23.6787 2.58167 23.6787Z" fill="#94D4FF"/>
<path d="M2.58167 80.8076C3.84307 80.8076 4.86682 81.8314 4.86682 83.0928C4.86682 84.3542 3.84307 85.3779 2.58167 85.3779C1.32003 85.3779 0.296509 84.3542 0.296509 83.0928C0.296509 81.8314 1.32003 80.8076 2.58167 80.8076Z" fill="#94D4FF"/>
<path d="M77.9918 53.3857C77.9918 52.1237 76.9685 51.1006 75.7067 51.1006C74.4448 51.1006 73.4215 52.1237 73.4215 53.3857C73.4215 65.9863 63.1705 76.2373 50.5699 76.2373C49.3079 76.2373 48.2848 77.2606 48.2848 78.5225V87.5854C49.0403 87.6352 49.8019 87.6631 50.5699 87.6631C51.338 87.6631 52.0994 87.6352 52.8551 87.5854V80.7132C66.9102 79.548 77.9918 67.7365 77.9918 53.3857Z" fill="#D0DCE7"/>
<path d="M23.1481 53.3857C23.1481 54.6476 24.1711 55.6709 25.4332 55.6709C26.6951 55.6709 27.7184 54.6476 27.7184 53.3857C27.7184 40.7854 37.9694 30.5342 50.5699 30.5342C51.8318 30.5342 52.8551 29.5111 52.8551 28.249V19.1861C52.0994 19.1363 51.338 19.1084 50.5699 19.1084C49.8019 19.1084 49.0403 19.1363 48.2848 19.1861V26.0582C34.2297 27.2234 23.1481 39.035 23.1481 53.3857Z" fill="#D0DCE7"/>
</svg>
