<svg width="19" height="19" viewBox="0 0 19 19" fill="none" xmlns="http://www.w3.org/2000/svg">
<path d="M9.5 0C4.26149 0 0 4.26149 0 9.5C0 14.7385 4.26149 19 9.5 19C14.7385 19 19 14.7385 19 9.5C19 4.26149 14.7385 0 9.5 0ZM13.6562 10.2916H10.2916V13.6562C10.2916 14.0933 9.93705 14.4479 9.5 14.4479C9.06295 14.4479 8.70838 14.0933 8.70838 13.6562V10.2916H5.34375C4.9067 10.2916 4.55213 9.93705 4.55213 9.5C4.55213 9.06295 4.9067 8.70838 5.34375 8.70838H8.70838V5.34375C8.70838 4.9067 9.06295 4.55213 9.5 4.55213C9.93705 4.55213 10.2916 4.9067 10.2916 5.34375V8.70838H13.6562C14.0933 8.70838 14.4479 9.06295 14.4479 9.5C14.4479 9.93705 14.0933 10.2916 13.6562 10.2916Z" fill="white"/>
</svg>
