<svg width="23" height="23" viewBox="0 0 23 23" fill="none" xmlns="http://www.w3.org/2000/svg">
<path d="M8.22232 21.6105C8.01148 21.6105 7.79107 21.5722 7.58982 21.486C7.1394 21.2943 6.7944 20.9205 6.64107 20.451L6.2194 19.186C6.02773 18.611 6.20023 17.8922 6.6219 17.461L8.79732 15.276C8.82608 15.2472 8.8644 15.1418 8.8644 15.0939V12.7268L4.4944 14.6147C3.90982 14.8639 3.31565 14.8351 2.86523 14.538C2.41482 14.241 2.14648 13.7043 2.14648 13.0814V11.8451C2.14648 10.906 2.81732 9.89971 3.67023 9.56426L8.85482 7.32176V4.6001C8.85482 3.44051 9.66937 2.10843 10.7044 1.57176C11.2027 1.3226 11.7777 1.3226 12.2665 1.57176C13.311 2.10843 14.1256 3.43093 14.1256 4.59051V7.31218L19.339 9.55468C20.1919 9.91887 20.8435 10.8964 20.8435 11.8451V13.0814C20.8435 13.7139 20.5848 14.241 20.1248 14.538C19.6648 14.8351 19.0802 14.8639 18.4956 14.6243L14.1256 12.7364V15.1035C14.1256 15.1418 14.164 15.2376 14.1927 15.2664L16.3777 17.461C16.7994 17.8826 16.9719 18.6205 16.7802 19.186L16.3585 20.451C16.1956 20.9205 15.8506 21.2943 15.3906 21.4764C14.9402 21.6585 14.4419 21.6393 14.0106 21.4285C13.9627 21.3997 13.9148 21.371 13.8669 21.3326L11.634 19.4543C11.5573 19.3872 11.404 19.3968 11.3369 19.4543L9.10398 21.3326C9.06565 21.371 9.01774 21.3997 8.96982 21.4189C8.73982 21.553 8.48107 21.6105 8.22232 21.6105ZM9.16149 11.1551C9.38191 11.1551 9.59271 11.2126 9.77479 11.3372C10.1102 11.5576 10.3019 11.9314 10.3019 12.3722V15.1035C10.3019 15.5155 10.1006 16.0043 9.81312 16.2918L7.63773 18.4768C7.5994 18.5247 7.56107 18.6685 7.58024 18.726L8.0019 20.0005C8.03066 20.0964 8.09773 20.1347 8.13607 20.1539C8.16482 20.1635 8.21273 20.1826 8.27024 20.1635L10.4169 18.3522C11.0206 17.8347 11.9694 17.8347 12.5731 18.3522L14.7102 20.1539C14.7773 20.1635 14.8252 20.1539 14.854 20.1443C14.8923 20.1251 14.969 20.0868 14.9977 19.991L15.4194 18.726C15.4385 18.6589 15.4002 18.5151 15.3619 18.4768L13.1865 16.2918C12.899 16.0235 12.6881 15.5251 12.6881 15.1035V12.3722C12.6881 11.941 12.8702 11.5672 13.196 11.3468C13.5219 11.1264 13.9435 11.0976 14.346 11.2701L19.061 13.3018C19.2048 13.3593 19.3006 13.3593 19.3294 13.3401C19.3581 13.321 19.3965 13.2347 19.3965 13.0814V11.8451C19.3965 11.481 19.0898 11.0114 18.764 10.8772L13.4165 8.5676C12.9948 8.38551 12.6977 7.92551 12.6977 7.46551V4.59051C12.6977 3.95801 12.1994 3.14343 11.6244 2.85593C11.5477 2.8176 11.4519 2.8176 11.3656 2.85593C10.8098 3.14343 10.3019 3.97718 10.3019 4.6001V7.4751C10.3019 7.92551 10.0048 8.3951 9.58312 8.57718L4.23565 10.8868C3.90023 11.021 3.59357 11.4905 3.59357 11.8451V13.0814C3.59357 13.2347 3.6319 13.321 3.66065 13.3401C3.6894 13.3593 3.78523 13.3593 3.92898 13.3018L8.6344 11.2701C8.8069 11.1935 8.98899 11.1551 9.16149 11.1551Z" fill="#21417E"/>
</svg>
