<svg width="20" height="20" viewBox="0 0 20 20" fill="none" xmlns="http://www.w3.org/2000/svg">
<path opacity="0.99" d="M8.31246 14.0938C8.18112 14.094 8.05105 14.0682 7.92972 14.0179C7.80839 13.9676 7.69819 13.8938 7.60546 13.8008L4.79296 10.9884C4.60739 10.8004 4.5037 10.5467 4.50452 10.2827C4.50535 10.0186 4.61062 9.76551 4.79736 9.57876C4.9841 9.39201 5.23714 9.28673 5.50124 9.28589C5.76534 9.28506 6.01904 9.38874 6.20696 9.5743L8.31243 11.6798L13.793 6.1993C13.9809 6.01374 14.2346 5.91006 14.4987 5.91089C14.7628 5.91173 15.0158 6.01702 15.2026 6.20376C15.3893 6.39051 15.4946 6.64356 15.4954 6.90765C15.4962 7.17175 15.3925 7.42545 15.207 7.61336L9.01946 13.8009C8.92672 13.8939 8.81652 13.9676 8.69519 14.0179C8.57386 14.0682 8.44379 14.094 8.31246 14.0938Z" fill="#47DD95"/>
<path d="M15.5606 7.96683L15.5606 7.96684L15.5628 7.96461C15.8411 7.68273 15.9967 7.30217 15.9954 6.90601C15.9942 6.50985 15.8363 6.13027 15.5562 5.85014C15.276 5.57001 14.8965 5.41207 14.5003 5.41082C14.1042 5.40956 13.7236 5.56509 13.4417 5.84344L13.4417 5.84344L13.4395 5.84567L8.31248 10.9726L6.56056 9.22067L6.56057 9.22066L6.55832 9.21844C6.27643 8.94009 5.89586 8.78456 5.4997 8.78582C5.10355 8.78707 4.72397 8.94501 4.44385 9.22514L4.79741 9.57869L4.44385 9.22514C4.16373 9.50527 4.00581 9.88486 4.00457 10.281C4.00333 10.6772 4.15888 11.0577 4.43724 11.3396L4.43723 11.3396L4.43945 11.3418L7.2518 14.1542C7.25183 14.1543 7.25186 14.1543 7.25189 14.1543C7.39114 14.2936 7.55646 14.4041 7.73841 14.4795C7.9204 14.5549 8.11547 14.5938 8.31248 14.5938C8.50948 14.5938 8.70455 14.5549 8.88654 14.4795L8.69514 14.0176L8.88654 14.4795C9.06849 14.4041 9.23381 14.2936 9.37306 14.1543C9.37309 14.1543 9.37312 14.1543 9.37315 14.1542L15.5606 7.96683ZM4.72209 2.10104C6.28428 1.05722 8.1209 0.500056 9.99972 0.5C12.5184 0.502956 14.9332 1.50482 16.7142 3.28584C18.4953 5.06691 19.4971 7.48175 19.5 10.0006C19.4999 11.8793 18.9427 13.7158 17.899 15.2779C16.8551 16.8402 15.3714 18.0578 13.6355 18.7769C11.8996 19.4959 9.98947 19.684 8.14665 19.3175C6.30383 18.9509 4.61109 18.0461 3.28249 16.7175C1.95389 15.3889 1.0491 13.6962 0.682544 11.8534C0.315985 10.0105 0.504116 8.10041 1.22315 6.36451C1.94218 4.62861 3.15982 3.14491 4.72209 2.10104Z" fill="#03314C" stroke="#03314C"/>
</svg>
