<svg width="22" height="20" viewBox="0 0 22 20" fill="none" xmlns="http://www.w3.org/2000/svg">
<path d="M16.9187 7.97277L16.921 7.97057C17.2075 7.69004 17.3708 7.30765 17.3695 6.90596C17.3682 6.50427 17.2025 6.12295 16.9142 5.84421C16.6264 5.56603 16.24 5.41204 15.8401 5.41082C15.4402 5.40959 15.0528 5.5612 14.7633 5.83756L14.7633 5.83755L14.761 5.83974L9.43954 10.9842L7.60919 9.21474L7.60919 9.21473L7.60691 9.21256C7.31742 8.9362 6.93006 8.78459 6.53014 8.78582C6.13022 8.78704 5.74379 8.94103 5.45605 9.21921L5.80359 9.57869L5.45605 9.21921C5.16775 9.49795 5.00198 9.87928 5.00068 10.281C4.99938 10.6827 5.16269 11.065 5.44926 11.3456L5.4515 11.3478L8.36058 14.1602C8.36061 14.1602 8.36063 14.1602 8.36066 14.1603C8.50383 14.2987 8.6729 14.4077 8.85779 14.4818L9.04372 14.0176L8.85779 14.4818C9.04269 14.5558 9.24033 14.5938 9.43954 14.5938C9.63876 14.5938 9.83639 14.5558 10.0213 14.4818L9.83536 14.0176L10.0213 14.4818C10.2062 14.4077 10.3752 14.2987 10.5184 14.1603C10.5184 14.1602 10.5185 14.1602 10.5185 14.1602L16.9187 7.97277ZM5.70964 2.1053C7.32888 1.05933 9.23429 0.500054 11.1848 0.5C13.8001 0.502961 16.3041 1.50879 18.1484 3.29176C19.9922 5.07424 21.0261 7.48732 21.029 10.0006C21.0289 11.8755 20.4538 13.7097 19.3744 15.2714C18.2948 16.8335 16.7584 18.0536 14.9577 18.7746C13.1568 19.4958 11.1743 19.6847 9.26153 19.3169C7.34879 18.949 5.59406 18.0415 4.21838 16.7116C2.84289 15.3818 1.90818 13.6897 1.52969 11.8501C1.15122 10.0107 1.3453 8.1039 2.08817 6.37008C2.83113 4.63606 4.09048 3.15121 5.70964 2.1053Z" fill="#D3D7DA" stroke="#BAC3CA"/>
</svg>
