<svg width="17" height="13" viewBox="0 0 17 13" fill="none" xmlns="http://www.w3.org/2000/svg">
<path d="M15.5833 5.79153H3.1266L6.8758 2.04232C6.94346 1.97698 6.99742 1.89882 7.03454 1.8124C7.07167 1.72598 7.09121 1.63303 7.09202 1.53898C7.09284 1.44493 7.07492 1.35166 7.0393 1.26461C7.00369 1.17755 6.95109 1.09847 6.88458 1.03196C6.81808 0.965452 6.73899 0.912856 6.65194 0.87724C6.56489 0.841625 6.47161 0.823703 6.37756 0.82452C6.28351 0.825337 6.19056 0.844878 6.10414 0.882001C6.01772 0.919124 5.93956 0.973086 5.87422 1.04074L0.915887 5.99907C0.783095 6.13191 0.708496 6.31204 0.708496 6.49986C0.708496 6.68769 0.783095 6.86782 0.915887 7.00066L5.87422 11.959C6.00781 12.088 6.18674 12.1594 6.37246 12.1578C6.55819 12.1562 6.73584 12.0817 6.86718 11.9504C6.99851 11.819 7.073 11.6414 7.07461 11.4556C7.07623 11.2699 7.00483 11.091 6.8758 10.9574L3.1266 7.2082H15.5833C15.7712 7.2082 15.9514 7.13357 16.0842 7.00073C16.2171 6.86789 16.2917 6.68773 16.2917 6.49986C16.2917 6.312 16.2171 6.13184 16.0842 5.999C15.9514 5.86616 15.7712 5.79153 15.5833 5.79153Z" fill="black"/>
</svg>
