<svg width="25" height="25" viewBox="0 0 25 25" fill="none" xmlns="http://www.w3.org/2000/svg">
<g clip-path="url(#clip0_820_8814)">
<path d="M22.2656 14.9465V8.98438C22.2656 8.88077 22.2245 8.78142 22.1512 8.70816C22.078 8.6349 21.9786 8.59375 21.875 8.59375H3.125C3.0214 8.59375 2.92204 8.6349 2.84879 8.70816C2.77553 8.78142 2.73438 8.88077 2.73438 8.98438V14.9465C1.95604 15.1342 1.26335 15.578 0.767477 16.2066C0.271609 16.8352 0.00132194 17.6122 0 18.4129L0 23.0469C0 23.1505 0.041155 23.2498 0.114411 23.3231C0.187668 23.3963 0.287025 23.4375 0.390625 23.4375H1.17188V24.6094C1.17188 24.713 1.21303 24.8123 1.28629 24.8856C1.35954 24.9588 1.4589 25 1.5625 25H23.4375C23.5411 25 23.6405 24.9588 23.7137 24.8856C23.787 24.8123 23.8281 24.713 23.8281 24.6094V23.4375H24.6094C24.713 23.4375 24.8123 23.3963 24.8856 23.3231C24.9588 23.2498 25 23.1505 25 23.0469V18.4129C24.9987 17.6122 24.7284 16.8352 24.2325 16.2066C23.7367 15.578 23.044 15.1342 22.2656 14.9465ZM3.51562 14.8438V9.375H21.4844V14.8438H20.7031V13.9758C20.7026 13.5845 20.547 13.2095 20.2703 12.9328C19.9937 12.6562 19.6186 12.5005 19.2273 12.5H14.757C14.3658 12.5005 13.9907 12.6562 13.7141 12.9328C13.4374 13.2095 13.2818 13.5845 13.2812 13.9758V14.8438H11.7188V13.9758C11.7182 13.5845 11.5626 13.2095 11.2859 12.9328C11.0093 12.6562 10.6342 12.5005 10.243 12.5H5.77266C5.38141 12.5005 5.00634 12.6562 4.72969 12.9328C4.45304 13.2095 4.29739 13.5845 4.29688 13.9758V14.8438H3.51562ZM19.9219 14.8438H14.0625V13.9758C14.0628 13.7917 14.1361 13.6152 14.2663 13.485C14.3964 13.3548 14.5729 13.2816 14.757 13.2812H19.2273C19.4114 13.2816 19.5879 13.3548 19.7181 13.485C19.8483 13.6152 19.9216 13.7917 19.9219 13.9758V14.8438ZM10.9375 14.8438H5.07812V13.9758C5.07843 13.7917 5.15171 13.6152 5.28189 13.485C5.41207 13.3548 5.58855 13.2816 5.77266 13.2812H10.243C10.4271 13.2816 10.6036 13.3548 10.7337 13.485C10.8639 13.6152 10.9372 13.7917 10.9375 13.9758V14.8438ZM0.78125 18.4129C0.781974 17.6738 1.07588 16.9652 1.59847 16.4425C2.12106 15.9198 2.82965 15.6258 3.56875 15.625H21.4312C22.1704 15.6258 22.8789 15.9198 23.4015 16.4425C23.9241 16.9652 24.218 17.6738 24.2188 18.4129V21.4844H0.78125V18.4129ZM23.0469 24.2188H1.95312V23.4375H23.0469V24.2188ZM24.2188 22.6562H0.78125V22.2656H24.2188V22.6562Z" fill="#27B4D5"/>
<path d="M1.73144 5.0038L1.35175 7.21708C1.33948 7.28894 1.34756 7.3628 1.37508 7.43031C1.4026 7.49781 1.44846 7.55627 1.50747 7.59907C1.56649 7.64187 1.6363 7.6673 1.70902 7.67248C1.78173 7.67767 1.85445 7.6624 1.91894 7.62841L3.90644 6.58349L5.89394 7.62841C5.95843 7.6624 6.03114 7.67767 6.10386 7.67248C6.17657 7.6673 6.24639 7.64187 6.3054 7.59907C6.36442 7.55627 6.41028 7.49781 6.4378 7.43031C6.46532 7.3628 6.4734 7.28894 6.46113 7.21708L6.08144 5.0038L7.68964 3.43739C7.74119 3.38641 7.77754 3.32209 7.79461 3.25163C7.81168 3.18116 7.80881 3.10734 7.78631 3.03841C7.76381 2.96949 7.72257 2.90819 7.66721 2.86137C7.61185 2.81456 7.54455 2.78407 7.47284 2.77333L5.25058 2.45028L4.258 0.432706C4.22208 0.371713 4.17086 0.321153 4.10941 0.286026C4.04795 0.250899 3.97839 0.232422 3.90761 0.232422C3.83683 0.232422 3.76727 0.250899 3.70581 0.286026C3.64436 0.321153 3.59314 0.371713 3.55722 0.432706L2.5623 2.44677L0.340031 2.76982C0.26761 2.78007 0.199521 2.81044 0.143517 2.85749C0.0875125 2.90454 0.0458425 2.96637 0.0232506 3.03593C0.000658663 3.1055 -0.00194748 3.18001 0.0157288 3.25099C0.0334052 3.32196 0.0706538 3.38655 0.123234 3.43739L1.73144 5.0038ZM2.87792 3.19013C2.9406 3.18103 3.00012 3.15682 3.05137 3.1196C3.10261 3.08237 3.14403 3.03325 3.17206 2.97646L3.90644 1.48857L4.64081 2.97646C4.66885 3.03325 4.71027 3.08237 4.76151 3.1196C4.81275 3.15682 4.87228 3.18103 4.93495 3.19013L6.57558 3.4288L5.39081 4.58739C5.34544 4.63158 5.31149 4.68614 5.29189 4.74636C5.2723 4.80658 5.26764 4.87067 5.27831 4.9331L5.55917 6.56864L4.08808 5.79677C4.03205 5.76734 3.96972 5.75197 3.90644 5.75197C3.84316 5.75197 3.78082 5.76734 3.7248 5.79677L2.25566 6.56864L2.53652 4.9331C2.54719 4.87067 2.54253 4.80658 2.52293 4.74636C2.50334 4.68614 2.46939 4.63158 2.42402 4.58739L1.23573 3.4288L2.87792 3.19013Z" fill="#27B4D5"/>
<path d="M18.9187 5.0038L18.5391 7.21708C18.5268 7.28894 18.5349 7.3628 18.5624 7.43031C18.5899 7.49781 18.6358 7.55627 18.6948 7.59907C18.7538 7.64187 18.8236 7.6673 18.8963 7.67248C18.969 7.67767 19.0417 7.6624 19.1062 7.62841L21.0937 6.58349L23.0812 7.62841C23.1457 7.6624 23.2184 7.67767 23.2912 7.67248C23.3639 7.6673 23.4337 7.64187 23.4927 7.59907C23.5517 7.55627 23.5976 7.49781 23.6251 7.43031C23.6526 7.3628 23.6607 7.28894 23.6484 7.21708L23.2687 5.0038L24.8769 3.43739C24.9285 3.38641 24.9648 3.32209 24.9819 3.25163C24.999 3.18116 24.9961 3.10734 24.9736 3.03841C24.9511 2.96949 24.9099 2.90819 24.8545 2.86137C24.7991 2.81456 24.7318 2.78407 24.6601 2.77333L22.4379 2.45028L21.4453 0.432706C21.4094 0.371713 21.3582 0.321153 21.2967 0.286026C21.2353 0.250899 21.1657 0.232422 21.0949 0.232422C21.0241 0.232422 20.9546 0.250899 20.8931 0.286026C20.8317 0.321153 20.7804 0.371713 20.7445 0.432706L19.7496 2.44677L17.5273 2.76982C17.4556 2.78056 17.3883 2.81104 17.333 2.85786C17.2776 2.90468 17.2364 2.96598 17.2139 3.0349C17.1914 3.10382 17.1885 3.17765 17.2056 3.24811C17.2226 3.31857 17.259 3.3829 17.3105 3.43388L18.9187 5.0038ZM20.0652 3.19013C20.1279 3.18103 20.1874 3.15682 20.2387 3.1196C20.2899 3.08237 20.3313 3.03325 20.3594 2.97646L21.0937 1.48857L21.8281 2.97646C21.8561 3.03325 21.8976 3.08237 21.9488 3.1196C22.0001 3.15682 22.0596 3.18103 22.1223 3.19013L23.7629 3.4288L22.5781 4.58739C22.5327 4.63158 22.4988 4.68614 22.4792 4.74636C22.4596 4.80658 22.4549 4.87067 22.4656 4.9331L22.7465 6.56864L21.2754 5.79677C21.2194 5.76734 21.157 5.75197 21.0937 5.75197C21.0305 5.75197 20.9681 5.76734 20.9121 5.79677L19.443 6.56864L19.7238 4.9331C19.7345 4.87067 19.7298 4.80658 19.7102 4.74636C19.6906 4.68614 19.6567 4.63158 19.6113 4.58739L18.423 3.4288L20.0652 3.19013Z" fill="#27B4D5"/>
<path d="M10.325 5.0038L9.9453 7.21708C9.93303 7.28894 9.94111 7.3628 9.96863 7.43031C9.99615 7.49781 10.042 7.55627 10.101 7.59907C10.16 7.64187 10.2299 7.6673 10.3026 7.67248C10.3753 7.67767 10.448 7.6624 10.5125 7.62841L12.5 6.58349L14.4875 7.62841C14.552 7.6624 14.6247 7.67767 14.6974 7.67248C14.7701 7.6673 14.8399 7.64187 14.899 7.59907C14.958 7.55627 15.0038 7.49781 15.0313 7.43031C15.0589 7.3628 15.0669 7.28894 15.0547 7.21708L14.675 5.0038L16.2832 3.43739C16.3347 3.38641 16.3711 3.32209 16.3882 3.25163C16.4052 3.18116 16.4024 3.10734 16.3799 3.03841C16.3574 2.96949 16.3161 2.90819 16.2608 2.86137C16.2054 2.81456 16.1381 2.78407 16.0664 2.77333L13.8441 2.45028L12.8516 0.432706C12.8156 0.371713 12.7644 0.321153 12.703 0.286026C12.6415 0.250899 12.5719 0.232422 12.5012 0.232422C12.4304 0.232422 12.3608 0.250899 12.2994 0.286026C12.2379 0.321153 12.1867 0.371713 12.1508 0.432706L11.1558 2.44677L8.93358 2.76982C8.86188 2.78056 8.79458 2.81104 8.73922 2.85786C8.68386 2.90468 8.64262 2.96598 8.62012 3.0349C8.59762 3.10382 8.59474 3.17765 8.61181 3.24811C8.62889 3.31857 8.66523 3.3829 8.71679 3.43388L10.325 5.0038ZM11.4715 3.19013C11.5342 3.18103 11.5937 3.15682 11.6449 3.1196C11.6962 3.08237 11.7376 3.03325 11.7656 2.97646L12.5 1.48857L13.2344 2.97646C13.2624 3.03325 13.3038 3.08237 13.3551 3.1196C13.4063 3.15682 13.4658 3.18103 13.5285 3.19013L15.1691 3.4288L13.9844 4.58739C13.939 4.63158 13.905 4.68614 13.8854 4.74636C13.8658 4.80658 13.8612 4.87067 13.8719 4.9331L14.1527 6.56864L12.6816 5.79677C12.6256 5.76734 12.5633 5.75197 12.5 5.75197C12.4367 5.75197 12.3744 5.76734 12.3183 5.79677L10.8492 6.56864L11.1301 4.9331C11.1407 4.87067 11.1361 4.80658 11.1165 4.74636C11.0969 4.68614 11.0629 4.63158 11.0176 4.58739L9.82929 3.4288L11.4715 3.19013Z" fill="#27B4D5"/>
</g>
<defs>
<clipPath id="clip0_820_8814">
<rect width="25" height="25" fill="white"/>
</clipPath>
</defs>
</svg>
