<svg width="249" height="36" viewBox="0 0 249 36" fill="none" xmlns="http://www.w3.org/2000/svg">
<path d="M0.449719 11.2373H4.24772C6.44372 11.2373 8.38772 10.6253 8.38772 8.3393C8.38772 6.5933 7.27172 5.9453 6.49772 5.7833C7.30772 5.5493 7.90172 4.9913 7.90172 3.6053C7.90172 0.977304 5.41772 0.815304 4.71572 0.815304H0.449719V11.2373ZM2.21372 9.5813V6.7193H4.91372C5.95772 6.7193 6.62372 7.0253 6.62372 8.1593C6.62372 9.2753 5.95772 9.5813 4.91372 9.5813H2.21372ZM6.13772 3.7853C6.13772 5.0813 4.76972 5.0633 4.76972 5.0633H2.21372V2.4713H4.76972C4.76972 2.4713 6.13772 2.4713 6.13772 3.7853ZM14.5389 11.4353C14.5389 11.4353 18.7869 11.4353 18.7869 7.2053V0.815304H17.0409V7.2053C17.0409 7.6013 16.9329 9.7793 14.5389 9.7793C12.1449 9.7793 12.0369 7.6013 12.0369 7.2053V0.815304H10.2909V7.2053C10.2909 11.4353 14.5389 11.4353 14.5389 11.4353ZM24.6333 11.4353C27.6213 11.4353 28.5213 9.5813 28.5213 8.5733C28.5213 4.7753 22.5813 5.9273 22.5813 3.5693C22.5813 2.8673 23.4453 2.2913 24.3093 2.2913C25.1913 2.2913 26.2173 2.5793 26.8473 3.2993L28.1253 2.3453C27.7653 1.8053 26.7213 0.635304 24.4353 0.635304C21.5193 0.635304 20.8353 2.4713 20.8353 3.4433C20.8353 7.2773 26.7573 6.5033 26.7573 8.4473C26.7573 8.7173 26.4153 9.7793 24.7233 9.7793C23.3193 9.7793 22.2933 9.0233 21.8793 8.4653L20.5833 9.4913C21.0873 10.2293 22.2393 11.4353 24.6333 11.4353ZM30.5435 11.2373H32.3075V0.815304H30.5435V11.2373ZM41.9639 8.1773L36.3839 0.815304H34.6919V11.2373H36.4559V3.8753L42.0719 11.2373H43.7279V0.815304H41.9639V8.1773ZM47.8641 9.5813V6.9713H52.6881V5.3153H47.8641V2.4713H53.0841V0.815304H46.1001V11.2373H53.0841V9.5813H47.8641ZM58.7524 11.4353C61.7404 11.4353 62.6404 9.5813 62.6404 8.5733C62.6404 4.7753 56.7004 5.9273 56.7004 3.5693C56.7004 2.8673 57.5644 2.2913 58.4284 2.2913C59.3104 2.2913 60.3364 2.5793 60.9664 3.2993L62.2444 2.3453C61.8844 1.8053 60.8404 0.635304 58.5544 0.635304C55.6384 0.635304 54.9544 2.4713 54.9544 3.4433C54.9544 7.2773 60.8764 6.5033 60.8764 8.4473C60.8764 8.7173 60.5344 9.7793 58.8424 9.7793C57.4384 9.7793 56.4124 9.0233 55.9984 8.4653L54.7024 9.4913C55.2064 10.2293 56.3584 11.4353 58.7524 11.4353ZM68.2446 11.4353C71.2326 11.4353 72.1326 9.5813 72.1326 8.5733C72.1326 4.7753 66.1926 5.9273 66.1926 3.5693C66.1926 2.8673 67.0566 2.2913 67.9206 2.2913C68.8026 2.2913 69.8286 2.5793 70.4586 3.2993L71.7366 2.3453C71.3766 1.8053 70.3326 0.635304 68.0466 0.635304C65.1306 0.635304 64.4466 2.4713 64.4466 3.4433C64.4466 7.2773 70.3686 6.5033 70.3686 8.4473C70.3686 8.7173 70.0266 9.7793 68.3346 9.7793C66.9306 9.7793 65.9046 9.0233 65.4906 8.4653L64.1946 9.4913C64.6986 10.2293 65.8506 11.4353 68.2446 11.4353ZM80.3403 2.4713V11.2373H82.1043V2.4713H85.4703V0.815304H76.9743V2.4713H80.3403ZM95.4731 11.2373L92.8631 7.9073C93.9251 7.5653 95.2571 6.6833 95.2571 4.4873C95.2571 0.851304 91.6211 0.815304 91.6211 0.815304H87.3911V11.2373H89.1551V8.1413H90.9911L93.5111 11.2373H95.4731ZM89.1551 2.4713H91.5131C92.6291 2.4713 93.4931 2.9933 93.4931 4.4873C93.4931 5.9813 92.6291 6.4853 91.5131 6.4853H89.1551V2.4713ZM100.312 0.815304L96.514 11.2373H98.422L99.088 9.3833H104.074L104.758 11.2373H106.666L102.868 0.815304H100.312ZM101.59 2.5433L103.48 7.7453H99.682L101.59 2.5433ZM112.272 11.2373L116.07 0.815304H114.162L110.994 9.5093L107.826 0.815304H105.918L109.716 11.2373H112.272ZM119.46 9.5813V6.9713H124.284V5.3153H119.46V2.4713H124.68V0.815304H117.696V11.2373H124.68V9.5813H119.46ZM128.53 0.815304H126.766V11.2373H133.732V9.5813H128.53V0.815304ZM144.406 9.5813L148.042 3.7673V11.2373H149.806V0.815304H147.808L144.28 6.4493L140.752 0.815304H138.754V11.2373H140.518V3.7673L144.154 9.5813H144.406ZM155.226 0.815304L151.428 11.2373H153.336L154.002 9.3833H158.988L159.672 11.2373H161.58L157.782 0.815304H155.226ZM156.504 2.5433L158.394 7.7453H154.596L156.504 2.5433ZM170.478 8.1773L164.898 0.815304H163.206V11.2373H164.97V3.8753L170.586 11.2373H172.242V0.815304H170.478V8.1773ZM177.656 0.815304L173.858 11.2373H175.766L176.432 9.3833H181.418L182.102 11.2373H184.01L180.212 0.815304H177.656ZM178.934 2.5433L180.824 7.7453H177.026L178.934 2.5433ZM191.282 5.4053V7.0253H193.82C193.82 7.0253 193.532 9.7793 190.436 9.7793C188.366 9.7793 186.674 8.0873 186.674 6.0353C186.674 3.9113 188.366 2.2913 190.436 2.2913C191.822 2.2913 193.1 2.7773 193.874 3.9113L195.224 2.9753C194.774 2.3273 193.316 0.635304 190.436 0.635304C187.286 0.635304 184.91 3.0473 184.91 6.0353C184.91 9.0233 187.34 11.4353 190.436 11.4353C190.922 11.4353 194.9 11.2733 195.62 7.0793V5.4053H191.282ZM199.475 9.5813V6.9713H204.299V5.3153H199.475V2.4713H204.695V0.815304H197.711V11.2373H204.695V9.5813H199.475ZM212.434 9.5813L216.07 3.7673V11.2373H217.834V0.815304H215.836L212.308 6.4493L208.78 0.815304H206.782V11.2373H208.546V3.7673L212.182 9.5813H212.434ZM221.975 9.5813V6.9713H226.799V5.3153H221.975V2.4713H227.195V0.815304H220.211V11.2373H227.195V9.5813H221.975ZM236.554 8.1773L230.974 0.815304H229.282V11.2373H231.046V3.8753L236.662 11.2373H238.318V0.815304H236.554V8.1773ZM243.606 2.4713V11.2373H245.37V2.4713H248.736V0.815304H240.24V2.4713H243.606ZM72.0854 31.4353C75.0734 31.4353 75.9734 29.5813 75.9734 28.5733C75.9734 24.7753 70.0334 25.9273 70.0334 23.5693C70.0334 22.8673 70.8974 22.2913 71.7614 22.2913C72.6434 22.2913 73.6694 22.5793 74.2994 23.2993L75.5774 22.3453C75.2174 21.8053 74.1734 20.6353 71.8874 20.6353C68.9714 20.6353 68.2874 22.4713 68.2874 23.4433C68.2874 27.2773 74.2094 26.5033 74.2094 28.4473C74.2094 28.7173 73.8674 29.7793 72.1754 29.7793C70.7714 29.7793 69.7454 29.0233 69.3314 28.4653L68.0354 29.4913C68.5394 30.2293 69.6914 31.4353 72.0854 31.4353ZM81.1629 25.6933L78.5349 20.8153H76.5189L80.2809 27.7273V31.2373H82.0449V27.7273L85.8069 20.8153H83.7909L81.1629 25.6933ZM90.2964 31.4353C93.2844 31.4353 94.1844 29.5813 94.1844 28.5733C94.1844 24.7753 88.2444 25.9273 88.2444 23.5693C88.2444 22.8673 89.1084 22.2913 89.9724 22.2913C90.8544 22.2913 91.8804 22.5793 92.5104 23.2993L93.7884 22.3453C93.4284 21.8053 92.3844 20.6353 90.0984 20.6353C87.1824 20.6353 86.4984 22.4713 86.4984 23.4433C86.4984 27.2773 92.4204 26.5033 92.4204 28.4473C92.4204 28.7173 92.0784 29.7793 90.3864 29.7793C88.9824 29.7793 87.9564 29.0233 87.5424 28.4653L86.2464 29.4913C86.7504 30.2293 87.9024 31.4353 90.2964 31.4353ZM98.4897 22.4713V31.2373H100.254V22.4713H103.62V20.8153H95.1237V22.4713H98.4897ZM107.305 29.5813V26.9713H112.129V25.3153H107.305V22.4713H112.525V20.8153H105.541V31.2373H112.525V29.5813H107.305ZM120.263 29.5813L123.899 23.7673V31.2373H125.663V20.8153H123.665L120.137 26.4493L116.609 20.8153H114.611V31.2373H116.375V23.7673L120.011 29.5813H120.263ZM131.3 26.1221V26.0342C131.3 24.7568 131.443 23.6025 131.73 22.5713C132.018 21.5342 132.384 20.626 132.829 19.8467C133.274 19.0674 133.743 18.4229 134.235 17.9131C134.728 17.3975 135.182 17.0254 135.598 16.7969L135.94 17.8691C135.595 18.1328 135.243 18.4961 134.886 18.959C134.534 19.4219 134.209 19.9902 133.91 20.6641C133.617 21.3379 133.38 22.1201 133.198 23.0107C133.017 23.9014 132.926 24.9033 132.926 26.0166V26.1396C132.926 27.2529 133.017 28.2578 133.198 29.1543C133.38 30.0449 133.617 30.8301 133.91 31.5098C134.209 32.1895 134.534 32.7666 134.886 33.2412C135.243 33.7217 135.595 34.1025 135.94 34.3838L135.598 35.3682C135.182 35.1396 134.728 34.7676 134.235 34.252C133.743 33.7422 133.274 33.0977 132.829 32.3184C132.384 31.5449 132.018 30.6396 131.73 29.6025C131.443 28.5654 131.3 27.4053 131.3 26.1221ZM137.48 31.2373H141.278C143.474 31.2373 145.418 30.6253 145.418 28.3393C145.418 26.5933 144.302 25.9453 143.528 25.7833C144.338 25.5493 144.932 24.9913 144.932 23.6053C144.932 20.9773 142.448 20.8153 141.746 20.8153H137.48V31.2373ZM139.244 29.5813V26.7193H141.944C142.988 26.7193 143.654 27.0253 143.654 28.1593C143.654 29.2753 142.988 29.5813 141.944 29.5813H139.244ZM143.168 23.7853C143.168 25.0813 141.8 25.0633 141.8 25.0633H139.244V22.4713H141.8C141.8 22.4713 143.168 22.4713 143.168 23.7853ZM149.625 22.4713V31.2373H151.389V22.4713H154.755V20.8153H146.259V22.4713H149.625ZM162.327 29.5813L165.963 23.7673V31.2373H167.727V20.8153H165.729L162.201 26.4493L158.673 20.8153H156.675V31.2373H158.439V23.7673L162.075 29.5813H162.327ZM173.687 31.4353C176.675 31.4353 177.575 29.5813 177.575 28.5733C177.575 24.7753 171.635 25.9273 171.635 23.5693C171.635 22.8673 172.499 22.2913 173.363 22.2913C174.245 22.2913 175.271 22.5793 175.901 23.2993L177.179 22.3453C176.819 21.8053 175.775 20.6353 173.489 20.6353C170.573 20.6353 169.889 22.4713 169.889 23.4433C169.889 27.2773 175.811 26.5033 175.811 28.4473C175.811 28.7173 175.469 29.7793 173.777 29.7793C172.373 29.7793 171.347 29.0233 170.933 28.4653L169.637 29.4913C170.141 30.2293 171.293 31.4353 173.687 31.4353ZM183.393 26.0342V26.1221C183.393 27.4053 183.249 28.5654 182.962 29.6025C182.675 30.6396 182.309 31.5449 181.863 32.3184C181.418 33.0977 180.949 33.7422 180.457 34.252C179.965 34.7676 179.511 35.1396 179.095 35.3682L178.752 34.3838C179.098 34.1201 179.446 33.751 179.798 33.2764C180.149 32.8076 180.475 32.2275 180.773 31.5361C181.072 30.8506 181.312 30.0596 181.494 29.1631C181.676 28.2607 181.767 27.2529 181.767 26.1396V26.0166C181.767 24.9033 181.67 23.8984 181.477 23.002C181.283 22.0996 181.031 21.3057 180.721 20.6201C180.416 19.9346 180.088 19.3574 179.736 18.8887C179.391 18.4141 179.062 18.0479 178.752 17.79L179.095 16.7969C179.511 17.0254 179.965 17.3975 180.457 17.9131C180.949 18.4229 181.418 19.0674 181.863 19.8467C182.309 20.626 182.675 21.5342 182.962 22.5713C183.249 23.6025 183.393 24.7568 183.393 26.0342Z" fill="white"/>
</svg>
