<svg width="472" height="238" viewBox="0 0 472 238" fill="none" xmlns="http://www.w3.org/2000/svg">
<path fill-rule="evenodd" clip-rule="evenodd" d="M21.5 33.4C21.5 27.4999 26.3259 22.675 32.225 22.675H107.3V108.475H21.5V33.4ZM128.75 22.675H214.55V108.475H128.75V22.675ZM236 22.675H321.8V108.475H236V22.675ZM343.25 22.675H414.572C424.76 22.675 433.877 30.1811 435.485 40.3685L447.819 116.519C448.891 124.562 449.964 132.606 449.964 140.65H375.425L343.25 108.475V22.675ZM0.0500488 22.675V215.725C0.0500488 227.522 9.70255 237.175 21.5 237.175H22.5725C22.0366 233.956 21.5 230.203 21.5 226.45C21.5 196.956 45.6315 172.825 75.125 172.825C104.619 172.825 128.75 196.956 128.75 226.45C128.75 230.203 128.214 233.956 127.678 237.175H322.873C322.337 233.956 321.8 230.203 321.8 226.45C321.8 196.956 345.932 172.825 375.425 172.825C404.919 172.825 429.05 196.956 429.05 226.45C429.05 230.203 428.514 233.956 427.978 237.175H450.5C462.298 237.175 471.95 227.522 471.95 215.725V147.084C471.95 135.822 470.877 124.025 469.269 112.762L456.935 36.0812C453.182 15.703 435.485 0.687302 414.572 0.687302H21.5C9.70255 1.225 0.0500488 10.8747 0.0500488 22.675Z" fill="#94A3B6"/>
</svg>
