<svg width="15" height="17" viewBox="0 0 15 17" fill="none" xmlns="http://www.w3.org/2000/svg">
<path d="M7.49984 13.4583C7.63993 13.4583 7.77688 13.4167 7.89337 13.3389C8.00985 13.261 8.10064 13.1504 8.15425 13.021C8.20786 12.8916 8.22189 12.7491 8.19456 12.6117C8.16723 12.4743 8.09977 12.3481 8.0007 12.2491C7.90164 12.15 7.77543 12.0825 7.63803 12.0552C7.50062 12.0279 7.3582 12.0419 7.22877 12.0955C7.09934 12.1491 6.98871 12.2399 6.91088 12.3564C6.83305 12.4729 6.7915 12.6098 6.7915 12.7499C6.7915 12.9378 6.86613 13.1179 6.99897 13.2508C7.13181 13.3836 7.31198 13.4583 7.49984 13.4583ZM11.0415 13.4583C11.1816 13.4583 11.3185 13.4167 11.435 13.3389C11.5515 13.261 11.6423 13.1504 11.6959 13.021C11.7495 12.8916 11.7636 12.7491 11.7362 12.6117C11.7089 12.4743 11.6414 12.3481 11.5424 12.2491C11.4433 12.15 11.3171 12.0825 11.1797 12.0552C11.0423 12.0279 10.8999 12.0419 10.7704 12.0955C10.641 12.1491 10.5304 12.2399 10.4525 12.3564C10.3747 12.4729 10.3332 12.6098 10.3332 12.7499C10.3332 12.9378 10.4078 13.1179 10.5406 13.2508C10.6735 13.3836 10.8536 13.4583 11.0415 13.4583ZM11.0415 10.6249C11.1816 10.6249 11.3185 10.5834 11.435 10.5055C11.5515 10.4277 11.6423 10.3171 11.6959 10.1877C11.7495 10.0582 11.7636 9.9158 11.7362 9.7784C11.7089 9.64099 11.6414 9.51478 11.5424 9.41572C11.4433 9.31666 11.3171 9.24919 11.1797 9.22186C11.0423 9.19453 10.8999 9.20856 10.7704 9.26217C10.641 9.31578 10.5304 9.40657 10.4525 9.52306C10.3747 9.63954 10.3332 9.77649 10.3332 9.91658C10.3332 10.1044 10.4078 10.2846 10.5406 10.4175C10.6735 10.5503 10.8536 10.6249 11.0415 10.6249ZM7.49984 10.6249C7.63993 10.6249 7.77688 10.5834 7.89337 10.5055C8.00985 10.4277 8.10064 10.3171 8.15425 10.1877C8.20786 10.0582 8.22189 9.9158 8.19456 9.7784C8.16723 9.64099 8.09977 9.51478 8.0007 9.41572C7.90164 9.31666 7.77543 9.24919 7.63803 9.22186C7.50062 9.19453 7.3582 9.20856 7.22877 9.26217C7.09934 9.31578 6.98871 9.40657 6.91088 9.52306C6.83305 9.63954 6.7915 9.77649 6.7915 9.91658C6.7915 10.1044 6.86613 10.2846 6.99897 10.4175C7.13181 10.5503 7.31198 10.6249 7.49984 10.6249ZM12.4582 2.12492H11.7498V1.41659C11.7498 1.22872 11.6752 1.04856 11.5424 0.915718C11.4095 0.78288 11.2294 0.708252 11.0415 0.708252C10.8536 0.708252 10.6735 0.78288 10.5406 0.915718C10.4078 1.04856 10.3332 1.22872 10.3332 1.41659V2.12492H4.6665V1.41659C4.6665 1.22872 4.59188 1.04856 4.45904 0.915718C4.3262 0.78288 4.14603 0.708252 3.95817 0.708252C3.77031 0.708252 3.59014 0.78288 3.4573 0.915718C3.32447 1.04856 3.24984 1.22872 3.24984 1.41659V2.12492H2.5415C1.97792 2.12492 1.43742 2.3488 1.0389 2.74732C0.640387 3.14583 0.416504 3.68633 0.416504 4.24992V14.1666C0.416504 14.7302 0.640387 15.2707 1.0389 15.6692C1.43742 16.0677 1.97792 16.2916 2.5415 16.2916H12.4582C13.0218 16.2916 13.5623 16.0677 13.9608 15.6692C14.3593 15.2707 14.5832 14.7302 14.5832 14.1666V4.24992C14.5832 3.68633 14.3593 3.14583 13.9608 2.74732C13.5623 2.3488 13.0218 2.12492 12.4582 2.12492ZM13.1665 14.1666C13.1665 14.3544 13.0919 14.5346 12.959 14.6675C12.8262 14.8003 12.646 14.8749 12.4582 14.8749H2.5415C2.35364 14.8749 2.17347 14.8003 2.04064 14.6675C1.9078 14.5346 1.83317 14.3544 1.83317 14.1666V7.79158H13.1665V14.1666ZM13.1665 6.37492H1.83317V4.24992C1.83317 4.06206 1.9078 3.88189 2.04064 3.74905C2.17347 3.61621 2.35364 3.54159 2.5415 3.54159H3.24984V4.24992C3.24984 4.43778 3.32447 4.61795 3.4573 4.75079C3.59014 4.88362 3.77031 4.95825 3.95817 4.95825C4.14603 4.95825 4.3262 4.88362 4.45904 4.75079C4.59188 4.61795 4.6665 4.43778 4.6665 4.24992V3.54159H10.3332V4.24992C10.3332 4.43778 10.4078 4.61795 10.5406 4.75079C10.6735 4.88362 10.8536 4.95825 11.0415 4.95825C11.2294 4.95825 11.4095 4.88362 11.5424 4.75079C11.6752 4.61795 11.7498 4.43778 11.7498 4.24992V3.54159H12.4582C12.646 3.54159 12.8262 3.61621 12.959 3.74905C13.0919 3.88189 13.1665 4.06206 13.1665 4.24992V6.37492ZM3.95817 10.6249C4.09827 10.6249 4.23521 10.5834 4.3517 10.5055C4.46818 10.4277 4.55897 10.3171 4.61259 10.1877C4.6662 10.0582 4.68022 9.9158 4.65289 9.7784C4.62556 9.64099 4.5581 9.51478 4.45904 9.41572C4.35998 9.31666 4.23376 9.24919 4.09636 9.22186C3.95896 9.19453 3.81653 9.20856 3.6871 9.26217C3.55767 9.31578 3.44705 9.40657 3.36921 9.52306C3.29138 9.63954 3.24984 9.77649 3.24984 9.91658C3.24984 10.1044 3.32447 10.2846 3.4573 10.4175C3.59014 10.5503 3.77031 10.6249 3.95817 10.6249ZM3.95817 13.4583C4.09827 13.4583 4.23521 13.4167 4.3517 13.3389C4.46818 13.261 4.55897 13.1504 4.61259 13.021C4.6662 12.8916 4.68022 12.7491 4.65289 12.6117C4.62556 12.4743 4.5581 12.3481 4.45904 12.2491C4.35998 12.15 4.23376 12.0825 4.09636 12.0552C3.95896 12.0279 3.81653 12.0419 3.6871 12.0955C3.55767 12.1491 3.44705 12.2399 3.36921 12.3564C3.29138 12.4729 3.24984 12.6098 3.24984 12.7499C3.24984 12.9378 3.32447 13.1179 3.4573 13.2508C3.59014 13.3836 3.77031 13.4583 3.95817 13.4583Z" fill="#011841"/>
</svg>
