<svg width="32" height="32" viewBox="0 0 32 32" fill="none" xmlns="http://www.w3.org/2000/svg">
<path d="M8.61206 30H23.388C27.2794 30 28.8303 27.634 29.0136 24.75L29.7468 13.186C29.9442 10.162 27.5191 7.6 24.4596 7.6C23.5995 7.6 22.81 7.11 22.4152 6.354L21.4 4.324C20.7515 3.05 19.0596 2 17.6215 2H14.3927C12.9405 2 11.2486 3.05 10.6 4.324L9.58491 6.354C9.19013 7.11 8.40057 7.6 7.54052 7.6C4.48099 7.6 2.05593 10.162 2.25332 13.186L2.98648 24.75C3.15567 27.634 4.72068 30 8.61206 30Z" stroke="#6B829D" stroke-width="1.5" stroke-linecap="round" stroke-linejoin="round"/>
<path d="M14.5 10.6665H17.5" stroke="#6B829D" stroke-width="1.5" stroke-linecap="round" stroke-linejoin="round"/>
<path d="M16 23.2573C17.79 23.2573 19.25 21.7973 19.25 20.0073C19.25 18.2173 17.79 16.7573 16 16.7573C14.21 16.7573 12.75 18.2173 12.75 20.0073C12.75 21.7973 14.21 23.2573 16 23.2573Z" stroke="#6B829D" stroke-width="1.5" stroke-linecap="round" stroke-linejoin="round"/>
</svg>
