<svg width="19" height="21" viewBox="0 0 19 21" fill="none" xmlns="http://www.w3.org/2000/svg">
<path d="M13.6667 18.8342H5.33333C4.50453 18.8342 3.70968 18.505 3.12362 17.9189C2.53757 17.3329 2.20833 16.538 2.20833 15.7092V5.29256C2.20833 5.01629 2.09859 4.75134 1.90324 4.55599C1.70789 4.36064 1.44293 4.2509 1.16667 4.2509C0.890399 4.2509 0.625447 4.36064 0.430097 4.55599C0.234747 4.75134 0.125 5.01629 0.125 5.29256V15.7092C0.125 17.0906 0.673733 18.4153 1.65049 19.3921C2.62724 20.3688 3.952 20.9176 5.33333 20.9176H13.6667C13.9429 20.9176 14.2079 20.8078 14.4032 20.6125C14.5986 20.4171 14.7083 20.1522 14.7083 19.8759C14.7083 19.5996 14.5986 19.3347 14.4032 19.1393C14.2079 18.944 13.9429 18.8342 13.6667 18.8342ZM7.41667 11.5426C7.41667 11.8188 7.52641 12.0838 7.72176 12.2791C7.91711 12.4745 8.18207 12.5842 8.45833 12.5842H13.6667C13.9429 12.5842 14.2079 12.4745 14.4032 12.2791C14.5986 12.0838 14.7083 11.8188 14.7083 11.5426C14.7083 11.2663 14.5986 11.0013 14.4032 10.806C14.2079 10.6106 13.9429 10.5009 13.6667 10.5009H8.45833C8.18207 10.5009 7.91711 10.6106 7.72176 10.806C7.52641 11.0013 7.41667 11.2663 7.41667 11.5426ZM18.875 7.31339C18.8641 7.2177 18.8432 7.12343 18.8125 7.03215V6.9384C18.7624 6.83129 18.6956 6.73284 18.6146 6.64673L12.3646 0.396728C12.2785 0.315704 12.18 0.248896 12.0729 0.198812C12.0418 0.194395 12.0103 0.194395 11.9792 0.198812C11.8733 0.138126 11.7565 0.0991704 11.6354 0.0842285H7.41667C6.58786 0.0842285 5.79301 0.413469 5.20696 0.99952C4.62091 1.58557 4.29167 2.38043 4.29167 3.20923V13.6259C4.29167 14.4547 4.62091 15.2496 5.20696 15.8356C5.79301 16.4217 6.58786 16.7509 7.41667 16.7509H15.75C16.5788 16.7509 17.3737 16.4217 17.9597 15.8356C18.5458 15.2496 18.875 14.4547 18.875 13.6259V7.3759C18.875 7.3759 18.875 7.37589 18.875 7.31339ZM12.625 3.63631L15.3229 6.33423H13.6667C13.3904 6.33423 13.1254 6.22448 12.9301 6.02913C12.7347 5.83378 12.625 5.56883 12.625 5.29256V3.63631ZM16.7917 13.6259C16.7917 13.9022 16.6819 14.1671 16.4866 14.3625C16.2912 14.5578 16.0263 14.6676 15.75 14.6676H7.41667C7.1404 14.6676 6.87545 14.5578 6.6801 14.3625C6.48475 14.1671 6.375 13.9022 6.375 13.6259V3.20923C6.375 2.93296 6.48475 2.66801 6.6801 2.47266C6.87545 2.27731 7.1404 2.16756 7.41667 2.16756H10.5417V5.29256C10.5445 5.64792 10.6079 6.00019 10.7292 6.33423H8.45833C8.18207 6.33423 7.91711 6.44397 7.72176 6.63933C7.52641 6.83468 7.41667 7.09963 7.41667 7.3759C7.41667 7.65216 7.52641 7.91711 7.72176 8.11246C7.91711 8.30781 8.18207 8.41756 8.45833 8.41756H16.7917V13.6259Z" fill="#21417E"/>
</svg>
