<svg width="117" height="117" viewBox="0 0 117 117" fill="none" xmlns="http://www.w3.org/2000/svg">
<path d="M105.558 26.3936C106.82 26.3936 107.843 27.4173 107.843 28.6787C107.843 29.9401 106.82 30.9639 105.558 30.9639C104.297 30.9639 103.273 29.9401 103.273 28.6787C103.273 27.4173 104.297 26.3936 105.558 26.3936Z" fill="#94D4FF"/>
<path d="M105.558 85.8076C106.82 85.8076 107.843 86.8314 107.843 88.0928C107.843 89.3542 106.82 90.3779 105.558 90.3779C104.297 90.3779 103.273 89.3542 103.273 88.0928C103.273 86.8314 104.297 85.8076 105.558 85.8076Z" fill="#94D4FF"/>
<path d="M94.1323 99.5186C96.6574 99.5186 98.7026 101.564 98.7026 104.089C98.7026 106.614 96.6574 108.659 94.1323 108.659C91.6072 108.659 89.562 106.614 89.562 104.089C89.562 101.564 91.6072 99.5186 94.1323 99.5186Z" fill="#3256C1"/>
<path d="M89.562 5.82715C90.8234 5.82715 91.8472 6.8509 91.8472 8.1123C91.8472 9.37371 90.8234 10.3975 89.562 10.3975C88.3006 10.3975 87.2769 9.37371 87.2769 8.1123C87.2769 6.8509 88.3006 5.82715 89.562 5.82715Z" fill="#94D4FF"/>
<path d="M57.5698 12.6826C32.328 12.6826 11.8667 33.1439 11.8667 58.3857C11.8667 83.6276 32.328 104.089 57.5698 104.089C82.8117 104.089 103.273 83.6276 103.273 58.3857C103.273 33.1439 82.8117 12.6826 57.5698 12.6826Z" fill="#00ACE8"/>
<path d="M57.5698 92.6631C38.6396 92.6631 23.2925 77.316 23.2925 58.3857C23.2925 39.4555 38.6396 24.1084 57.5698 24.1084C76.5001 24.1084 91.8472 39.4555 91.8472 58.3857C91.8472 77.316 76.5001 92.6631 57.5698 92.6631Z" fill="white"/>
<path d="M74.5597 47.5815C76.3447 49.3662 76.3447 52.2592 74.5597 54.044L58.4014 70.2046L51.939 76.667L45.4743 70.2046L40.6274 65.3555C39.7365 64.4643 39.2886 63.2943 39.2886 62.1243C39.2886 60.9543 39.7365 59.7843 40.6274 58.8928C42.4124 57.1081 45.3054 57.1081 47.0899 58.8928L51.939 63.7396L68.0975 47.5815C68.991 46.6903 70.1588 46.2424 71.3288 46.2424C72.4988 46.2424 73.6665 46.6903 74.5597 47.5815Z" fill="#07CC66"/>
<path d="M23.2925 104.089C24.5539 104.089 25.5776 105.113 25.5776 106.374C25.5776 107.635 24.5539 108.659 23.2925 108.659C22.0308 108.659 21.0073 107.635 21.0073 106.374C21.0073 105.113 22.0308 104.089 23.2925 104.089Z" fill="#94D4FF"/>
<path d="M17.5796 10.3975C20.7354 10.3975 23.2925 12.9546 23.2925 16.1104C23.2925 19.2662 20.7354 21.8232 17.5796 21.8232C14.4236 21.8232 11.8667 19.2662 11.8667 16.1104C11.8667 12.9546 14.4236 10.3975 17.5796 10.3975Z" fill="#3256C1"/>
<path d="M9.58154 28.6787C10.8429 28.6787 11.8667 29.7025 11.8667 30.9639C11.8667 32.2253 10.8429 33.249 9.58154 33.249C8.31991 33.249 7.29639 32.2253 7.29639 30.9639C7.29639 29.7025 8.31991 28.6787 9.58154 28.6787Z" fill="#94D4FF"/>
<path d="M9.58154 85.8076C10.8429 85.8076 11.8667 86.8314 11.8667 88.0928C11.8667 89.3542 10.8429 90.3779 9.58154 90.3779C8.31991 90.3779 7.29639 89.3542 7.29639 88.0928C7.29639 86.8314 8.31991 85.8076 9.58154 85.8076Z" fill="#94D4FF"/>
<path d="M84.9917 58.3857C84.9917 57.1237 83.9684 56.1006 82.7065 56.1006C81.4447 56.1006 80.4214 57.1237 80.4214 58.3857C80.4214 70.9863 70.1704 81.2373 57.5698 81.2373C56.3077 81.2373 55.2847 82.2606 55.2847 83.5225V92.5854C56.0401 92.6352 56.8018 92.6631 57.5698 92.6631C58.3379 92.6631 59.0993 92.6352 59.855 92.5854V85.7132C73.9101 84.548 84.9917 72.7365 84.9917 58.3857Z" fill="#D0DCE7"/>
<path d="M30.1479 58.3857C30.1479 59.6476 31.171 60.6709 32.4331 60.6709C33.695 60.6709 34.7183 59.6476 34.7183 58.3857C34.7183 45.7854 44.9692 35.5342 57.5698 35.5342C58.8317 35.5342 59.855 34.5111 59.855 33.249V24.1861C59.0993 24.1363 58.3379 24.1084 57.5698 24.1084C56.8018 24.1084 56.0401 24.1363 55.2847 24.1861V31.0582C41.2296 32.2234 30.1479 44.035 30.1479 58.3857Z" fill="#D0DCE7"/>
</svg>
