<svg width="16" height="16" viewBox="0 0 16 16" fill="none" xmlns="http://www.w3.org/2000/svg">
<path d="M2.75 12.5H5.93C6.0287 12.5006 6.12655 12.4817 6.21793 12.4443C6.30931 12.407 6.39242 12.352 6.4625 12.2825L11.6525 7.08502L13.7825 5.00002C13.8528 4.93029 13.9086 4.84734 13.9467 4.75595C13.9847 4.66455 14.0043 4.56652 14.0043 4.46752C14.0043 4.36851 13.9847 4.27048 13.9467 4.17908C13.9086 4.08769 13.8528 4.00474 13.7825 3.93502L10.6025 0.717515C10.5328 0.647219 10.4498 0.591423 10.3584 0.553347C10.267 0.51527 10.169 0.495667 10.07 0.495667C9.97099 0.495667 9.87296 0.51527 9.78157 0.553347C9.69017 0.591423 9.60722 0.647219 9.5375 0.717515L7.4225 2.84002L2.2175 8.03752C2.14799 8.1076 2.093 8.19071 2.05567 8.28209C2.01835 8.37346 1.99943 8.47131 2 8.57001V11.75C2 11.9489 2.07902 12.1397 2.21967 12.2803C2.36032 12.421 2.55109 12.5 2.75 12.5ZM10.07 2.30752L12.1925 4.43002L11.1275 5.49502L9.005 3.37252L10.07 2.30752ZM3.5 8.87752L7.9475 4.43002L10.07 6.55252L5.6225 11H3.5V8.87752ZM14.75 14H1.25C1.05109 14 0.860322 14.079 0.71967 14.2197C0.579018 14.3603 0.5 14.5511 0.5 14.75C0.5 14.9489 0.579018 15.1397 0.71967 15.2803C0.860322 15.421 1.05109 15.5 1.25 15.5H14.75C14.9489 15.5 15.1397 15.421 15.2803 15.2803C15.421 15.1397 15.5 14.9489 15.5 14.75C15.5 14.5511 15.421 14.3603 15.2803 14.2197C15.1397 14.079 14.9489 14 14.75 14Z" fill="#03314C"/>
</svg>
