<svg width="120" height="120" viewBox="0 0 120 120" fill="none" xmlns="http://www.w3.org/2000/svg">
<g filter="url(#filter0_d_820_9649)">
<circle cx="60" cy="56" r="54" fill="white"/>
<circle cx="60" cy="56" r="53" stroke="#1E3B4A" stroke-opacity="0.27" stroke-width="2"/>
</g>
<path fill-rule="evenodd" clip-rule="evenodd" d="M47.801 29H64.5346L78.6952 43.781V72.4854C78.6952 76.0803 75.7937 79 72.1988 79H47.801C44.2244 79 41.3047 76.0803 41.3047 72.4854V35.4963C41.3046 31.9197 44.2244 29 47.801 29V29Z" fill="#00733B"/>
<path opacity="0.302" fill-rule="evenodd" clip-rule="evenodd" d="M64.5162 29V43.6533H78.6951L64.5162 29Z" fill="white"/>
<path d="M56.8518 65.4051H54.4249L52.7643 62.6132L51.1037 65.4051H48.6584L51.5417 60.5511L49.0052 56.3357H51.4504L52.7642 58.5255L54.0598 56.3357H56.5051L53.9868 60.5693L56.8518 65.4051ZM57.7095 65.4051V56.3357H60.027V63.4343H63.9686V65.4051H57.7095V65.4051ZM67.8007 65.5146C66.8883 65.5146 66.0854 65.2226 65.392 64.6569C64.7168 64.1095 64.3336 63.4161 64.2789 62.5949L66.2679 62.011C66.3227 62.4489 66.5052 62.8321 66.8154 63.1241C67.1439 63.4161 67.5088 63.5621 67.9103 63.5621C68.2387 63.5621 68.5125 63.4891 68.7314 63.3431C68.9321 63.1971 69.0416 62.9964 69.0416 62.7592C69.0416 62.5585 68.9504 62.3942 68.7861 62.2482C68.6219 62.1205 68.4029 62.011 68.1474 61.9198C67.892 61.8285 67.5818 61.7373 67.2715 61.6643C66.9431 61.5731 66.6146 61.4636 66.3044 61.3176C65.9759 61.1898 65.6839 61.0256 65.4285 60.8249C65.1547 60.6424 64.954 60.3687 64.7898 60.0219C64.6255 59.6935 64.5343 59.292 64.5343 58.8358C64.5343 58.0876 64.8445 57.4672 65.4832 56.9745C66.1219 56.4635 66.8883 56.2263 67.7824 56.2263C68.6766 56.2263 69.4612 56.4453 70.1182 56.865C70.7751 57.3029 71.1948 57.8687 71.3591 58.5621L69.2788 59.438C69.1876 59.0548 69.005 58.7446 68.7496 58.5074C68.4941 58.2884 68.1656 58.1607 67.7824 58.1607C67.4904 58.1607 67.2715 58.2336 67.089 58.3432C66.9248 58.4527 66.8518 58.6169 66.8518 58.8176C66.8518 59.0001 66.9613 59.1643 67.1802 59.2921C67.3992 59.4016 67.6912 59.4928 68.0197 59.5475C68.3481 59.6023 68.7131 59.6935 69.0963 59.8213C69.4978 59.9673 69.8445 60.1133 70.1912 60.314C70.5196 60.4965 70.7933 60.8067 71.0123 61.2082C71.2495 61.6279 71.359 62.1206 71.359 62.6863C71.359 63.5257 71.0306 64.2191 70.3736 64.73C69.7167 65.2409 68.8592 65.5146 67.8007 65.5146Z" fill="white"/>
<defs>
<filter id="filter0_d_820_9649" x="0" y="0" width="120" height="120" filterUnits="userSpaceOnUse" color-interpolation-filters="sRGB">
<feFlood flood-opacity="0" result="BackgroundImageFix"/>
<feColorMatrix in="SourceAlpha" type="matrix" values="0 0 0 0 0 0 0 0 0 0 0 0 0 0 0 0 0 0 127 0" result="hardAlpha"/>
<feOffset dy="4"/>
<feGaussianBlur stdDeviation="3"/>
<feComposite in2="hardAlpha" operator="out"/>
<feColorMatrix type="matrix" values="0 0 0 0 0.679167 0 0 0 0 0.679167 0 0 0 0 0.679167 0 0 0 0.25 0"/>
<feBlend mode="normal" in2="BackgroundImageFix" result="effect1_dropShadow_820_9649"/>
<feBlend mode="normal" in="SourceGraphic" in2="effect1_dropShadow_820_9649" result="shape"/>
</filter>
</defs>
</svg>
