<svg width="21" height="21" viewBox="0 0 21 21" fill="none" xmlns="http://www.w3.org/2000/svg">
<g clip-path="url(#clip0_820_8896)">
<path d="M10.1783 14.0774C9.57791 14.0774 9.0918 14.5778 9.0918 15.1783C9.0918 15.7644 9.5636 16.2791 10.1783 16.2791C10.7931 16.2791 11.2792 15.7644 11.2792 15.1783C11.2792 14.5778 10.7789 14.0774 10.1783 14.0774Z" fill="#21417E"/>
<path d="M10.3643 5.74225C8.43424 5.74225 7.54785 6.88597 7.54785 7.65801C7.54785 8.21561 8.01961 8.47295 8.40565 8.47295C9.17765 8.47295 8.86314 7.37209 10.3214 7.37209C11.0363 7.37209 11.6082 7.68664 11.6082 8.34428C11.6082 9.11636 10.8075 9.55953 10.3357 9.95984C9.92114 10.3173 9.37785 10.9034 9.37785 12.133C9.37785 12.8764 9.57796 13.0909 10.1642 13.0909C10.8647 13.0909 11.0076 12.7763 11.0076 12.5047C11.0076 11.7613 11.022 11.3324 11.8083 10.7176C12.1943 10.4174 13.4096 9.44518 13.4096 8.10126C13.4096 6.75734 12.1943 5.74225 10.3643 5.74225Z" fill="#21417E"/>
<path d="M10.5 0C4.69695 0 0 4.69617 0 10.5V20.1797C0 20.6327 0.367254 21 0.820312 21H10.5C16.303 21 21 16.3038 21 10.5C21 4.69695 16.3038 0 10.5 0ZM10.5 19.3594H1.64062V10.5C1.64062 5.60368 5.60302 1.64062 10.5 1.64062C15.3963 1.64062 19.3594 5.60302 19.3594 10.5C19.3594 15.3963 15.397 19.3594 10.5 19.3594Z" fill="#21417E"/>
</g>
<defs>
<clipPath id="clip0_820_8896">
<rect width="21" height="21" fill="white"/>
</clipPath>
</defs>
</svg>
