<svg width="21" height="21" viewBox="0 0 21 21" fill="none" xmlns="http://www.w3.org/2000/svg">
<path d="M4.55032 15.4103V12.9768C4.55032 12.1683 5.18372 11.4433 6.0838 11.4433C6.89222 11.4433 7.61729 12.0767 7.61729 12.9768V15.3186C7.61729 16.9438 6.26716 18.2939 4.642 18.2939C3.01684 18.2939 1.66671 16.9355 1.66671 15.3186V10.1848C1.57503 5.50102 5.27539 1.70898 9.95918 1.70898C14.643 1.70898 18.335 5.50102 18.335 10.0931V15.227C18.335 16.8521 16.9849 18.2023 15.3597 18.2023C13.7346 18.2023 12.3844 16.8521 12.3844 15.227V12.8851C12.3844 12.0767 13.0178 11.3516 13.9179 11.3516C14.7263 11.3516 15.4514 11.985 15.4514 12.8851V15.4103" stroke="#6C829C" stroke-width="1.5" stroke-linecap="round" stroke-linejoin="round"/>
</svg>
