<svg width="21" height="23" viewBox="0 0 21 23" fill="none" xmlns="http://www.w3.org/2000/svg">
<g clip-path="url(#clip0_1059_2596)">
<path d="M18.7256 8.42058L11.2229 2.49466C11.0315 2.34834 10.7635 2.27518 10.5339 2.27518C10.3042 2.27518 10.0362 2.34834 9.84484 2.49466L2.34208 8.42058C2.11241 8.60348 1.95929 8.89612 1.95929 9.18876V20.2724C1.95929 20.8211 2.41864 21.2967 3.03111 21.2967H18.0366C18.6108 21.2967 19.1084 20.8577 19.1084 20.2724V9.18876C19.1084 8.89612 18.9553 8.60348 18.7256 8.42058ZM15.1274 19.5408H5.94034C5.51927 19.5408 5.17475 19.2116 5.17475 18.8092C5.17475 18.4069 5.51927 18.0776 5.94034 18.0776H15.1274C15.5485 18.0776 15.893 18.4069 15.893 18.8092C15.893 19.2116 15.5485 19.5408 15.1274 19.5408Z" fill="#03314C"/>
<path d="M19.6826 7.25005L12.1799 1.36071C11.2229 0.592533 9.84482 0.592533 8.88784 1.36071L1.38508 7.28663C0.772615 7.76217 0.428101 8.45719 0.428101 9.18878V20.2725C0.428101 21.6625 1.61476 22.7599 3.0311 22.7599H18.0366C19.4529 22.7599 20.6396 21.6625 20.6396 20.2359V9.1522C20.6396 8.42061 20.2951 7.72559 19.6826 7.25005ZM19.1084 20.2725C19.1084 20.8577 18.6108 21.2967 18.0366 21.2967H3.0311C2.41863 21.2967 1.95927 20.8212 1.95927 20.2725V9.18878C1.95927 8.89614 2.11239 8.6035 2.34207 8.42061L9.84482 2.49468C10.0362 2.34836 10.3042 2.2752 10.5338 2.2752C10.7635 2.2752 11.0315 2.34836 11.2229 2.49468L18.7256 8.42061C18.9553 8.6035 19.1084 8.89614 19.1084 9.18878V20.2725V20.2725Z" fill="#03314C"/>
<path d="M15.1274 18.0777H5.94033C5.51926 18.0777 5.17474 18.4069 5.17474 18.8093C5.17474 19.2116 5.51926 19.5409 5.94033 19.5409H15.1274C15.5484 19.5409 15.893 19.2116 15.893 18.8093C15.893 18.4069 15.5484 18.0777 15.1274 18.0777Z" fill="#47DD95"/>
</g>
<defs>
<clipPath id="clip0_1059_2596">
<rect width="20.2593" height="22.021" fill="white" transform="translate(0.404175 0.761688)"/>
</clipPath>
</defs>
</svg>
