<svg width="21" height="23" viewBox="0 0 21 23" fill="none" xmlns="http://www.w3.org/2000/svg">
<g clip-path="url(#clip0_311_1372)">
<path d="M18.3213 7.65883L10.8185 1.73291C10.6271 1.58659 10.3592 1.51343 10.1295 1.51343C9.89983 1.51343 9.63187 1.58659 9.44048 1.73291L1.93773 7.65883C1.70805 7.84173 1.55493 8.13437 1.55493 8.42701V19.5107C1.55493 20.0594 2.01428 20.5349 2.62675 20.5349H17.6323C18.2064 20.5349 18.7041 20.096 18.7041 19.5107V8.42701C18.7041 8.13437 18.551 7.84173 18.3213 7.65883ZM14.723 18.7791H5.53598C5.11491 18.7791 4.7704 18.4499 4.7704 18.0475C4.7704 17.6451 5.11491 17.3159 5.53598 17.3159H14.723C15.1441 17.3159 15.4886 17.6451 15.4886 18.0475C15.4886 18.4499 15.1441 18.7791 14.723 18.7791Z" fill="#D3D7DA"/>
<path d="M19.2783 6.48843L11.7756 0.599081C10.8186 -0.169095 9.44052 -0.169095 8.48354 0.599081L0.980787 6.52501C0.368318 7.00054 0.0238037 7.69556 0.0238037 8.42715V19.5108C0.0238037 20.9009 1.21046 21.9983 2.6268 21.9983H17.6323C19.0486 21.9983 20.2353 20.9009 20.2353 19.4742V8.39057C20.2353 7.65898 19.8908 6.96396 19.2783 6.48843ZM18.7041 19.5108C18.7041 20.0961 18.2065 20.5351 17.6323 20.5351H2.6268C2.01433 20.5351 1.55498 20.0595 1.55498 19.5108V8.42715C1.55498 8.13452 1.70809 7.84188 1.93777 7.65898L9.44052 1.73305C9.63192 1.58673 9.89987 1.51358 10.1296 1.51358C10.3592 1.51358 10.6272 1.58673 10.8186 1.73305L18.3213 7.65898C18.551 7.84188 18.7041 8.13452 18.7041 8.42715V19.5108V19.5108Z" fill="#BAC3CA"/>
<path d="M14.7232 17.3159H5.53616C5.11508 17.3159 4.77057 17.6451 4.77057 18.0475C4.77057 18.4499 5.11508 18.7791 5.53616 18.7791H14.7232C15.1443 18.7791 15.4888 18.4499 15.4888 18.0475C15.4888 17.6451 15.1443 17.3159 14.7232 17.3159Z" fill="#BAC3CA"/>
</g>
<defs>
<clipPath id="clip0_311_1372">
<rect width="20.2593" height="22.021" fill="white"/>
</clipPath>
</defs>
</svg>
