<svg width="24" height="24" viewBox="0 0 24 24" fill="none" xmlns="http://www.w3.org/2000/svg">
<g clip-path="url(#clip0_820_8951)">
<path d="M18 23.9998C17.9 23.9998 17.8 23.9798 17.706 23.9398C17.474 23.8408 12 21.4568 12 16.5538V12.5358C12 12.2148 12.204 11.9298 12.509 11.8258L17.759 10.0397C17.915 9.98675 18.085 9.98675 18.241 10.0397L23.491 11.8258C23.796 11.9298 24 12.2148 24 12.5358V16.5538C24 21.4568 18.526 23.8407 18.294 23.9408C18.2 23.9797 18.1 23.9998 18 23.9998ZM13.5 13.0728V16.5527C13.5 19.8857 16.956 21.8897 18 22.4177C19.044 21.8897 22.5 19.8857 22.5 16.5527V13.0728L18 11.5417L13.5 13.0728Z" fill="#21417E"/>
<path d="M17.7497 19.5001C17.5517 19.5001 17.3597 19.4221 17.2197 19.2801L15.2198 17.2801C14.9268 16.9871 14.9268 16.5121 15.2198 16.2191C15.5128 15.9261 15.9877 15.9261 16.2807 16.2191L17.6697 17.6081L20.1497 14.3001C20.3957 13.9691 20.8678 13.9011 21.1998 14.1511C21.5308 14.3991 21.5978 14.8691 21.3488 15.2011L18.3488 19.2011C18.2188 19.3751 18.0197 19.4831 17.8017 19.4991C17.7847 19.4991 17.7677 19.5001 17.7497 19.5001Z" fill="#21417E"/>
<path d="M10.59 21H2.75C1.233 21 0 19.767 0 18.25V2.75C0 1.233 1.233 0 2.75 0H14.25C15.767 0 17 1.233 17 2.75V8.18C17 8.594 16.664 8.93 16.25 8.93C15.836 8.93 15.5 8.594 15.5 8.18V2.75C15.5 2.061 14.939 1.5 14.25 1.5H2.75C2.061 1.5 1.5 2.061 1.5 2.75V18.25C1.5 18.939 2.061 19.5 2.75 19.5H10.59C11.004 19.5 11.34 19.836 11.34 20.25C11.34 20.664 11.004 21 10.59 21Z" fill="#21417E"/>
<path d="M13.25 9.5H3.75C3.336 9.5 3 9.164 3 8.75C3 8.336 3.336 8 3.75 8H13.25C13.664 8 14 8.336 14 8.75C14 9.164 13.664 9.5 13.25 9.5Z" fill="#21417E"/>
<path d="M9.25 13.5H3.75C3.336 13.5 3 13.164 3 12.75C3 12.336 3.336 12 3.75 12H9.25C9.664 12 10 12.336 10 12.75C10 13.164 9.664 13.5 9.25 13.5Z" fill="#21417E"/>
<path d="M8.25 5.5H3.75C3.336 5.5 3 5.164 3 4.75C3 4.336 3.336 4 3.75 4H8.25C8.664 4 9 4.336 9 4.75C9 5.164 8.664 5.5 8.25 5.5Z" fill="#21417E"/>
</g>
<defs>
<clipPath id="clip0_820_8951">
<rect width="24" height="24" fill="white"/>
</clipPath>
</defs>
</svg>
