<svg width="24" height="40" viewBox="0 0 24 40" fill="none" xmlns="http://www.w3.org/2000/svg">
<ellipse cx="11.9992" cy="37.5532" rx="4.99093" ry="2.44581" fill="#1D110B"/>
<ellipse cx="11.9992" cy="37.2271" rx="4.99093" ry="2.44581" fill="#FDBC5A"/>
<path d="M11.9993 0C5.38311 0 0 5.46902 0 12.1908C0 14.2081 0.497101 16.2099 1.44106 17.9847L11.3443 36.1807C11.4756 36.4233 11.727 36.5737 12.0007 36.5737C12.2744 36.5737 12.5257 36.4233 12.657 36.1807L22.563 17.979C23.5028 16.2099 23.9999 14.2095 23.9999 12.1922C23.9999 5.46902 18.6168 0 11.9993 0ZM11.9993 17.43C8.38537 17.43 5.44595 14.4436 5.44595 10.7721C5.44595 7.10052 8.38537 4.11418 11.9993 4.11418C15.6132 4.11418 18.5526 7.10052 18.5526 10.7721C18.5526 14.4436 15.6132 17.43 11.9993 17.43Z" fill="#A82723"/>
</svg>
