<svg width="61" height="101" viewBox="0 0 61 101" fill="none" xmlns="http://www.w3.org/2000/svg">
<ellipse cx="29.9991" cy="93.8881" rx="12.4776" ry="6.11468" fill="#1D110B"/>
<ellipse cx="29.9991" cy="93.0717" rx="12.4776" ry="6.11468" fill="#FDBC5A"/>
<path d="M29.9989 0C13.4581 0 0 13.6729 0 30.4776C0 35.5212 1.24279 40.5257 3.60273 44.9627L28.3615 90.4539C28.6897 91.0604 29.3181 91.4363 30.0024 91.4363C30.6866 91.4363 31.315 91.0604 31.6432 90.4539L56.4089 44.9486C58.7584 40.5257 60.0013 35.5247 60.0013 30.4812C60.0013 13.6729 46.5431 0 29.9989 0ZM29.9989 43.5759C20.9639 43.5759 13.6152 36.1099 13.6152 26.9308C13.6152 17.7517 20.9639 10.2857 29.9989 10.2857C39.0338 10.2857 46.3826 17.7517 46.3826 26.9308C46.3826 36.1099 39.0338 43.5759 29.9989 43.5759Z" fill="#A82723"/>
</svg>
