<svg width="184" height="105" viewBox="0 0 184 105" fill="none" xmlns="http://www.w3.org/2000/svg">
<path d="M0 96.8802V39.7148H11.4331V87.1356H23.1918V96.8802H0Z" fill="#064769"/>
<path d="M73.1182 97.3991C67.6629 97.3991 63.7916 96.0041 61.5042 93.2101C59.2208 90.4162 58.0791 86.3117 58.0791 80.9007V65.8938C58.0791 61.8215 58.5133 58.4326 59.3776 55.7271C60.2419 53.0215 61.7575 50.9954 63.9243 49.6527C66.0911 48.31 69.0981 47.6387 72.9533 47.6387C75.6387 47.6387 78.0468 48.1171 80.1814 49.0698C82.3121 50.0226 83.9965 51.4216 85.2306 53.2587C86.4648 55.0999 87.0839 57.3512 87.0839 60.0164V67.4536H75.2287V60.6315C75.2287 59.5059 75.0679 58.5572 74.7423 57.7893C74.4166 57.0215 73.7131 56.6356 72.6317 56.6356C70.7262 56.6356 69.7735 57.9903 69.7735 60.6958V84.3097C69.7735 85.3067 69.9905 86.2193 70.4247 87.0554C70.8589 87.8876 71.5704 88.3057 72.5674 88.3057C73.5845 88.3057 74.292 87.8996 74.694 87.0876C75.096 86.2755 75.293 85.3268 75.293 84.2454V76.0605H87.0839V84.571C87.0839 87.2564 86.4849 89.5559 85.2829 91.4735C84.0809 93.3911 82.4286 94.8584 80.3302 95.8755C78.2277 96.8885 75.8237 97.3991 73.1182 97.3991Z" fill="#064769"/>
<path d="M100.042 97.399C97.3363 97.399 95.274 96.7719 93.8549 95.5136C92.4358 94.2594 91.4669 92.5347 90.9484 90.3478C90.4298 88.1609 90.1685 85.6805 90.1685 82.9107C90.1685 79.9439 90.4619 77.5158 91.0449 75.6183C91.6278 73.7249 92.6328 72.1691 94.0479 70.959C95.4669 69.745 97.4207 68.7159 99.9091 67.8716L107.121 65.4033V60.4024C107.121 57.7812 106.265 56.4707 104.556 56.4707C102.997 56.4707 102.217 57.532 102.217 59.6546V62.5772H90.9122C90.8921 62.4044 90.88 62.1833 90.88 61.9099C90.88 61.6405 90.88 61.331 90.88 60.9853C90.88 56.1331 92.0217 52.6959 94.3051 50.6738C96.5885 48.6477 100.211 47.6387 105.171 47.6387C107.768 47.6387 110.096 48.101 112.154 49.0175C114.212 49.9381 115.841 51.2969 117.043 53.0939C118.245 54.8909 118.844 57.1099 118.844 59.7511V96.8764H107.282V91.0996C106.719 93.1337 105.786 94.6935 104.488 95.7749C103.194 96.8603 101.71 97.399 100.042 97.399ZM104.621 88.37C105.573 88.37 106.225 87.968 106.57 87.168C106.916 86.368 107.089 85.4996 107.089 84.571V70.9952C105.485 71.6465 104.243 72.4626 103.354 73.4475C102.466 74.4324 102.024 75.8796 102.024 77.7852V84.0524C102.024 86.9308 102.888 88.37 104.621 88.37Z" fill="#064769"/>
<path d="M123.349 96.8802V39.7148H135.172V96.8802H123.349Z" fill="#064769"/>
<path d="M139.865 96.8802V39.7148H151.688V96.8802H139.865Z" fill="#064769"/>
<path d="M155.45 105V97.6271H161.038C161.882 97.6271 162.304 97.3336 162.304 96.7507C162.304 96.4492 162.272 96.1316 162.207 95.81L154.573 48.1602H165.713L168.961 84.0192L172.792 48.1602H184L174.971 99.412C174.645 101.253 174.022 102.644 173.102 103.585C172.181 104.526 170.67 104.996 168.571 104.996H155.45V105Z" fill="#064769"/>
<ellipse cx="38.6178" cy="82.4687" rx="10.9601" ry="5.371" fill="#1D110B"/>
<ellipse cx="38.6178" cy="81.7519" rx="10.9601" ry="5.371" fill="#FDBC5A"/>
<path d="M38.6175 0C23.8567 0 11.8467 12.01 11.8467 26.7709C11.8467 31.201 12.9558 35.5969 15.0618 39.4943L37.1564 79.4528C37.4493 79.9855 38.0101 80.3157 38.6207 80.3157C39.2313 80.3157 39.7921 79.9855 40.0849 79.4528L62.1858 39.4818C64.2824 35.5969 65.3915 31.2041 65.3915 26.774C65.3915 12.01 53.3816 0 38.6175 0ZM38.6175 38.2761C30.5548 38.2761 23.9968 31.7182 23.9968 23.6554C23.9968 15.5927 30.5548 9.03474 38.6175 9.03474C46.6803 9.03474 53.2383 15.5927 53.2383 23.6554C53.2383 31.7182 46.6803 38.2761 38.6175 38.2761Z" fill="#A82723"/>
</svg>
