<svg width="20" height="20" viewBox="0 0 20 20" fill="none" xmlns="http://www.w3.org/2000/svg">
<path fill-rule="evenodd" clip-rule="evenodd" d="M7.08681 5.46773V4.60941C7.08681 3.0154 8.43559 1.66663 10.0296 1.66663C11.6849 1.66663 13.0337 3.0154 13.0337 4.60941V5.46773C13.7694 5.46773 14.3825 6.0195 14.3825 6.81651V10.8015C14.3825 11.5372 13.7694 12.089 13.0337 12.089H7.08681C6.35112 12.089 5.73804 11.5372 5.73804 10.8015V6.81651C5.73804 6.0195 6.35112 5.46773 7.08681 5.46773ZM7.88382 5.46773H12.2367V4.60941C12.2367 3.44456 11.2558 2.46363 10.0296 2.46363C8.86475 2.46363 7.88382 3.44456 7.88382 4.60941V5.46773ZM10.0296 7.73613C10.4588 7.73613 10.7653 8.04267 10.7653 8.41052C10.7653 8.71706 10.5814 8.96229 10.3361 9.0849V9.88191C10.3361 10.2498 9.78437 10.2498 9.78437 9.88191V9.0849C9.53914 8.96229 9.35521 8.71706 9.35521 8.41052C9.35521 8.04267 9.66175 7.73613 10.0296 7.73613Z" fill="#94A2BE"/>
<path fill-rule="evenodd" clip-rule="evenodd" d="M1.87561 13.0088H18.2449C18.7966 13.0088 19.2871 13.4993 19.2871 14.051V16.6873C19.2871 17.3004 18.7966 17.7908 18.2449 17.7908H1.87561C1.32384 17.7908 0.833374 17.3004 0.833374 16.6873V14.051C0.833374 13.4993 1.32384 13.0088 1.87561 13.0088ZM4.45055 14.1736V14.7254L4.87971 14.2963C5.12494 14.051 5.5541 14.4802 5.24756 14.7254L4.87971 15.0933H5.43148C5.79933 15.0933 5.79933 15.645 5.43148 15.645H4.87971L5.24756 16.0742C5.5541 16.3194 5.12494 16.7486 4.87971 16.442L4.45055 16.0742V16.626C4.45055 16.9938 3.89878 16.9938 3.89878 16.626V16.0742L3.53093 16.442C3.2857 16.7486 2.85654 16.3194 3.10177 16.0742L3.53093 15.645H2.97916C2.61131 15.645 2.61131 15.0933 2.97916 15.0933H3.53093L3.10177 14.7254C2.85654 14.4802 3.2857 14.051 3.53093 14.2963L3.89878 14.7254V14.1736C3.89878 13.8058 4.45055 13.8058 4.45055 14.1736ZM8.37427 14.1736V14.7254L8.80342 14.2963C9.04866 14.051 9.41651 14.4802 9.17127 14.7254L8.74212 15.0933H9.3552C9.72305 15.0933 9.72305 15.645 9.3552 15.645H8.74212L9.17127 16.0742C9.41651 16.3194 9.04866 16.7486 8.80342 16.442L8.37427 16.0742V16.626C8.37427 16.9938 7.82249 16.9938 7.82249 16.626V16.0742L7.39334 16.442C7.14811 16.7486 6.78026 16.3194 7.02549 16.0742L7.45465 15.645H6.84157C6.47372 15.645 6.47372 15.0933 6.84157 15.0933H7.45465L7.02549 14.7254C6.78026 14.4802 7.14811 14.051 7.39334 14.2963L7.82249 14.7254V14.1736C7.82249 13.8058 8.37427 13.8058 8.37427 14.1736ZM12.298 14.1736V14.7254L12.6658 14.2963C12.9724 14.051 13.3402 14.4802 13.095 14.7254L12.6658 15.0933H13.2789C13.6468 15.0933 13.6468 15.645 13.2789 15.645H12.6658L13.095 16.0742C13.3402 16.3194 12.9724 16.7486 12.6658 16.442L12.298 16.0742V16.626C12.298 16.9938 11.7462 16.9938 11.7462 16.626V16.0742L11.3171 16.442C11.0718 16.7486 10.704 16.3194 10.9492 16.0742L11.3171 15.645H10.7653C10.3974 15.645 10.3974 15.0933 10.7653 15.0933H11.3171L10.9492 14.7254C10.704 14.4802 11.0718 14.051 11.3171 14.2963L11.7462 14.7254V14.1736C11.7462 13.8058 12.298 13.8058 12.298 14.1736ZM16.2217 14.1736V14.7254L16.5896 14.2963C16.8348 14.051 17.2639 14.4802 17.0187 14.7254L16.5896 15.0933H17.1413C17.5092 15.0933 17.5092 15.645 17.1413 15.645H16.5896L17.0187 16.0742C17.2639 16.3194 16.8348 16.7486 16.5896 16.442L16.2217 16.0742V16.626C16.2217 16.9938 15.6699 16.9938 15.6699 16.626V16.0742L15.2408 16.442C14.9955 16.7486 14.5664 16.3194 14.8729 16.0742L15.2408 15.645H14.689C14.3212 15.645 14.3212 15.0933 14.689 15.0933H15.2408L14.8729 14.7254C14.5664 14.4802 14.9955 14.051 15.2408 14.2963L15.6699 14.7254V14.1736C15.6699 13.8058 16.2217 13.8058 16.2217 14.1736Z" fill="#94A2BE"/>
</svg>
