<svg width="23" height="23" viewBox="0 0 23 23" fill="none" xmlns="http://www.w3.org/2000/svg">
<g clip-path="url(#clip0_820_8879)">
<path fill-rule="evenodd" clip-rule="evenodd" d="M11.3346 19.3368V20.4831C11.3346 21.4023 10.8765 22.1958 10.0804 22.6554C9.6974 22.8765 9.26993 22.9998 8.82673 23C8.38312 23.0003 7.95578 22.8767 7.57251 22.6554L2.47585 19.7128C1.6797 19.2532 1.22168 18.4598 1.22168 17.5405V2.50835C1.22168 1.12516 2.34688 0 3.73003 0H14.9547C16.3379 0 17.4632 1.12507 17.4632 2.50835V5.67709C17.4632 6.13166 17.0942 6.50073 16.6396 6.50073C16.1849 6.50073 15.8161 6.1317 15.8161 5.67709V2.50835C15.8161 2.03339 15.4297 1.64693 14.9547 1.64693H5.11897L10.0804 4.51191C10.8762 4.97146 11.3346 5.76478 11.3346 6.68375V17.6897H14.9547C15.4296 17.6897 15.8161 17.3035 15.8161 16.8285V14.0507C15.8161 13.5958 16.1847 13.2271 16.6396 13.2271C17.0943 13.2271 17.4632 13.5959 17.4632 14.0507V16.8285C17.4632 18.2118 16.3379 19.3368 14.9547 19.3368H11.3346ZM18.966 10.4919L18.059 11.3989C17.7374 11.7205 17.7375 12.2418 18.059 12.5635C18.2138 12.7184 18.4224 12.8044 18.6413 12.8044C18.8605 12.8044 19.0689 12.7186 19.2239 12.5635L21.5364 10.2505C21.8579 9.92899 21.858 9.4079 21.5364 9.08635L19.2239 6.77377C18.9023 6.45213 18.3808 6.45226 18.0591 6.77372C17.7376 7.09501 17.7377 7.61659 18.0591 7.93796L18.966 8.84476H12.8899C12.4349 8.84476 12.0665 9.21348 12.0665 9.66845C12.0665 10.1234 12.4349 10.4919 12.8899 10.4919H18.966V10.4919Z" fill="#E00000"/>
</g>
<defs>
<clipPath id="clip0_820_8879">
<rect width="23" height="23" fill="white"/>
</clipPath>
</defs>
</svg>
