<svg width="159" height="54" viewBox="0 0 159 54" fill="none" xmlns="http://www.w3.org/2000/svg">
<path d="M158.324 53.9999V49.3271C158.324 46.6204 156.129 44.4254 153.422 44.4254H141.45V42.6074H137.693V50.3506H122.719V42.6074H118.962V53.9999H158.324ZM154.567 50.3506H141.45V48.0748H153.193C153.974 48.0748 154.567 48.6538 154.567 49.4349V50.3506Z" fill="white"/>
<path d="M112.04 53.9999C115.299 53.9999 117.75 51.5491 117.75 48.2902C117.75 45.0314 115.299 42.6074 112.053 42.6074C108.808 42.6074 106.357 45.0448 106.357 48.2902C106.357 49.0174 106.478 49.7176 106.707 50.3506H90.9786L90.9516 42.6074H87.208V53.9999H112.026H112.04ZM112.04 50.3506C110.868 50.3506 109.993 49.5022 109.993 48.2902C109.993 47.0782 110.868 46.2568 112.04 46.2568C113.212 46.2568 114.087 47.1186 114.087 48.2902C114.087 49.4618 113.212 50.3506 112.04 50.3506Z" fill="white"/>
<path d="M82.6295 44.1157L80.9192 42.4055L79.2225 44.1157L80.9192 45.826L82.6295 44.1157Z" fill="white"/>
<path d="M86.0499 44.1157L84.3262 42.4055L82.6294 44.1157L84.3262 45.826L86.0499 44.1157Z" fill="white"/>
<path d="M80.2728 53.9999H84.3262L87.208 46.4453H83.1681L80.2728 53.9999Z" fill="white"/>
<path d="M33.1945 5.54813H0V1.85836H33.1945V5.54813ZM103.125 30.1511C100.62 32.0903 97.4828 33.2619 94.0758 33.2619C85.9152 33.2619 79.2763 26.6229 79.2763 18.4623C79.2763 10.3017 85.9152 3.66284 94.0758 3.66284C102.236 3.66284 108.875 10.3017 108.875 18.4623C108.875 21.8693 107.717 25.007 105.778 27.5117L111.838 33.5446L114.41 30.9726L110.424 26.9865C111.757 24.4279 112.511 21.5327 112.511 18.4489C112.511 8.25487 104.256 0 94.0624 0C83.8683 0 75.6135 8.25487 75.6135 18.4489C75.6135 28.6429 83.8683 36.8978 94.0624 36.8978C97.1461 36.8978 100.041 36.1436 102.587 34.8105L106.573 38.7965L109.145 36.2244L103.112 30.1646L103.125 30.1511ZM0 9.22444V12.9142H11.0693V35.0394H14.7591V9.22444H0ZM18.4489 9.22444V35.0394H22.1387V12.9142H33.208V9.22444H18.4489ZM94.0893 11.4464C90.2244 11.4464 87.1003 14.5706 87.1003 18.4354C87.1003 22.3003 90.2244 25.4244 94.0893 25.4244C97.9541 25.4244 101.078 22.2868 101.078 18.4354C101.078 14.584 97.9407 11.4464 94.0893 11.4464ZM94.0893 7.79701C99.9471 7.79701 104.728 12.5641 104.728 18.4354C104.728 24.3067 99.9606 29.0738 94.0893 29.0738C88.218 29.0738 83.4509 24.3067 83.4509 18.4354C83.4509 12.5641 88.218 7.79701 94.0893 7.79701Z" fill="#00ACE8"/>
<path d="M146.514 35.0395L133.828 1.8584H145.638L158.324 35.0395H146.514ZM117.763 35.0395H129.573L135.256 20.1726H123.446L117.763 35.0395Z" fill="white"/>
<path d="M61.7566 35.0395L49.0713 1.8584H60.8813L73.5666 35.0395H61.7566ZM33.006 35.0395H44.816L50.4987 20.1726H38.6888L33.006 35.0395Z" fill="white"/>
</svg>
