<svg width="14" height="25" viewBox="0 0 14 25" fill="none" xmlns="http://www.w3.org/2000/svg">
<path d="M4.11043 9.66539H4.11046C4.19445 9.66458 4.27771 9.68055 4.35536 9.71227L4.27232 9.91556L4.35536 9.71228C4.43312 9.74404 4.50371 9.79101 4.56303 9.85032L4.40776 10.0056L4.56303 9.85032C4.62235 9.90964 4.66929 9.98018 4.70106 10.0579L4.49778 10.141L4.70107 10.0579C4.73267 10.1353 4.74859 10.2182 4.74794 10.3017M4.11043 9.66539L4.52835 18.9481M4.11043 9.66539C3.94295 9.66704 3.78305 9.73519 3.66585 9.8547C3.54888 9.97396 3.48396 10.1347 3.48527 10.3017M4.11043 9.66539L3.48527 10.3017M4.74794 10.3017C4.74794 10.3021 4.74794 10.3025 4.74793 10.3029L4.52835 10.3008H4.74794V10.3017ZM4.74794 10.3017V18.946M4.74794 18.946C4.74793 18.9451 4.74791 18.9442 4.74789 18.9433L4.52835 18.9481M4.74794 18.946C4.74943 19.0291 4.73447 19.1118 4.70392 19.1891C4.67304 19.2674 4.62684 19.3386 4.56803 19.3988L4.41104 19.2452M4.74794 18.946V18.9481H4.52835M4.52835 18.9481L3.48527 10.3017M4.41104 19.2452C4.37268 19.2844 4.32688 19.3156 4.27632 19.3369C4.22576 19.3582 4.17146 19.3691 4.11661 19.3691C4.06176 19.3691 4.00746 19.3582 3.9569 19.3369C3.90634 19.3156 3.86053 19.2844 3.82218 19.2452M4.41104 19.2452L4.11259 9.88498C4.00339 9.88605 3.89909 9.93049 3.82263 10.0085C3.74617 10.0864 3.70381 10.1916 3.70487 10.3008M4.41104 19.2452L4.56802 19.3988C4.50924 19.4589 4.43903 19.5067 4.36148 19.5393C4.28388 19.5719 4.20063 19.5887 4.11661 19.5887C4.03259 19.5887 3.94933 19.5719 3.87173 19.5393C3.79419 19.5067 3.72397 19.4589 3.66519 19.3988L3.82218 19.2452M3.82218 19.2452C3.78383 19.206 3.75369 19.1595 3.73355 19.1085C3.7134 19.0575 3.70365 19.003 3.70487 18.9481V10.3008M3.82218 19.2452L3.66519 19.3988C3.60637 19.3386 3.56018 19.2674 3.5293 19.1891C3.49874 19.1118 3.48378 19.0291 3.48527 18.9459V10.3017M3.70487 10.3008H3.48527V10.3017M3.70487 10.3008L3.48528 10.3029C3.48528 10.3025 3.48527 10.3021 3.48527 10.3017M7.62933 10.3017C7.62998 10.2182 7.61405 10.1353 7.58245 10.0579L7.37917 10.141L7.58245 10.0579C7.55068 9.98018 7.50373 9.90964 7.44442 9.85032L7.28914 10.0056L7.44441 9.85032C7.38509 9.791 7.3145 9.74404 7.23675 9.71228L7.1537 9.91556L7.23675 9.71227C7.15909 9.68055 7.07584 9.66458 6.99184 9.66539H6.99182L7.40973 18.9481M7.62933 10.3017C7.62932 10.3021 7.62932 10.3025 7.62932 10.3029L7.40973 10.3008H7.62933V10.3017ZM7.62933 10.3017V18.946M7.62933 18.946C7.62931 18.9451 7.62929 18.9442 7.62927 18.9433L7.40973 18.9481M7.62933 18.946C7.63081 19.0291 7.61585 19.1118 7.5853 19.1892C7.55442 19.2674 7.50822 19.3386 7.44941 19.3988L7.29242 19.2452M7.62933 18.946V18.9481H7.40973M7.40973 18.9481L6.36665 18.9459M7.29242 19.2452C7.25406 19.2844 7.20826 19.3156 7.1577 19.3369C7.10714 19.3582 7.05284 19.3691 6.99799 19.3691C6.94314 19.3691 6.88884 19.3582 6.83828 19.3369C6.78772 19.3156 6.74192 19.2844 6.70357 19.2452M7.29242 19.2452L6.58625 18.9481C6.58503 19.003 6.59479 19.0575 6.61493 19.1085C6.63508 19.1595 6.66521 19.206 6.70357 19.2452M7.29242 19.2452L7.4494 19.3988C7.39062 19.4589 7.32041 19.5067 7.24286 19.5393C7.16527 19.5719 7.08201 19.5887 6.99799 19.5887C6.91397 19.5887 6.83072 19.5719 6.75312 19.5393C6.67557 19.5067 6.60536 19.4589 6.54658 19.3988L6.70357 19.2452M6.70357 19.2452L6.54657 19.3988C6.48776 19.3386 6.44156 19.2674 6.41068 19.1891C6.38013 19.1118 6.36517 19.0291 6.36665 18.9459M6.36665 18.9459V10.3017V10.3008H6.58625L6.36665 18.9459ZM9.87148 9.66542L9.87151 9.66541C9.9559 9.66394 10.0397 9.67941 10.1179 9.71084C10.1962 9.7423 10.2674 9.78912 10.3273 9.84854L10.1726 10.0044L10.3273 9.84854C10.3872 9.90794 10.4345 9.97874 10.4666 10.0568C10.4985 10.1345 10.5146 10.2178 10.5139 10.3017M9.87148 9.66542L10.2943 10.3008M9.87148 9.66542C9.70491 9.66835 9.54625 9.73701 9.43008 9.85641C9.31417 9.97554 9.24994 10.1356 9.25126 10.3017M9.87148 9.66542L9.87535 9.88498C9.76672 9.88689 9.66324 9.93167 9.58747 10.0095C9.51171 10.0874 9.46979 10.1921 9.47085 10.3008M10.5139 10.3017C10.5139 10.3021 10.5139 10.3025 10.5139 10.3029L10.2943 10.3008M10.5139 10.3017V10.3008H10.2943M10.5139 10.3017V18.9481V18.953H10.5139C10.5102 19.118 10.4421 19.275 10.3241 19.3904C10.2062 19.5058 10.0477 19.5705 9.88259 19.5705C9.71751 19.5705 9.55903 19.5058 9.44106 19.3904L9.59461 19.2334M10.2943 10.3008V18.9481C10.292 19.0557 10.2475 19.1582 10.1706 19.2334C10.0936 19.3087 9.99024 19.3509 9.88259 19.3509C9.77494 19.3509 9.67157 19.3087 9.59461 19.2334M9.59461 19.2334C9.51765 19.1582 9.47323 19.0557 9.47085 18.9481V10.3008M9.59461 19.2334L9.44105 19.3904C9.32306 19.275 9.25495 19.118 9.25131 18.953L9.2512 18.9481H9.25126V10.3017M9.25126 10.3017C9.25126 10.3021 9.25126 10.3025 9.25127 10.3029L9.47085 10.3008M9.25126 10.3017V10.3008H9.47085M3.11626 1.23422L3.11626 1.23413C3.11764 0.678402 3.575 0.219595 4.13028 0.219595H9.89634C10.4522 0.219595 10.9118 0.679455 10.9104 1.23626V1.23627L10.8982 6.18522L10.8977 6.40535H11.1178H11.9421C12.9542 6.40535 13.7804 7.23152 13.7804 8.24364V20.5959C13.7804 21.6079 12.9543 22.4334 11.9421 22.4334H2.0579C1.04567 22.4334 0.219595 21.6079 0.219595 20.5959V8.24364C0.219595 7.23152 1.04578 6.40535 2.0579 6.40535H2.88219H3.10115L3.10179 6.1864L3.11626 1.23422ZM10.2943 6.40535H10.5133L10.5139 6.1863L10.526 1.23413C10.5269 0.878329 10.2527 0.6039 9.89626 0.6039H4.13028H4.13027C3.7715 0.6039 3.50147 0.881228 3.50055 1.23617C3.50055 1.2362 3.50055 1.23624 3.50055 1.23627L3.48608 6.18511L3.48543 6.40535H3.70567H5.35183H5.57143V6.18576V5.36226C5.57143 5.03474 5.84801 4.75841 6.17612 4.75841H7.82308C8.15091 4.75841 8.42697 5.03447 8.42697 5.36226V6.18576V6.40535H8.64656H10.2943ZM6.17612 5.14267H5.95652V5.36226V6.18576V6.40535H6.17612H7.82308H8.04268V6.18576V5.36226V5.14267H7.82308H6.17612ZM2.29036 23.8802V23.6888H4.32162V23.8802C4.32162 24.208 4.04554 24.4841 3.71773 24.4841H2.89425C2.56644 24.4841 2.29036 24.208 2.29036 23.8802ZM9.70331 23.8802V23.6888H11.7354V23.8802C11.7354 24.208 11.4593 24.4841 11.1315 24.4841H10.3072C9.97939 24.4841 9.70331 24.208 9.70331 23.8802Z" fill="#D3D7DA" stroke="#BAC3CA" stroke-width="0.43919"/>
</svg>
