<svg width="23" height="23" viewBox="0 0 23 23" fill="none" xmlns="http://www.w3.org/2000/svg">
<g clip-path="url(#clip0_820_8960)">
<mask id="path-1-inside-1_820_8960" fill="white">
<path d="M14.344 22.1015C12.736 22.1015 11.1516 21.9459 9.63464 21.639C9.38585 21.5886 9.2069 21.3698 9.2069 21.116V15.746L6.43832 14.9191C6.21228 14.8516 6.0574 14.6437 6.0574 14.4078C6.0574 14.1719 6.21228 13.964 6.43832 13.8965L14.1913 11.5808C14.2908 11.551 14.3971 11.551 14.4967 11.5808L22.238 13.8929C22.2838 13.9055 22.3272 13.9239 22.3672 13.9475C22.5277 14.0417 22.6307 14.2154 22.6307 14.4077C22.6307 14.4125 22.6306 14.4174 22.6305 14.4221V17.1887L22.959 17.9788C23.0721 18.251 22.9433 18.5632 22.6712 18.6764C22.4694 18.7603 22.2454 18.7111 22.0969 18.5688C21.9485 18.7111 21.7244 18.7603 21.5227 18.6763C21.2505 18.5632 21.1217 18.2508 21.2349 17.9788L21.5634 17.1887V15.1242L14.4968 17.2349C14.3973 17.2647 14.291 17.2647 14.1914 17.2349L10.2742 16.0649V20.675C11.5909 20.9136 12.9578 21.0344 14.3441 21.0344C15.7305 21.0344 17.0973 20.9136 18.4141 20.675V17.657C18.4141 17.3623 18.653 17.1234 18.9477 17.1234C19.2424 17.1234 19.4813 17.3623 19.4813 17.657V21.116C19.4813 21.3699 19.3024 21.5886 19.0536 21.639C17.5364 21.9459 15.952 22.1015 14.344 22.1015ZM9.90658 14.8413L14.3439 16.1667L20.2325 14.4078L14.3439 12.649L8.45539 14.4078L9.88003 14.8333C9.88903 14.8358 9.8979 14.8384 9.90658 14.8413ZM7.51566 19.1277C7.46297 19.1277 7.40941 19.1198 7.35638 19.1032L0.374452 16.922C0.151675 16.8524 0 16.6461 0 16.4127V1.43215C0 1.2624 0.0807734 1.10279 0.217508 1.00227C0.354242 0.901756 0.530463 0.872208 0.692743 0.922833L9.81553 3.77298L18.7882 0.969723C18.9504 0.919098 19.1267 0.948646 19.2635 1.04916C19.4002 1.14968 19.481 1.30929 19.481 1.47904V11.0066C19.481 11.3012 19.2421 11.5402 18.9474 11.5402C18.6527 11.5402 18.4138 11.3012 18.4138 11.0066V2.2048L10.274 4.74786V10.7374C10.274 11.032 10.0351 11.271 9.74043 11.271C9.44575 11.271 9.20683 11.032 9.20683 10.7374V4.7009L1.0672 2.15791V16.0204L7.6746 18.0846C7.95588 18.1725 8.11262 18.4718 8.02478 18.7531C7.95347 18.9814 7.74284 19.1277 7.51566 19.1277ZM5.13715 12.0529C5.08445 12.0529 5.03083 12.045 4.97787 12.0285L3.51674 11.5719C3.2354 11.4841 3.07866 11.1847 3.16657 10.9035C3.25441 10.6223 3.55369 10.4654 3.83497 10.5533L5.29609 11.0099C5.57743 11.0977 5.73418 11.397 5.64627 11.6783C5.57496 11.9066 5.36439 12.0529 5.13715 12.0529ZM12.8828 9.85546C12.6555 9.85546 12.445 9.70919 12.3736 9.48087C12.2858 9.1996 12.4425 8.90032 12.7238 8.81241L15.646 7.89949C15.9274 7.81158 16.2266 7.96839 16.3144 8.24966C16.4023 8.53094 16.2455 8.83022 15.9642 8.91813L13.042 9.83105C12.9891 9.84766 12.9355 9.85546 12.8828 9.85546ZM6.59834 9.85546C6.54558 9.85546 6.49202 9.84759 6.43899 9.83105L3.51674 8.91813C3.23547 8.83022 3.07873 8.53094 3.16657 8.24966C3.25441 7.96846 3.55376 7.81158 3.83497 7.89949L6.75722 8.81241C7.03849 8.90032 7.19523 9.1996 7.10739 9.48087C7.03609 9.70919 6.82552 9.85546 6.59834 9.85546ZM12.8828 7.36449C12.6555 7.36449 12.445 7.21822 12.3736 6.98991C12.2858 6.70863 12.4425 6.40935 12.7238 6.32144L15.646 5.40846C15.9274 5.32055 16.2266 5.47736 16.3144 5.75863C16.4023 6.0399 16.2455 6.33918 15.9642 6.42703L13.042 7.34001C12.9891 7.35662 12.9355 7.36449 12.8828 7.36449ZM6.59827 7.36449C6.54558 7.36449 6.49195 7.35662 6.43899 7.34008L3.51681 6.42703C3.23554 6.33918 3.07879 6.0399 3.16664 5.75863C3.25448 5.47736 3.55389 5.32055 3.83503 5.40846L6.75728 6.32144C7.03855 6.40935 7.1953 6.70863 7.10746 6.98991C7.03609 7.21815 6.82552 7.36449 6.59827 7.36449Z"/>
</mask>
<path d="M14.344 22.1015C12.736 22.1015 11.1516 21.9459 9.63464 21.639C9.38585 21.5886 9.2069 21.3698 9.2069 21.116V15.746L6.43832 14.9191C6.21228 14.8516 6.0574 14.6437 6.0574 14.4078C6.0574 14.1719 6.21228 13.964 6.43832 13.8965L14.1913 11.5808C14.2908 11.551 14.3971 11.551 14.4967 11.5808L22.238 13.8929C22.2838 13.9055 22.3272 13.9239 22.3672 13.9475C22.5277 14.0417 22.6307 14.2154 22.6307 14.4077C22.6307 14.4125 22.6306 14.4174 22.6305 14.4221V17.1887L22.959 17.9788C23.0721 18.251 22.9433 18.5632 22.6712 18.6764C22.4694 18.7603 22.2454 18.7111 22.0969 18.5688C21.9485 18.7111 21.7244 18.7603 21.5227 18.6763C21.2505 18.5632 21.1217 18.2508 21.2349 17.9788L21.5634 17.1887V15.1242L14.4968 17.2349C14.3973 17.2647 14.291 17.2647 14.1914 17.2349L10.2742 16.0649V20.675C11.5909 20.9136 12.9578 21.0344 14.3441 21.0344C15.7305 21.0344 17.0973 20.9136 18.4141 20.675V17.657C18.4141 17.3623 18.653 17.1234 18.9477 17.1234C19.2424 17.1234 19.4813 17.3623 19.4813 17.657V21.116C19.4813 21.3699 19.3024 21.5886 19.0536 21.639C17.5364 21.9459 15.952 22.1015 14.344 22.1015ZM9.90658 14.8413L14.3439 16.1667L20.2325 14.4078L14.3439 12.649L8.45539 14.4078L9.88003 14.8333C9.88903 14.8358 9.8979 14.8384 9.90658 14.8413ZM7.51566 19.1277C7.46297 19.1277 7.40941 19.1198 7.35638 19.1032L0.374452 16.922C0.151675 16.8524 0 16.6461 0 16.4127V1.43215C0 1.2624 0.0807734 1.10279 0.217508 1.00227C0.354242 0.901756 0.530463 0.872208 0.692743 0.922833L9.81553 3.77298L18.7882 0.969723C18.9504 0.919098 19.1267 0.948646 19.2635 1.04916C19.4002 1.14968 19.481 1.30929 19.481 1.47904V11.0066C19.481 11.3012 19.2421 11.5402 18.9474 11.5402C18.6527 11.5402 18.4138 11.3012 18.4138 11.0066V2.2048L10.274 4.74786V10.7374C10.274 11.032 10.0351 11.271 9.74043 11.271C9.44575 11.271 9.20683 11.032 9.20683 10.7374V4.7009L1.0672 2.15791V16.0204L7.6746 18.0846C7.95588 18.1725 8.11262 18.4718 8.02478 18.7531C7.95347 18.9814 7.74284 19.1277 7.51566 19.1277ZM5.13715 12.0529C5.08445 12.0529 5.03083 12.045 4.97787 12.0285L3.51674 11.5719C3.2354 11.4841 3.07866 11.1847 3.16657 10.9035C3.25441 10.6223 3.55369 10.4654 3.83497 10.5533L5.29609 11.0099C5.57743 11.0977 5.73418 11.397 5.64627 11.6783C5.57496 11.9066 5.36439 12.0529 5.13715 12.0529ZM12.8828 9.85546C12.6555 9.85546 12.445 9.70919 12.3736 9.48087C12.2858 9.1996 12.4425 8.90032 12.7238 8.81241L15.646 7.89949C15.9274 7.81158 16.2266 7.96839 16.3144 8.24966C16.4023 8.53094 16.2455 8.83022 15.9642 8.91813L13.042 9.83105C12.9891 9.84766 12.9355 9.85546 12.8828 9.85546ZM6.59834 9.85546C6.54558 9.85546 6.49202 9.84759 6.43899 9.83105L3.51674 8.91813C3.23547 8.83022 3.07873 8.53094 3.16657 8.24966C3.25441 7.96846 3.55376 7.81158 3.83497 7.89949L6.75722 8.81241C7.03849 8.90032 7.19523 9.1996 7.10739 9.48087C7.03609 9.70919 6.82552 9.85546 6.59834 9.85546ZM12.8828 7.36449C12.6555 7.36449 12.445 7.21822 12.3736 6.98991C12.2858 6.70863 12.4425 6.40935 12.7238 6.32144L15.646 5.40846C15.9274 5.32055 16.2266 5.47736 16.3144 5.75863C16.4023 6.0399 16.2455 6.33918 15.9642 6.42703L13.042 7.34001C12.9891 7.35662 12.9355 7.36449 12.8828 7.36449ZM6.59827 7.36449C6.54558 7.36449 6.49195 7.35662 6.43899 7.34008L3.51681 6.42703C3.23554 6.33918 3.07879 6.0399 3.16664 5.75863C3.25448 5.47736 3.55389 5.32055 3.83503 5.40846L6.75728 6.32144C7.03855 6.40935 7.1953 6.70863 7.10746 6.98991C7.03609 7.21815 6.82552 7.36449 6.59827 7.36449Z" fill="#21417E"/>
<path d="M9.63464 21.639L7.84913 30.4601L7.84969 30.4602L9.63464 21.639ZM9.2069 15.746H18.2069V9.04136L11.7827 7.1225L9.2069 15.746ZM6.43832 14.9191L9.01408 6.29556L9.01348 6.29538L6.43832 14.9191ZM6.43832 13.8965L3.86262 5.27291L3.86083 5.27344L6.43832 13.8965ZM14.1913 11.5808L16.767 20.2043L16.7689 20.2038L14.1913 11.5808ZM14.4967 11.5808L11.919 20.2038L11.921 20.2044L14.4967 11.5808ZM22.238 13.8929L19.6623 22.5165L19.7636 22.5468L19.8656 22.5746L22.238 13.8929ZM22.3672 13.9475L17.8035 21.7046L17.8119 21.7095L22.3672 13.9475ZM22.6305 14.4221L13.6341 14.1687L13.6305 14.2954V14.4221H22.6305ZM22.6305 17.1887H13.6305V18.985L14.3201 20.6437L22.6305 17.1887ZM22.959 17.9788L31.2696 14.5242L31.2694 14.5238L22.959 17.9788ZM22.6712 18.6764L19.2166 10.3658L19.2153 10.3663L22.6712 18.6764ZM22.0969 18.5688L28.3221 12.0691L22.0955 6.10542L15.8702 12.0705L22.0969 18.5688ZM21.5227 18.6763L24.9809 10.3672L24.9773 10.3657L21.5227 18.6763ZM21.2349 17.9788L29.5444 21.4358L29.5449 21.4347L21.2349 17.9788ZM21.5634 17.1887L29.8735 20.6446L30.5634 18.9855V17.1887H21.5634ZM21.5634 15.1242H30.5634V3.04313L18.9877 6.50066L21.5634 15.1242ZM14.4968 17.2349L11.921 8.61137L11.9191 8.61194L14.4968 17.2349ZM14.1914 17.2349L11.6156 25.8584L11.6169 25.8588L14.1914 17.2349ZM10.2742 16.0649L12.85 7.44134L1.27416 3.98372V16.0649H10.2742ZM10.2742 20.675H1.27416V28.1908L8.66952 29.5308L10.2742 20.675ZM18.4141 20.675L20.0187 29.5308L27.4141 28.1909V20.675H18.4141ZM19.0536 21.639L20.8383 30.4602L20.8391 30.4601L19.0536 21.639ZM9.90658 14.8413L7.08025 23.386L7.20495 23.4272L7.3308 23.4648L9.90658 14.8413ZM14.3439 16.1667L11.7681 24.7902L14.3439 25.5596L16.9197 24.7902L14.3439 16.1667ZM20.2325 14.4078L22.8083 23.0313L51.6798 14.4076L22.8082 5.78422L20.2325 14.4078ZM14.3439 12.649L16.9196 4.02541L14.3439 3.2561L11.7682 4.02542L14.3439 12.649ZM8.45539 14.4078L5.87967 5.78423L-22.9912 14.4075L5.87952 23.0313L8.45539 14.4078ZM9.88003 14.8333L7.30416 23.4568L7.40231 23.4862L7.50109 23.5132L9.88003 14.8333ZM7.35638 19.1032L4.67262 27.6938L4.67621 27.6949L7.35638 19.1032ZM0.374452 16.922L-2.31061 25.5122L-2.30931 25.5126L0.374452 16.922ZM0.692743 0.922833L3.3766 -7.66768L3.373 -7.66881L0.692743 0.922833ZM9.81553 3.77298L7.13168 12.3635L9.81553 13.202L12.4994 12.3635L9.81553 3.77298ZM18.7882 0.969723L16.106 -7.62129L16.1044 -7.62079L18.7882 0.969723ZM18.4138 2.2048H27.4138V-10.036L15.7299 -6.3857L18.4138 2.2048ZM10.274 4.74786L7.59014 -3.84264L1.27402 -1.86934V4.74786H10.274ZM9.20683 4.7009H18.2068V-1.91631L11.8907 -3.88961L9.20683 4.7009ZM1.0672 2.15791L3.75105 -6.4326L-7.9328 -10.0829V2.15791H1.0672ZM1.0672 16.0204H-7.9328V22.6377L-1.61658 24.6109L1.0672 16.0204ZM7.6746 18.0846L10.3594 9.49439L10.3584 9.49407L7.6746 18.0846ZM8.02478 18.7531L-0.566014 16.0701L-0.566034 16.0702L8.02478 18.7531ZM4.97787 12.0285L2.29361 20.6189L2.29462 20.6192L4.97787 12.0285ZM3.51674 11.5719L6.20099 2.98152L6.19913 2.98094L3.51674 11.5719ZM3.16657 10.9035L11.7566 13.5889L11.7572 13.5871L3.16657 10.9035ZM3.83497 10.5533L1.14829 19.143L1.15072 19.1437L3.83497 10.5533ZM5.29609 11.0099L2.61184 19.6003L2.6137 19.6009L5.29609 11.0099ZM5.64627 11.6783L-2.94395 8.99347L-2.94455 8.99539L5.64627 11.6783ZM12.3736 9.48087L3.78281 12.1638L3.7835 12.1661L12.3736 9.48087ZM12.7238 8.81241L10.0401 0.221851L10.0389 0.222198L12.7238 8.81241ZM15.646 7.89949L18.3297 16.49L18.3303 16.4899L15.646 7.89949ZM15.9642 8.91813L18.648 17.5087L18.6491 17.5083L15.9642 8.91813ZM13.042 9.83105L10.3583 1.24048L10.3458 1.2444L13.042 9.83105ZM6.43899 9.83105L3.75528 18.4216L3.75882 18.4227L6.43899 9.83105ZM3.51674 8.91813L0.83192 17.5083L0.833028 17.5087L3.51674 8.91813ZM3.16657 8.24966L-5.42404 5.56612L-5.42422 5.5667L3.16657 8.24966ZM3.83497 7.89949L1.14956 16.4895L1.15125 16.49L3.83497 7.89949ZM6.75722 8.81241L9.44204 0.222198L9.44093 0.221852L6.75722 8.81241ZM7.10739 9.48087L-1.4834 6.79791L-1.48342 6.79797L7.10739 9.48087ZM12.3736 6.98991L3.78281 9.67287L3.7835 9.6751L12.3736 6.98991ZM12.7238 6.32144L10.0399 -2.26906L10.0389 -2.26877L12.7238 6.32144ZM15.646 5.40846L18.3299 13.999L18.3303 13.9988L15.646 5.40846ZM15.9642 6.42703L13.2813 -2.16376L13.2804 -2.16347L15.9642 6.42703ZM13.042 7.34001L10.3581 -1.2505L10.3458 -1.24664L13.042 7.34001ZM6.43899 7.34008L3.75486 15.9305L3.75575 15.9308L6.43899 7.34008ZM3.51681 6.42703L6.20094 -2.1634L6.19978 -2.16376L3.51681 6.42703ZM3.83503 5.40846L1.14905 13.9983L1.15114 13.999L3.83503 5.40846ZM6.75728 6.32144L9.4421 -2.26877L9.44118 -2.26906L6.75728 6.32144ZM7.10746 6.98991L15.6973 9.67581L15.6982 9.67287L7.10746 6.98991ZM14.344 13.1015C13.3121 13.1015 12.3265 13.0013 11.4196 12.8177L7.84969 30.4602C9.97667 30.8906 12.16 31.1015 14.344 31.1015V13.1015ZM11.4201 12.8179C15.3681 13.617 18.2069 17.0871 18.2069 21.116H0.206896C0.206896 25.6525 3.40357 29.5602 7.84913 30.4601L11.4201 12.8179ZM18.2069 21.116V15.746H0.206896V21.116H18.2069ZM11.7827 7.1225L9.01408 6.29556L3.86256 23.5426L6.63114 24.3696L11.7827 7.1225ZM9.01348 6.29538C12.6003 7.36644 15.0574 10.6655 15.0574 14.4078H-2.9426C-2.9426 18.6219 -0.175717 22.3368 3.86317 23.5428L9.01348 6.29538ZM15.0574 14.4078C15.0574 18.1519 12.5989 21.4485 9.01582 22.5195L3.86083 5.27344C-0.174301 6.47957 -2.9426 10.1919 -2.9426 14.4078H15.0574ZM9.01403 22.52L16.767 20.2043L11.6156 2.95722L3.86262 5.27291L9.01403 22.52ZM16.7689 20.2038C15.1868 20.6767 13.5012 20.6767 11.919 20.2038L17.0743 2.9578C15.2931 2.42536 13.3948 2.42536 11.6137 2.9578L16.7689 20.2038ZM11.921 20.2044L19.6623 22.5165L24.8136 5.26935L17.0723 2.95721L11.921 20.2044ZM19.8656 22.5746C19.1318 22.3741 18.4394 22.0787 17.8035 21.7046L26.931 6.19041C26.215 5.7692 25.4359 5.43683 24.6103 5.21122L19.8656 22.5746ZM17.8119 21.7095C15.268 20.2166 13.6307 17.4643 13.6307 14.4077H31.6307C31.6307 10.9664 29.7874 7.86676 26.9225 6.18544L17.8119 21.7095ZM13.6307 14.4077C13.6307 14.3317 13.6317 14.252 13.6341 14.1687L31.6269 14.6755C31.6295 14.5827 31.6307 14.4933 31.6307 14.4077H13.6307ZM13.6305 14.4221V17.1887H31.6305V14.4221H13.6305ZM14.3201 20.6437L14.6486 21.4339L31.2694 14.5238L30.9409 13.7336L14.3201 20.6437ZM14.6484 21.4334C12.8547 17.1183 14.8963 12.1617 19.2166 10.3658L26.1258 26.9869C30.9903 24.9648 33.2895 19.3836 31.2696 14.5242L14.6484 21.4334ZM19.2153 10.3663C22.4322 9.02849 25.9833 9.82906 28.3221 12.0691L15.8716 25.0686C18.5074 27.593 22.5066 28.4921 26.127 26.9864L19.2153 10.3663ZM15.8702 12.0705C18.2101 9.82839 21.7633 9.02806 24.9809 10.3672L18.0644 26.9854C21.6856 28.4925 25.6868 27.5937 28.3236 25.0672L15.8702 12.0705ZM24.9773 10.3657C29.2956 12.1608 31.341 17.1174 29.5444 21.4358L12.9253 14.5217C10.9023 19.3842 13.2054 24.9655 18.0681 26.9869L24.9773 10.3657ZM29.5449 21.4347L29.8735 20.6446L13.2534 13.7328L12.9248 14.5229L29.5449 21.4347ZM30.5634 17.1887V15.1242H12.5634V17.1887H30.5634ZM18.9877 6.50066L11.921 8.61137L17.0725 25.8585L24.1392 23.7478L18.9877 6.50066ZM11.9191 8.61194C13.5024 8.13865 15.1869 8.13964 16.7658 8.61099L11.6169 25.8588C13.3951 26.3897 15.2921 26.3907 17.0744 25.8579L11.9191 8.61194ZM16.7672 8.61139L12.85 7.44134L7.69836 24.6884L11.6156 25.8584L16.7672 8.61139ZM1.27416 16.0649V20.675H19.2742V16.0649H1.27416ZM8.66952 29.5308C10.5338 29.8686 12.4383 30.0344 14.3441 30.0344V12.0344C13.4772 12.0344 12.648 11.9586 11.8788 11.8192L8.66952 29.5308ZM14.3441 30.0344C16.2499 30.0344 18.1544 29.8686 20.0187 29.5308L16.8096 11.8192C16.0403 11.9586 15.211 12.0344 14.3441 12.0344V30.0344ZM27.4141 20.675V17.657H9.41413V20.675H27.4141ZM27.4141 17.657C27.4141 22.3329 23.6236 26.1234 18.9477 26.1234V8.12339C13.6825 8.12339 9.41413 12.3917 9.41413 17.657H27.4141ZM18.9477 26.1234C14.2718 26.1234 10.4813 22.3329 10.4813 17.657H28.4813C28.4813 12.3917 24.213 8.12339 18.9477 8.12339V26.1234ZM10.4813 17.657V21.116H28.4813V17.657H10.4813ZM10.4813 21.116C10.4813 17.0865 13.3208 13.6168 17.2681 12.8179L20.8391 30.4601C25.2839 29.5604 28.4813 25.6533 28.4813 21.116H10.4813ZM17.2688 12.8177C16.3616 13.0013 15.3759 13.1015 14.344 13.1015V31.1015C16.5281 31.1015 18.7113 30.8906 20.8383 30.4602L17.2688 12.8177ZM7.3308 23.4648L11.7681 24.7902L16.9197 7.54312L12.4823 6.21773L7.3308 23.4648ZM16.9197 24.7902L22.8083 23.0313L17.6567 5.78425L11.7681 7.54312L16.9197 24.7902ZM22.8082 5.78422L16.9196 4.02541L11.7682 21.2725L17.6568 23.0313L22.8082 5.78422ZM11.7682 4.02542L5.87967 5.78423L11.0311 23.0313L16.9196 21.2725L11.7682 4.02542ZM5.87952 23.0313L7.30416 23.4568L12.4559 6.20982L11.0313 5.78427L5.87952 23.0313ZM7.50109 23.5132C7.41373 23.4893 7.26447 23.4469 7.08025 23.386L12.7329 6.29656C12.5313 6.2299 12.3643 6.18231 12.259 6.15343L7.50109 23.5132ZM7.51566 10.1277C8.36377 10.1277 9.21425 10.2551 10.0365 10.5116L4.67621 27.6949C5.60456 27.9845 6.56216 28.1277 7.51566 28.1277V10.1277ZM10.0401 10.5127L3.05821 8.33149L-2.30931 25.5126L4.67262 27.6938L10.0401 10.5127ZM3.05951 8.33189C6.59312 9.43641 9 12.7092 9 16.4127H-9C-9 20.583 -6.28977 24.2684 -2.31061 25.5122L3.05951 8.33189ZM9 16.4127V1.43215H-9V16.4127H9ZM9 1.43215C9 4.12548 7.71851 6.65829 5.54821 8.25373L-5.1132 -6.24918C-7.55696 -4.45271 -9 -1.60068 -9 1.43215H9ZM5.54821 8.25373C3.37954 9.84797 0.581798 10.316 -1.98751 9.51447L3.373 -7.66881C0.479128 -8.57158 -2.67106 -8.04445 -5.1132 -6.24918L5.54821 8.25373ZM-1.99111 9.51335L7.13168 12.3635L12.4994 -4.81754L3.3766 -7.66768L-1.99111 9.51335ZM12.4994 12.3635L21.4721 9.56024L16.1044 -7.62079L7.13168 -4.81754L12.4994 12.3635ZM21.4705 9.56073C18.8995 10.3635 16.1011 9.89463 13.9328 8.30062L24.5942 -6.20229C22.1524 -7.99734 19.0013 -8.52526 16.106 -7.62129L21.4705 9.56073ZM13.9328 8.30062C11.7625 6.70521 10.481 4.17242 10.481 1.47904H28.481C28.481 -1.55383 27.0379 -4.40585 24.5942 -6.20229L13.9328 8.30062ZM10.481 1.47904V11.0066H28.481V1.47904H10.481ZM10.481 11.0066C10.481 6.33068 14.2715 2.54016 18.9474 2.54016V20.5402C24.2126 20.5402 28.481 16.2718 28.481 11.0066H10.481ZM18.9474 2.54016C23.6233 2.54016 27.4138 6.33068 27.4138 11.0066H9.41379C9.41379 16.2718 13.6821 20.5402 18.9474 20.5402V2.54016ZM27.4138 11.0066V2.2048H9.41379V11.0066H27.4138ZM15.7299 -6.3857L7.59014 -3.84264L12.9579 13.3384L21.0977 10.7953L15.7299 -6.3857ZM1.27402 4.74786V10.7374H19.274V4.74786H1.27402ZM1.27402 10.7374C1.27402 6.06148 5.06454 2.27096 9.74043 2.27096V20.271C15.0057 20.271 19.274 16.0026 19.274 10.7374H1.27402ZM9.74043 2.27096C14.4163 2.27096 18.2068 6.06148 18.2068 10.7374H0.206829C0.206829 16.0026 4.47518 20.271 9.74043 20.271V2.27096ZM18.2068 10.7374V4.7009H0.206829V10.7374H18.2068ZM11.8907 -3.88961L3.75105 -6.4326L-1.61666 10.7484L6.52297 13.2914L11.8907 -3.88961ZM-7.9328 2.15791V16.0204H10.0672V2.15791H-7.9328ZM-1.61658 24.6109L4.99083 26.6751L10.3584 9.49407L3.75097 7.42984L-1.61658 24.6109ZM4.98978 26.6748C0.52648 25.2798 -1.95938 20.5316 -0.566014 16.0701L16.6156 21.436C18.1846 16.412 15.3853 11.0652 10.3594 9.49439L4.98978 26.6748ZM-0.566034 16.0702C0.56996 12.4326 3.91983 10.1277 7.51566 10.1277V28.1277C11.5658 28.1277 15.337 25.5301 16.6156 21.436L-0.566034 16.0702ZM5.13715 3.05288C5.98358 3.05288 6.83521 3.1798 7.66111 3.43777L2.29462 20.6192C3.22644 20.9102 4.18532 21.0529 5.13715 21.0529V3.05288ZM7.66212 3.43808L6.20099 2.98152L0.83249 20.1623L2.29361 20.6189L7.66212 3.43808ZM6.19913 2.98094C10.6647 4.37524 13.1518 9.12586 11.7566 13.5889L-5.42346 8.21811C-6.99451 13.2436 -4.19389 18.5929 0.834355 20.1629L6.19913 2.98094ZM11.7572 13.5871C10.3639 18.0472 5.61649 20.5405 1.14829 19.143L6.52165 1.96371C1.4909 0.390181 -3.85509 3.19741 -5.42404 8.21996L11.7572 13.5871ZM1.15072 19.1437L2.61184 19.6003L7.98034 2.41951L6.51922 1.96295L1.15072 19.1437ZM2.6137 19.6009C-1.85172 18.2066 -4.33876 13.4562 -2.94395 8.99347L14.2365 14.3631C15.8071 9.3378 13.0066 3.98887 7.97848 2.41893L2.6137 19.6009ZM-2.94455 8.99539C-1.80874 5.35848 1.54074 3.05288 5.13715 3.05288V21.0529C9.18805 21.0529 12.9587 18.4547 14.2371 14.3612L-2.94455 8.99539ZM12.8828 0.855459C16.4797 0.855459 19.8276 3.1612 20.9637 6.79568L3.7835 12.1661C5.06235 16.2572 8.83141 18.8555 12.8828 18.8555V0.855459ZM20.9644 6.79791C22.3578 11.2594 19.8719 16.0076 15.4086 17.4026L10.0389 0.222198C5.0131 1.793 2.21376 7.13978 3.78281 12.1638L20.9644 6.79791ZM15.4075 17.403L18.3297 16.49L12.9623 -0.691067L10.0401 0.221851L15.4075 17.403ZM18.3303 16.4899C13.8666 17.8847 9.11764 15.3962 7.72363 10.9326L24.9052 5.5667C23.3355 0.540562 17.9882 -2.2615 12.9618 -0.690902L18.3303 16.4899ZM7.72363 10.9326C6.33027 6.47112 8.81612 1.7229 13.2794 0.327917L18.6491 17.5083C23.6749 15.9375 26.4743 10.5908 24.9052 5.5667L7.72363 10.9326ZM13.2805 0.327571L10.3583 1.24049L15.7257 18.4216L18.648 17.5087L13.2805 0.327571ZM10.3458 1.2444C11.1868 0.980324 12.0437 0.855459 12.8828 0.855459V18.8555C13.8274 18.8555 14.7914 18.715 15.7382 18.4177L10.3458 1.2444ZM6.59834 0.855459C7.44581 0.855459 8.29632 0.982699 9.11916 1.23938L3.75882 18.4227C4.68771 18.7125 5.64534 18.8555 6.59834 18.8555V0.855459ZM9.12271 1.24049L6.20046 0.327571L0.833028 17.5087L3.75528 18.4216L9.12271 1.24049ZM6.20157 0.327917C10.6649 1.7229 13.1507 6.47112 11.7574 10.9326L-5.42422 5.5667C-6.99327 10.5908 -4.19393 15.9375 0.83192 17.5083L6.20157 0.327917ZM11.7572 10.9332C10.3633 15.3954 5.61502 17.8855 1.14956 16.4895L6.52037 -0.69054C1.4925 -2.26234 -3.85445 0.541517 -5.42404 5.56612L11.7572 10.9332ZM1.15125 16.49L4.0735 17.403L9.44093 0.221852L6.51868 -0.691067L1.15125 16.49ZM4.07239 17.4026C-0.390907 16.0076 -2.87676 11.2594 -1.4834 6.79791L15.6982 12.1638C17.2672 7.13978 14.4679 1.793 9.44204 0.222198L4.07239 17.4026ZM-1.48342 6.79797C-0.347815 3.16169 3.00119 0.855459 6.59834 0.855459V18.8555C10.6498 18.8555 14.42 16.2567 15.6982 12.1638L-1.48342 6.79797ZM12.8828 -1.63551C16.4797 -1.63551 19.8276 0.67025 20.9637 4.30472L3.7835 9.6751C5.06234 13.7662 8.8314 16.3645 12.8828 16.3645V-1.63551ZM20.9644 4.30694C22.3578 8.76846 19.8719 13.5167 15.4086 14.9117L10.0389 -2.26877C5.01311 -0.697972 2.21376 4.64881 3.78281 9.67287L20.9644 4.30694ZM15.4077 14.9119L18.3299 13.999L12.9621 -3.18205L10.0399 -2.26906L15.4077 14.9119ZM18.3303 13.9988C13.8666 15.3936 9.11764 12.9052 7.72363 8.4416L24.9052 3.07566C23.3355 -1.95047 17.9882 -4.75253 12.9618 -3.18194L18.3303 13.9988ZM7.72363 8.4416C6.33044 3.98065 8.81564 -0.769113 13.2813 -2.16376L18.6472 15.0178C23.6754 13.4475 26.4741 8.09915 24.9052 3.07566L7.72363 8.4416ZM13.2804 -2.16347L10.3581 -1.25049L15.7259 15.9305L18.6481 15.0175L13.2804 -2.16347ZM10.3458 -1.24664C11.1797 -1.50849 12.0362 -1.63551 12.8828 -1.63551V16.3645C13.8349 16.3645 14.7985 16.2217 15.7382 15.9267L10.3458 -1.24664ZM6.59827 -1.63551C7.44477 -1.63551 8.29639 -1.50857 9.12223 -1.25063L3.75575 15.9308C4.68751 16.2218 5.64639 16.3645 6.59827 16.3645V-1.63551ZM9.12312 -1.25035L6.20094 -2.1634L0.832682 15.0175L3.75486 15.9305L9.12312 -1.25035ZM6.19978 -2.16376C10.6654 -0.769113 13.1506 3.98065 11.7574 8.4416L-5.42415 3.07566C-6.99303 8.09915 -4.19434 13.4475 0.833843 15.0178L6.19978 -2.16376ZM11.7574 8.4416C10.3633 12.9056 5.61359 15.3943 1.14905 13.9983L6.52102 -3.18139C1.4942 -4.75324 -3.85433 -1.95089 -5.42415 3.07566L11.7574 8.4416ZM1.15114 13.999L4.07339 14.9119L9.44118 -2.26906L6.51893 -3.18205L1.15114 13.999ZM4.07246 14.9117C-0.390834 13.5167 -2.8767 8.76846 -1.48334 4.30694L15.6982 9.67287C17.2673 4.64881 14.4679 -0.697972 9.4421 -2.26877L4.07246 14.9117ZM-1.48242 4.304C-0.346531 0.671287 3.0001 -1.63551 6.59827 -1.63551V16.3645C10.6509 16.3645 14.4187 13.765 15.6973 9.67581L-1.48242 4.304Z" fill="#21417E" mask="url(#path-1-inside-1_820_8960)"/>
</g>
<defs>
<clipPath id="clip0_820_8960">
<rect width="23" height="23" fill="white"/>
</clipPath>
</defs>
</svg>
