<svg width="18" height="18" viewBox="0 0 18 18" fill="none" xmlns="http://www.w3.org/2000/svg">
<path d="M2.32664 0.62085H6.01103C6.95294 0.62085 7.71676 1.38468 7.71676 2.32658V6.01097C7.71676 6.95287 6.95294 7.7167 6.01103 7.7167H2.32664C1.38474 7.7167 0.620911 6.95287 0.620911 6.01097V2.32658C0.620911 1.38468 1.38474 0.62085 2.32664 0.62085V0.62085Z" fill="#03314C"/>
<path d="M11.6059 0.62085H15.2903C16.2322 0.62085 16.996 1.38468 16.996 2.32658V6.01097C16.996 6.95287 16.2322 7.7167 15.2903 7.7167H11.6059C10.664 7.7167 9.90015 6.95287 9.90015 6.01097V2.32658C9.90015 1.38468 10.664 0.62085 11.6059 0.62085V0.62085Z" fill="#03314C"/>
<path d="M13.4481 9.90015C15.4076 9.90015 16.996 11.4885 16.996 13.4481C16.996 15.4076 15.4076 16.996 13.4481 16.996C11.4885 16.996 9.90015 15.4076 9.90015 13.4481C9.90015 11.4885 11.4885 9.90015 13.4481 9.90015Z" fill="#47DD95"/>
<path d="M2.32664 9.90015H6.01103C6.95294 9.90015 7.71676 10.664 7.71676 11.6059V15.2903C7.71676 16.2322 6.95294 16.996 6.01103 16.996H2.32664C1.38474 16.996 0.620911 16.2322 0.620911 15.2903V11.6059C0.620911 10.664 1.38474 9.90015 2.32664 9.90015Z" fill="#03314C"/>
<path d="M2.32662 8.33787C1.04357 8.33787 0 7.2943 0 6.01125V2.32687C0 1.04381 1.04357 0.000244141 2.32662 0.000244141H6.01101C7.29406 0.000244141 8.33763 1.04381 8.33763 2.32687V6.01125C8.33763 7.2943 7.29406 8.33787 6.01101 8.33787H2.32662V8.33787ZM2.32662 1.24202C1.72859 1.24202 1.24177 1.72883 1.24177 2.32687V6.01125C1.24177 6.60928 1.72859 7.0961 2.32662 7.0961H6.01101C6.60904 7.0961 7.09585 6.60928 7.09585 6.01125V2.32687C7.09585 1.72883 6.60904 1.24202 6.01101 1.24202H2.32662Z" fill="#03314C"/>
<path d="M11.6058 8.33763C10.3227 8.33763 9.27917 7.29406 9.27917 6.01101V2.32662C9.27917 1.04357 10.3227 0 11.6058 0H15.2902C16.5732 0 17.6168 1.04357 17.6168 2.32662V6.01101C17.6168 7.29406 16.5732 8.33763 15.2902 8.33763H11.6058V8.33763ZM11.6058 1.24177C11.0078 1.24177 10.5209 1.72859 10.5209 2.32662V6.01101C10.5209 6.60904 11.0078 7.09585 11.6058 7.09585H15.2902C15.8882 7.09585 16.375 6.60904 16.375 6.01101V2.32662C16.375 1.72859 15.8882 1.24177 15.2902 1.24177H11.6058Z" fill="#03314C"/>
<path d="M13.448 17.6167C11.1493 17.6167 9.27917 15.7465 9.27917 13.4479C9.27917 11.1492 11.1493 9.27905 13.448 9.27905C15.7466 9.27905 17.6168 11.1492 17.6168 13.4479C17.6168 15.7465 15.7466 17.6167 13.448 17.6167ZM13.448 10.5208C11.834 10.5208 10.5209 11.8339 10.5209 13.4479C10.5209 15.0618 11.834 16.3749 13.448 16.3749C15.062 16.3749 16.375 15.0618 16.375 13.4479C16.375 11.8339 15.062 10.5208 13.448 10.5208Z" fill="#47DD95"/>
<path d="M2.32662 17.6167C1.04357 17.6167 0 16.5731 0 15.2901V11.6057C0 10.3226 1.04357 9.27905 2.32662 9.27905H6.01101C7.29406 9.27905 8.33763 10.3226 8.33763 11.6057V15.2901C8.33763 16.5731 7.29406 17.6167 6.01101 17.6167H2.32662ZM2.32662 10.5208C1.72859 10.5208 1.24177 11.0076 1.24177 11.6057V15.2901C1.24177 15.8881 1.72859 16.3749 2.32662 16.3749H6.01101C6.60904 16.3749 7.09585 15.8881 7.09585 15.2901V11.6057C7.09585 11.0076 6.60904 10.5208 6.01101 10.5208H2.32662Z" fill="#03314C"/>
</svg>
