<svg width="19" height="18" viewBox="0 0 19 18" fill="none" xmlns="http://www.w3.org/2000/svg">
<g clip-path="url(#clip0_1026_785)">
<path d="M2.81005 0.906006H6.62115C7.59545 0.906006 8.38554 1.66983 8.38554 2.61174V6.29612C8.38554 7.23803 7.59545 8.00186 6.62115 8.00186H2.81005C1.83575 8.00186 1.04565 7.23803 1.04565 6.29612V2.61174C1.04565 1.66983 1.83575 0.906006 2.81005 0.906006Z" fill="#D3D7DA"/>
<path d="M12.4082 0.906006H16.2193C17.1936 0.906006 17.9837 1.66983 17.9837 2.61174V6.29612C17.9837 7.23803 17.1936 8.00186 16.2193 8.00186H12.4082C11.4339 8.00186 10.6438 7.23803 10.6438 6.29612V2.61174C10.6438 1.66983 11.4339 0.906006 12.4082 0.906006Z" fill="#D3D7DA"/>
<path d="M14.3137 10.1858C16.3407 10.1858 17.9837 11.7742 17.9837 13.7337C17.9837 15.6933 16.3407 17.2816 14.3137 17.2816C12.2868 17.2816 10.6438 15.6933 10.6438 13.7337C10.6438 11.7742 12.2868 10.1858 14.3137 10.1858Z" fill="#D3D7DA"/>
<path d="M2.81005 10.1858H6.62115C7.59545 10.1858 8.38554 10.9496 8.38554 11.8915V15.5759C8.38554 16.5178 7.59545 17.2816 6.62115 17.2816H2.81005C1.83575 17.2816 1.04565 16.5178 1.04565 15.5759V11.8915C1.04565 10.9496 1.83575 10.1858 2.81005 10.1858Z" fill="#D3D7DA"/>
<path d="M2.80996 8.62266C1.48278 8.62266 0.40332 7.57909 0.40332 6.29604V2.61165C0.40332 1.3286 1.48278 0.285034 2.80996 0.285034H6.62105C7.94823 0.285034 9.02769 1.3286 9.02769 2.61165V6.29604C9.02769 7.57909 7.94823 8.62266 6.62105 8.62266H2.80996ZM2.80996 1.52681C2.19136 1.52681 1.6878 2.01362 1.6878 2.61165V6.29604C1.6878 6.89407 2.19136 7.38089 2.80996 7.38089H6.62105C7.23965 7.38089 7.74321 6.89407 7.74321 6.29604V2.61165C7.74321 2.01362 7.23965 1.52681 6.62105 1.52681H2.80996Z" fill="#BAC3CA"/>
<path d="M12.4083 8.62254C11.0812 8.62254 10.0017 7.57897 10.0017 6.29592V2.61153C10.0017 1.32848 11.0812 0.284912 12.4083 0.284912H16.2194C17.5466 0.284912 18.6261 1.32848 18.6261 2.61153V6.29592C18.6261 7.57897 17.5466 8.62254 16.2194 8.62254H12.4083ZM12.4083 1.52669C11.7897 1.52669 11.2862 2.0135 11.2862 2.61153V6.29592C11.2862 6.89395 11.7897 7.38076 12.4083 7.38076H16.2194C16.838 7.38076 17.3416 6.89395 17.3416 6.29592V2.61153C17.3416 2.0135 16.838 1.52669 16.2194 1.52669H12.4083Z" fill="#BAC3CA"/>
<path d="M14.3139 17.9023C11.9362 17.9023 10.0017 16.0322 10.0017 13.7335C10.0017 11.4349 11.9362 9.5647 14.3139 9.5647C16.6916 9.5647 18.6261 11.4349 18.6261 13.7335C18.6261 16.0322 16.6916 17.9023 14.3139 17.9023ZM14.3139 10.8065C12.6444 10.8065 11.2862 12.1195 11.2862 13.7335C11.2862 15.3475 12.6444 16.6606 14.3139 16.6606C15.9834 16.6606 17.3416 15.3475 17.3416 13.7335C17.3416 12.1195 15.9834 10.8065 14.3139 10.8065Z" fill="#BAC3CA"/>
<path d="M2.80996 17.9023C1.48278 17.9023 0.40332 16.8588 0.40332 15.5757V11.8913C0.40332 10.6083 1.48278 9.5647 2.80996 9.5647H6.62105C7.94823 9.5647 9.02769 10.6083 9.02769 11.8913V15.5757C9.02769 16.8588 7.94823 17.9023 6.62105 17.9023H2.80996ZM2.80996 10.8065C2.19136 10.8065 1.6878 11.2933 1.6878 11.8913V15.5757C1.6878 16.1737 2.19136 16.6606 2.80996 16.6606H6.62105C7.23965 16.6606 7.74321 16.1737 7.74321 15.5757V11.8913C7.74321 11.2933 7.23965 10.8065 6.62105 10.8065H2.80996Z" fill="#BAC3CA"/>
</g>
<defs>
<clipPath id="clip0_1026_785">
<rect width="18.2227" height="17.6168" fill="white" transform="translate(0.40332 0.285034)"/>
</clipPath>
</defs>
</svg>
