<svg width="23" height="23" viewBox="0 0 23 23" fill="none" xmlns="http://www.w3.org/2000/svg">
<g clip-path="url(#clip0_820_8860)">
<mask id="mask0_820_8860" style="mask-type:luminance" maskUnits="userSpaceOnUse" x="0" y="-1" width="23" height="24">
<path d="M0 -0.00170708H23V22.9983H0V-0.00170708Z" fill="white"/>
</mask>
<g mask="url(#mask0_820_8860)">
<path d="M18.2383 11.4988C18.2383 15.2202 15.2215 18.2371 11.5 18.2371C7.77854 18.2371 4.76172 15.2202 4.76172 11.4988C4.76172 7.77732 7.77854 4.7605 11.5 4.7605C15.2215 4.7605 18.2383 7.77732 18.2383 11.4988Z" stroke="#21417E" stroke-width="1.34766" stroke-miterlimit="10" stroke-linecap="round" stroke-linejoin="round"/>
<path d="M14.8691 9.47729L10.8262 13.5203L8.13086 10.825" stroke="#21417E" stroke-width="1.34766" stroke-miterlimit="10" stroke-linecap="round" stroke-linejoin="round"/>
<path d="M10.6261 0.994118C11.1298 0.565114 11.8702 0.565114 12.3739 0.994118L14.1251 2.53966L17.0885 2.31033C17.7482 2.2593 18.3473 2.69455 18.5026 3.33765L19.0967 5.79829L21.6859 7.34818C22.2496 7.69462 22.4784 8.39891 22.226 9.01043L21.2031 11.4891L22.226 13.9677C22.4784 14.5793 22.2496 15.2836 21.6859 15.63L19.0967 17.1799L18.5026 19.6406C18.3473 20.2836 17.7482 20.7189 17.0885 20.6679L14.1541 20.4408L12.3739 22.003C11.8702 22.432 11.1298 22.432 10.6261 22.003L8.84593 20.4408L5.91145 20.6679C5.25182 20.7189 4.65269 20.2836 4.49744 19.6406L3.90093 17.1702L1.31603 15.63C0.752351 15.2836 0.523519 14.5793 0.775935 13.9677L1.79881 11.4891L0.775935 9.01043C0.523519 8.39891 0.752351 7.69462 1.31603 7.34818L3.67937 5.94415L4.49744 3.33765C4.65269 2.69455 5.25182 2.2593 5.91145 2.31033L8.87494 2.53966L10.6261 0.994118Z" stroke="#21417E" stroke-width="1.34766" stroke-miterlimit="10" stroke-linecap="round" stroke-linejoin="round"/>
</g>
</g>
<defs>
<clipPath id="clip0_820_8860">
<rect width="23" height="23" fill="white"/>
</clipPath>
</defs>
</svg>
