<svg width="18" height="18" viewBox="0 0 18 18" fill="none" xmlns="http://www.w3.org/2000/svg">
<path d="M9 5.72727C7.19182 5.72727 5.72727 7.19182 5.72727 9C5.72727 10.8082 7.19182 12.2727 9 12.2727C10.8082 12.2727 12.2727 10.8082 12.2727 9C12.2727 7.19182 10.8082 5.72727 9 5.72727ZM16.3145 8.18182C15.9382 4.77 13.23 2.06182 9.81818 1.68545V0H8.18182V1.68545C4.77 2.06182 2.06182 4.77 1.68545 8.18182H0V9.81818H1.68545C2.06182 13.23 4.77 15.9382 8.18182 16.3145V18H9.81818V16.3145C13.23 15.9382 15.9382 13.23 16.3145 9.81818H18V8.18182H16.3145ZM9 14.7273C5.83363 14.7273 3.27273 12.1664 3.27273 9C3.27273 5.83363 5.83363 3.27273 9 3.27273C12.1664 3.27273 14.7273 5.83363 14.7273 9C14.7273 12.1664 12.1664 14.7273 9 14.7273Z" fill="#A72622"/>
</svg>
