<svg width="19" height="24" viewBox="0 0 19 24" fill="none" xmlns="http://www.w3.org/2000/svg">
<path d="M18.3719 5.88828C18.1813 5.479 17.9224 5.10517 17.6062 4.78281L13.9672 1.14375C13.2308 0.417212 12.2399 0.00683413 11.2055 0H3.90625C2.87063 0.00124051 1.87778 0.413189 1.14548 1.14548C0.413189 1.87778 0.00124051 2.87063 0 3.90625V19.5312C0.00124051 20.5669 0.413189 21.5597 1.14548 22.292C1.87778 23.0243 2.87063 23.4363 3.90625 23.4375H14.8438C15.8794 23.4363 16.8722 23.0243 17.6045 22.292C18.3368 21.5597 18.7488 20.5669 18.75 19.5312V7.54453C18.7462 6.97149 18.6171 6.40621 18.3719 5.88828V5.88828ZM16.0828 5.46875H14.0625C13.8553 5.46875 13.6566 5.38644 13.5101 5.23993C13.3636 5.09341 13.2812 4.8947 13.2812 4.6875V2.66719L16.0828 5.46875ZM17.1875 19.5312C17.1875 20.1529 16.9406 20.749 16.501 21.1885C16.0615 21.6281 15.4654 21.875 14.8438 21.875H3.90625C3.28465 21.875 2.68851 21.6281 2.24897 21.1885C1.80943 20.749 1.5625 20.1529 1.5625 19.5312V3.90625C1.5625 3.28465 1.80943 2.68851 2.24897 2.24897C2.68851 1.80943 3.28465 1.5625 3.90625 1.5625H11.2055C11.3784 1.56403 11.5505 1.585 11.7188 1.625V4.6875C11.7188 5.3091 11.9657 5.90524 12.4052 6.34478C12.8448 6.78432 13.4409 7.03125 14.0625 7.03125H17.125C17.165 7.19946 17.186 7.37164 17.1875 7.54453V19.5312Z" fill="#21417E"/>
<path d="M12.5 11.7188H10.1562V9.375C10.1562 9.1678 10.0739 8.96909 9.92743 8.82257C9.78091 8.67606 9.5822 8.59375 9.375 8.59375C9.1678 8.59375 8.96909 8.67606 8.82257 8.82257C8.67606 8.96909 8.59375 9.1678 8.59375 9.375V11.7188H6.25C6.0428 11.7188 5.84409 11.8011 5.69757 11.9476C5.55106 12.0941 5.46875 12.2928 5.46875 12.5C5.46875 12.7072 5.55106 12.9059 5.69757 13.0524C5.84409 13.1989 6.0428 13.2812 6.25 13.2812H8.59375V15.625C8.59375 15.8322 8.67606 16.0309 8.82257 16.1774C8.96909 16.3239 9.1678 16.4062 9.375 16.4062C9.5822 16.4062 9.78091 16.3239 9.92743 16.1774C10.0739 16.0309 10.1562 15.8322 10.1562 15.625V13.2812H12.5C12.7072 13.2812 12.9059 13.1989 13.0524 13.0524C13.1989 12.9059 13.2812 12.7072 13.2812 12.5C13.2812 12.2928 13.1989 12.0941 13.0524 11.9476C12.9059 11.8011 12.7072 11.7188 12.5 11.7188Z" fill="#21417E"/>
</svg>
