<svg width="230" height="154" viewBox="0 0 230 154" fill="none" xmlns="http://www.w3.org/2000/svg">
<ellipse cx="115" cy="135.574" rx="115" ry="18.4252" fill="#F7F7F6"/>
<path d="M183.072 35.9091C178.392 31.2302 172.741 28.8901 166.117 28.8901C159.494 28.8901 153.831 31.2302 149.128 35.9091C144.45 40.6113 142.11 46.2748 142.11 52.8979C142.11 59.4309 144.381 65.0145 148.925 69.6487C148.97 69.7391 149.004 69.8182 149.027 69.8868C149.411 70.9718 149.286 72.0682 148.654 73.1757C147.953 74.3733 147.456 75.1538 147.162 75.5154C146.846 75.8768 146.811 76.0907 147.06 76.1593C147.263 76.2266 148.01 76.2042 149.298 76.0907C150.564 75.9786 151.604 75.7081 152.418 75.2778C153.232 74.8258 153.944 74.4081 154.554 74.0228C158.012 75.9448 161.868 76.9049 166.117 76.9049C172.741 76.9049 178.392 74.554 183.072 69.8525C187.773 65.1721 190.125 59.5217 190.125 52.8979C190.125 46.2748 187.773 40.6113 183.072 35.9091Z" fill="white"/>
<path d="M189.616 52.7808C189.604 55.897 189.079 58.9836 187.879 61.8685C186.679 64.7513 184.852 67.3092 182.65 69.5112C178.15 74.0104 172.263 76.4418 165.899 76.414C161.982 76.3968 158.156 75.4809 154.717 73.5924C154.568 73.5108 154.367 73.5096 154.223 73.5999C153.477 74.0675 152.717 74.5599 151.921 74.9389C150.997 75.3795 149.961 75.5361 148.951 75.6215C148.552 75.6555 148.152 75.6859 147.752 75.6997C147.681 75.7022 147.179 75.6531 147.141 75.6951L147.449 76.0251C147.513 75.9451 147.577 75.8647 147.641 75.7839C147.71 75.6932 147.777 75.6005 147.842 75.5069C148.066 75.1855 148.273 74.8515 148.478 74.5174C149.384 73.0388 150.235 71.3865 149.443 69.6439C149.135 68.966 148.346 68.3781 147.866 67.8017C147.286 67.104 146.743 66.3751 146.244 65.6168C142.37 59.723 141.584 51.9049 143.843 45.2573C146.078 38.6837 151.539 33.1052 158.075 30.7492C164.677 28.3693 172.461 29.0291 178.435 32.76C181.829 34.8801 184.773 37.9317 186.736 41.4211C188.692 44.8974 189.601 48.8057 189.616 52.7808C189.619 53.35 190.635 53.6671 190.632 53.0147C190.618 49.3256 189.895 45.6677 188.274 42.3394C186.622 38.9468 184.126 35.9622 181.185 33.6094C175.351 28.9418 167.553 27.3757 160.296 29.0264C153.071 30.67 146.777 35.9775 143.708 42.6983C140.665 49.3609 140.87 57.6667 144.301 64.1439C145.15 65.7469 146.185 67.2501 147.368 68.6249C147.673 68.9797 147.996 69.3167 148.311 69.6623C148.682 70.0703 148.756 70.6455 148.73 71.1867C148.677 72.2996 148.003 73.2534 147.429 74.1665C147.143 74.623 146.5 75.2401 146.404 75.7709C146.299 76.3505 146.854 76.6412 147.343 76.6793C148.953 76.805 150.88 76.5454 152.356 75.8889C153.235 75.4975 154.069 74.9562 154.884 74.4455L154.391 74.4531C160.336 77.7181 167.788 78.3161 174.207 76.1201C180.235 74.0576 185.438 69.3394 188.252 63.6406C189.883 60.3389 190.618 56.6844 190.632 53.0147C190.635 52.445 189.619 52.1278 189.616 52.7808Z" fill="#C70801"/>
<path d="M158.08 52.631C158.163 53.2389 158.125 53.7794 157.966 54.2522C157.807 54.725 157.552 55.1077 157.202 55.4001C156.852 55.6926 156.432 55.8724 155.94 55.9395C155.448 56.0066 154.995 55.9462 154.579 55.7583C154.163 55.5704 153.816 55.27 153.536 54.8571C153.256 54.4442 153.074 53.9337 152.991 53.3257C152.908 52.7178 152.946 52.1773 153.105 51.7045C153.264 51.2317 153.519 50.849 153.869 50.5566C154.219 50.2641 154.64 50.0843 155.131 50.0172C155.623 49.9501 156.077 50.0105 156.492 50.1984C156.908 50.3863 157.256 50.6867 157.536 51.0996C157.816 51.5125 157.997 52.023 158.08 52.631ZM157.405 52.7232C157.337 52.224 157.196 51.8141 156.982 51.4935C156.77 51.1727 156.51 50.9434 156.202 50.8057C155.897 50.6677 155.57 50.6226 155.221 50.6702C154.872 50.7179 154.567 50.8492 154.308 51.0643C154.051 51.2791 153.862 51.5697 153.742 51.9359C153.624 52.3018 153.599 52.7344 153.667 53.2335C153.735 53.7327 153.875 54.1427 154.087 54.4635C154.301 54.7842 154.561 55.0134 154.866 55.1514C155.174 55.2891 155.502 55.3341 155.851 55.2865C156.2 55.2388 156.503 55.1076 156.76 54.8928C157.02 54.6777 157.209 54.3872 157.327 54.0212C157.447 53.655 157.473 53.2223 157.405 52.7232ZM163.959 51.8283C164.042 52.4363 164.004 52.9767 163.845 53.4495C163.686 53.9224 163.432 54.305 163.082 54.5975C162.732 54.8899 162.311 55.0697 161.819 55.1369C161.328 55.204 160.874 55.1436 160.458 54.9556C160.043 54.7677 159.695 54.4673 159.415 54.0544C159.135 53.6415 158.953 53.1311 158.87 52.5231C158.787 51.9151 158.825 51.3747 158.984 50.9018C159.144 50.429 159.398 50.0464 159.748 49.7539C160.098 49.4614 160.519 49.2816 161.011 49.2145C161.502 49.1474 161.956 49.2078 162.372 49.3957C162.787 49.5837 163.135 49.8841 163.415 50.297C163.695 50.7099 163.876 51.2203 163.959 51.8283ZM163.284 51.9205C163.216 51.4214 163.075 51.0115 162.861 50.6909C162.649 50.37 162.389 50.1407 162.082 50.003C161.776 49.8651 161.449 49.8199 161.1 49.8676C160.751 49.9152 160.447 50.0466 160.187 50.2617C159.93 50.4765 159.741 50.767 159.621 51.1332C159.503 51.4992 159.478 51.9317 159.546 52.4309C159.614 52.93 159.754 53.34 159.966 53.6609C160.18 53.9815 160.44 54.2108 160.745 54.3487C161.053 54.4865 161.381 54.5315 161.73 54.4838C162.079 54.4362 162.382 54.3049 162.64 54.0901C162.899 53.875 163.088 53.5845 163.206 53.2186C163.326 52.8524 163.352 52.4197 163.284 51.9205ZM165.368 54.572L164.581 48.8073L166.529 48.5414C166.981 48.4797 167.362 48.5108 167.672 48.6349C167.983 48.7568 168.226 48.9462 168.403 49.2031C168.579 49.46 168.691 49.7583 168.737 50.0979C168.784 50.4376 168.756 50.7558 168.655 51.0524C168.556 51.3489 168.374 51.5992 168.11 51.8036C167.845 52.006 167.488 52.1379 167.04 52.1991L165.644 52.3897L165.559 51.7705L166.933 51.5829C167.242 51.5407 167.484 51.4532 167.657 51.3206C167.83 51.1881 167.946 51.025 168.006 50.8314C168.067 50.6358 168.082 50.4225 168.05 50.1917C168.019 49.9609 167.948 49.7604 167.836 49.5901C167.727 49.4196 167.571 49.2957 167.367 49.2184C167.163 49.1392 166.904 49.121 166.591 49.1637L165.364 49.3313L166.066 54.4767L165.368 54.572ZM172.803 49.1528C172.731 48.8722 172.564 48.6695 172.302 48.5446C172.04 48.4198 171.735 48.3812 171.386 48.4289C171.13 48.4637 170.913 48.5355 170.733 48.6442C170.554 48.7526 170.422 48.8864 170.334 49.0455C170.249 49.2043 170.219 49.3757 170.244 49.5596C170.265 49.7135 170.32 49.8408 170.408 49.9415C170.498 50.0401 170.606 50.118 170.732 50.1753C170.858 50.2308 170.989 50.2732 171.123 50.3027C171.256 50.3303 171.379 50.3509 171.489 50.3645L172.096 50.4422C172.252 50.4611 172.426 50.4927 172.62 50.537C172.815 50.5811 173.005 50.6516 173.191 50.7487C173.377 50.8436 173.539 50.9764 173.675 51.147C173.811 51.3177 173.898 51.5381 173.934 51.8083C173.977 52.1199 173.934 52.4125 173.805 52.6862C173.678 52.9597 173.469 53.1918 173.177 53.3826C172.888 53.5731 172.522 53.6986 172.079 53.7591C171.666 53.8154 171.3 53.7976 170.979 53.7056C170.661 53.6134 170.399 53.4599 170.194 53.2452C169.991 53.0302 169.856 52.7666 169.791 52.4544L170.511 52.356C170.56 52.5711 170.657 52.7413 170.804 52.8665C170.953 52.9895 171.131 53.0723 171.337 53.1149C171.545 53.1553 171.764 53.1598 171.993 53.1286C172.259 53.0922 172.493 53.0164 172.693 52.9011C172.893 52.7839 173.044 52.639 173.147 52.4664C173.249 52.2918 173.286 52.0995 173.257 51.8893C173.231 51.6979 173.156 51.5495 173.033 51.444C172.91 51.3385 172.756 51.2601 172.571 51.2089C172.386 51.1576 172.189 51.1177 171.978 51.0891L171.241 50.9833C170.773 50.9153 170.391 50.7791 170.096 50.5748C169.8 50.3704 169.626 50.0741 169.573 49.6856C169.529 49.3628 169.578 49.0695 169.72 48.8054C169.863 48.5393 170.074 48.3193 170.352 48.1456C170.632 47.9698 170.956 47.8568 171.324 47.8065C171.695 47.7558 172.035 47.7773 172.342 47.8711C172.649 47.963 172.902 48.1119 173.102 48.3178C173.304 48.5234 173.43 48.771 173.479 49.0606L172.803 49.1528ZM175.538 53.2296C175.399 53.2485 175.273 53.2151 175.16 53.1292C175.047 53.0433 174.981 52.9309 174.962 52.7921C174.943 52.6532 174.976 52.5273 175.062 52.4142C175.148 52.3012 175.26 52.2352 175.399 52.2162C175.538 52.1973 175.664 52.2307 175.777 52.3166C175.89 52.4025 175.956 52.5149 175.975 52.6537C175.988 52.7457 175.976 52.8333 175.939 52.9167C175.905 52.9998 175.852 53.07 175.782 53.1274C175.713 53.1827 175.631 53.2168 175.538 53.2296ZM177.562 52.9532C177.423 52.9721 177.297 52.9387 177.184 52.8528C177.071 52.7669 177.005 52.6546 176.986 52.5157C176.967 52.3768 177.001 52.2509 177.086 52.1379C177.172 52.0248 177.285 51.9588 177.424 51.9399C177.562 51.9209 177.688 51.9544 177.801 52.0402C177.914 52.1261 177.98 52.2385 177.999 52.3774C178.012 52.4693 178 52.5569 177.964 52.6403C177.929 52.7234 177.877 52.7936 177.806 52.851C177.737 52.9063 177.656 52.9404 177.562 52.9532Z" fill="#C70801"/>
<path d="M112.858 96.3372C113.908 98.6312 109.77 115.109 108.472 118.491C107.173 121.872 102.626 140.761 100.411 141.577C98.1954 142.393 87.4684 142.16 85.9527 141.577C84.4369 140.994 85.9527 137.771 87.7015 136.642C89.4505 135.514 91.5336 133.783 91.5336 133.783C91.5336 133.783 88.4015 104.616 88.9842 101.351C89.5672 98.0862 110.032 90.1578 112.858 96.3372Z" fill="#FFC713"/>
<path opacity="0.1" d="M105.627 127.644C106.614 124.669 107.907 121.794 108.895 118.826C108.934 118.707 109.123 118.762 109.085 118.882C108.323 121.273 107.741 123.716 107.032 126.126C107.135 125.963 107.233 125.796 107.337 125.634C107.957 124.675 108.722 123.731 109.042 122.626C109.077 122.506 109.265 122.562 109.232 122.682C109.09 123.199 108.842 123.663 108.59 124.135C108.305 124.667 108.016 125.196 107.729 125.727C107.355 126.417 106.952 127.094 106.531 127.76C106.516 127.805 106.504 127.852 106.489 127.899C105.498 130.883 104.515 133.848 103.2 136.71C103.131 136.861 102.906 136.803 102.945 136.635C103.632 133.577 104.637 130.623 105.627 127.644Z" fill="#070606"/>
<path opacity="0.1" d="M88.5748 106.01C88.5782 105.947 88.6966 105.929 88.7059 105.997C89.0187 108.209 89.1532 110.446 89.3763 112.666C89.6085 114.975 89.8907 117.28 90.1449 119.587C90.651 124.178 91.4188 128.749 91.7855 133.35C91.8011 133.545 91.4513 133.571 91.401 133.388C90.1896 128.95 89.6539 124.385 89.1747 119.847C88.9371 117.595 88.7945 115.334 88.6854 113.075C88.5726 110.73 88.4381 108.355 88.5748 106.01Z" fill="#070606"/>
<path opacity="0.1" d="M89.8971 140.078C90.0151 139.508 90.2529 138.937 90.5973 138.465C90.9452 137.987 91.3605 137.567 91.8324 137.213C92.2719 136.883 92.8212 136.568 93.3698 136.467C93.4408 136.454 93.4975 136.541 93.4399 136.595C93.2487 136.774 93.0317 136.923 92.8439 137.11C92.654 137.298 92.4604 137.486 92.278 137.681C91.9235 138.062 91.6235 138.488 91.36 138.936C91.0937 139.388 90.8366 139.842 90.6073 140.314C90.3754 140.792 90.2392 141.305 90.0578 141.8C90.0219 141.899 89.8722 141.906 89.8464 141.796C89.7118 141.23 89.7804 140.641 89.8971 140.078Z" fill="#070606"/>
<path opacity="0.1" d="M86.7604 138.359C87.3251 137.307 88.3105 136.556 89.3805 136.073C89.4474 136.043 89.5236 136.129 89.4611 136.183C88.6706 136.869 87.8898 137.604 87.3842 138.533C86.8813 139.457 86.6183 140.607 86.9704 141.627C86.9867 141.674 86.9191 141.691 86.8947 141.656C86.2133 140.684 86.2052 139.394 86.7604 138.359Z" fill="#070606"/>
<path d="M97.3601 92.2564C98.4092 94.5501 94.2715 111.028 92.9731 114.41C91.675 117.791 87.1279 136.68 84.9126 137.496C82.6973 138.313 71.9702 138.079 70.4543 137.496C68.9387 136.913 70.4543 133.69 72.2034 132.562C73.9524 131.433 76.0351 129.703 76.0351 129.703C76.0351 129.703 72.9028 100.535 73.4858 97.2701C74.0688 94.005 94.5332 86.0765 97.3601 92.2564Z" fill="#FFC713"/>
<path opacity="0.1" d="M97.3601 92.2564C98.4092 94.5501 94.2715 111.028 92.9731 114.41C91.675 117.791 87.1279 136.68 84.9126 137.496C82.6973 138.313 71.9702 138.079 70.4543 137.496C68.9387 136.913 70.4543 133.69 72.2034 132.562C73.9524 131.433 76.0351 129.703 76.0351 129.703C76.0351 129.703 72.9028 100.535 73.4858 97.2701C74.0688 94.005 94.5332 86.0765 97.3601 92.2564Z" fill="#070606"/>
<path opacity="0.1" d="M74.923 136.225C75.0412 135.655 75.2787 135.085 75.623 134.612C75.9711 134.135 76.3862 133.715 76.8583 133.361C77.2978 133.031 77.8473 132.715 78.3957 132.615C78.467 132.602 78.5234 132.689 78.466 132.743C78.2746 132.922 78.0575 133.071 77.8698 133.257C77.6801 133.446 77.4863 133.633 77.3039 133.829C76.9494 134.21 76.6496 134.636 76.3859 135.084C76.1196 135.536 75.8627 135.99 75.6332 136.463C75.4015 136.939 75.2651 137.453 75.0837 137.948C75.0478 138.047 74.8984 138.053 74.8722 137.943C74.7377 137.378 74.8063 136.788 74.923 136.225Z" fill="#070606"/>
<path opacity="0.1" d="M71.7864 134.507C72.3511 133.455 73.3362 132.705 74.4065 132.222C74.4733 132.191 74.5493 132.277 74.4867 132.331C73.6963 133.018 72.9157 133.753 72.41 134.682C71.9071 135.606 71.6442 136.756 71.9963 137.775C72.0127 137.823 71.9449 137.84 71.9203 137.805C71.2391 136.833 71.2312 135.542 71.7864 134.507Z" fill="#070606"/>
<path opacity="0.1" d="M74.4217 113.35L89.1634 127.3C90.7903 121.952 92.3089 116.138 92.9707 114.413C94.2722 111.029 98.4053 94.5522 97.3638 92.2524C94.5327 86.0805 74.064 94.0097 73.4888 97.2749C73.2178 98.8149 73.7603 106.083 74.4217 113.35Z" fill="#070606"/>
<path d="M152.873 108.741C153.471 109.308 159.272 103.818 160.164 101.246C161.055 98.6742 157.341 91.4164 158.028 90.1833C158.716 88.9496 161.877 87.956 163.516 89.8554C165.154 91.7543 169.359 102.159 168.483 106.607C167.607 111.055 158.655 120.992 157.72 120.941C156.785 120.891 152.873 108.741 152.873 108.741Z" fill="#FFC713"/>
<path opacity="0.1" d="M152.874 108.743C152.874 108.743 156.788 120.888 157.718 120.941C158.402 120.976 163.369 115.676 166.335 111.087L158.209 104.233C156.164 106.655 153.286 109.129 152.874 108.743Z" fill="#070606"/>
<path d="M120.095 58.5596H71.9298C71.9298 58.5596 68.3541 90.2742 68.7427 94.4717C69.1314 98.6689 90.3008 129.771 96.8658 133.783C103.528 137.855 141.154 137.992 150.332 135.973C157.468 134.403 163.425 125.295 160.462 111.261C159.166 105.129 142.447 90.5071 140.115 87.709C137.783 84.9104 120.095 58.5596 120.095 58.5596Z" fill="#C7C3BA"/>
<path d="M68.7436 94.4756C69.134 98.6736 90.2971 129.773 96.8704 133.786C103.531 137.854 141.149 137.995 150.337 135.978C157.463 134.404 163.429 125.293 160.457 111.257C159.166 105.128 142.451 90.5056 140.119 87.707C138.687 85.9932 131.506 75.4497 126.148 67.531C122.752 62.5198 120.095 58.5605 120.095 58.5605H71.9325C71.9325 58.5605 71.0322 66.5222 70.186 74.9939C69.34 83.4331 68.5481 92.3821 68.7436 94.4756Z" fill="#FFC713"/>
<path opacity="0.1" d="M70.186 74.9939C96.0679 82.9778 119.086 71.6204 126.147 67.531C122.752 62.5198 120.094 58.5605 120.094 58.5605H71.9327C71.9327 58.5605 71.0323 66.5222 70.186 74.9939Z" fill="#070606"/>
<path d="M151.177 109.731C151.177 109.731 137.917 101.415 128.622 102.917C119.327 104.42 116.047 123.509 120.5 134.25C120.5 134.25 112.018 136.769 112.018 140.867C112.018 143.201 116.862 143.945 123.856 143.779C130.85 143.614 144.744 143.473 145.052 141.717C145.361 139.96 144.137 137.539 144.137 137.539C144.137 137.539 156.682 136.125 159.145 127.814C161.607 119.503 153.269 111.141 151.177 109.731Z" fill="#FFC713"/>
<path opacity="0.1" d="M133.077 135.191C136.589 136.702 140.43 137.427 144.233 137.671C144.306 137.676 144.329 137.797 144.248 137.807C140.309 138.254 136.453 137.261 133.034 135.285C132.986 135.256 133.022 135.168 133.077 135.191Z" fill="#070606"/>
<path opacity="0.1" d="M117.472 143.829C117.821 142.241 119.059 140.989 120.359 140.095C121.113 139.577 121.944 139.158 122.81 138.862C123.803 138.523 124.833 138.341 125.831 138.028C125.914 138.002 125.972 138.124 125.889 138.153C125.028 138.441 124.194 138.88 123.393 139.302C122.587 139.726 121.798 140.187 121.045 140.699C119.744 141.582 118.757 142.723 117.8 143.954C117.699 144.085 117.43 144.018 117.472 143.829Z" fill="#070606"/>
<path opacity="0.1" d="M119.189 137.248C119.277 137.235 119.305 137.351 119.222 137.381C116.66 138.324 114.617 140.585 113.514 143.042C113.467 143.146 113.277 143.146 113.292 143.006C113.635 139.958 116.226 137.68 119.189 137.248Z" fill="#070606"/>
<path opacity="0.1" d="M115.052 136.65C115.02 136.672 115.074 136.715 115.106 136.704C115.324 136.661 117.699 135.066 120.324 134.307C120.541 134.687 120.769 135.066 121.019 135.435C121.062 135.511 121.181 135.446 121.138 135.37C119.489 132.062 118.827 128.33 118.816 124.653C118.806 122.7 118.958 120.726 119.164 118.784C119.153 118.773 119.153 118.763 119.164 118.752C119.663 115.324 120.65 111.972 122.309 108.968C123.318 107.102 124.62 105.301 126.399 104.26C128.178 103.229 130.401 103.067 132.528 103.154C134.686 103.262 136.834 103.728 138.927 104.336C141.031 104.91 143.104 105.67 145.132 106.527C141.26 104.444 137.062 102.806 132.593 102.329C130.369 102.112 127.993 102.264 125.91 103.403C123.85 104.585 122.45 106.495 121.354 108.436C119.25 112.428 118.209 116.875 118.025 121.323C118.003 121.833 117.981 122.353 117.981 122.863V122.885C117.948 123.568 117.938 124.241 117.959 124.924C118.046 128.135 118.697 131.356 120.248 134.177C117.895 134.654 116.528 135.327 115.052 136.65Z" fill="#070606"/>
<path d="M90.5747 15.2933C91.0954 13.3919 86.3488 6.66143 84.5384 4.39752C82.7275 2.13372 72.7535 -1.26362 69.5691 0.479425C68.3188 1.16339 65.9954 5.95281 62.8601 10.1143C58.0086 16.5535 52.3366 23.3089 54.3974 25.1276C59.3975 29.5408 70.7894 22.5805 74.4869 20.2418C78.1847 17.903 81.5653 15.0591 82.4657 15.1592C83.6541 15.2914 86.1578 17.174 87.1563 17.2851C89.5332 17.5494 90.5747 15.2933 90.5747 15.2933Z" fill="#FFC713"/>
<path opacity="0.1" d="M90.5747 15.2933C91.0954 13.3919 86.3488 6.66143 84.5384 4.39752C82.7275 2.13372 72.7535 -1.26362 69.5691 0.479425C68.3188 1.16339 65.9954 5.95281 62.8601 10.1143C58.0086 16.5535 52.3366 23.3089 54.3974 25.1276C59.3975 29.5408 70.7894 22.5805 74.4869 20.2418C78.1847 17.903 81.5653 15.0591 82.4657 15.1592C83.6541 15.2914 86.1578 17.174 87.1563 17.2851C89.5332 17.5494 90.5747 15.2933 90.5747 15.2933Z" fill="#070606"/>
<path d="M113.456 8.55203C125.092 15.5093 130.257 34.024 130.571 36.979C130.828 39.3927 136.377 47.9314 135.385 57.1198C134.748 63.0287 124.141 70.8706 115.505 70.7927C113.916 70.7785 100.474 75.6531 89.1264 74.8692C77.7791 74.0856 69.1725 66.0335 68.838 65.3491C68.5035 64.6648 59.3037 63.3362 58.7254 53.8474C57.8025 38.7 73.2597 12.8917 77.6817 9.36465C85.0013 3.52639 105.55 3.82534 113.456 8.55203Z" fill="#FFC713"/>
<path d="M107.828 16.537C107.603 14.4774 113.647 8.28189 115.903 6.23355C118.157 4.18533 129.073 2.31766 132.087 4.65543C133.271 5.57315 134.886 10.9291 137.448 15.7688C141.412 23.257 146.175 31.2099 143.734 32.7547C137.812 36.5031 127.148 27.3872 123.699 24.3457C120.251 21.3042 117.216 17.7913 116.265 17.7456C115.009 17.6852 112.098 19.2227 111.044 19.1718C108.533 19.0512 107.828 16.537 107.828 16.537Z" fill="#FFC713"/>
<path opacity="0.1" d="M107.828 16.537C107.603 14.4774 113.647 8.28189 115.903 6.23355C118.157 4.18533 129.073 2.31766 132.087 4.65543C133.271 5.57315 134.886 10.9291 137.448 15.7688C141.412 23.257 146.175 31.2099 143.734 32.7547C137.812 36.5031 127.148 27.3872 123.699 24.3457C120.251 21.3042 117.216 17.7913 116.265 17.7456C115.009 17.6852 112.098 19.2227 111.044 19.1718C108.533 19.0512 107.828 16.537 107.828 16.537Z" fill="#070606"/>
<path opacity="0.1" d="M86.7382 42.2611C93.878 42.3256 97.1265 49.9711 97.9883 51.9622C98.8502 53.9534 103.252 58.5152 103.368 63.2762C103.483 68.0374 94.4376 73.3585 84.8861 71.6778C75.381 70.0052 70.3415 64.6444 70.3957 59.8055C70.4392 55.9112 74.1107 52.5401 74.5165 51.5125C74.9224 50.4848 80.2335 42.2025 86.7382 42.2611Z" fill="#070606"/>
<path opacity="0.1" d="M104.199 55.6426C105.148 56.7236 105.951 57.9348 106.594 59.2324C107.24 60.5291 107.745 61.9131 107.994 63.3787C108.22 64.8313 108.207 66.4241 107.528 67.8242C107.203 68.5198 106.716 69.1309 106.142 69.6108C105.541 70.0618 104.887 70.4038 104.199 70.6121C105.398 69.8127 106.334 68.7539 106.745 67.5015C107.174 66.2581 107.148 64.8882 106.924 63.5537C106.718 62.2085 106.287 60.8835 105.821 59.5676C105.328 58.2585 104.794 56.9485 104.199 55.6426Z" fill="#070606"/>
<path opacity="0.1" d="M71.6355 52.8174C71.0162 53.583 70.4319 54.3306 69.8909 55.093C69.3661 55.8623 68.8548 56.6326 68.5138 57.4622C68.1498 58.2805 67.934 59.1355 67.8843 60.0205C67.8468 60.9155 68.0922 61.7942 68.3889 62.7444C67.7131 62.0444 67.1671 61.1189 67.0393 60.0706C66.9048 59.03 67.12 57.9683 67.5219 57.0249C67.9375 56.0808 68.5465 55.2593 69.2451 54.551C69.9453 53.8459 70.7354 53.2324 71.6355 52.8174Z" fill="#070606"/>
<path d="M77.6641 53.9592C77.6641 53.9592 80.4946 57.2344 81.592 56.543C82.6892 55.8518 85.4321 49.3965 85.4321 49.3965C85.4321 49.3965 86.0859 57.6028 88.2051 57.8281C90.3245 58.0537 93.9404 54.8159 93.9404 54.8159L85.387 48.8779L77.6641 53.9592Z" fill="#FFC713"/>
<path opacity="0.1" d="M77.6641 53.9592C77.6641 53.9592 80.4946 57.2344 81.592 56.543C82.6892 55.8518 85.4321 49.3965 85.4321 49.3965C85.4321 49.3965 86.0859 57.6028 88.2051 57.8281C90.3245 58.0537 93.9404 54.8159 93.9404 54.8159L85.387 48.8779L77.6641 53.9592Z" fill="#070606"/>
<path opacity="0.1" d="M119.641 43.7733C120.479 41.1706 120.778 38.3855 120.514 35.5925C120.391 34.1926 120.061 32.7933 119.522 31.4406C119.255 30.7633 118.9 30.113 118.482 29.4968C118.073 28.8765 117.584 28.2967 117.027 27.7841C116.754 27.5218 116.448 27.2976 116.143 27.0727C115.834 26.8607 115.508 26.6868 115.19 26.4958L114.706 26.2232L114.192 26.0122C113.845 25.8844 113.515 25.7069 113.153 25.6272C111.736 25.2033 110.259 25.0866 108.836 25.2171C105.985 25.4671 103.325 26.5777 101.159 28.2404C103.718 27.3319 106.342 26.7528 108.89 26.815C110.154 26.8801 111.405 27.0169 112.548 27.4697C112.84 27.5588 113.106 27.7137 113.387 27.8288L113.804 28.0137L114.191 28.2552C114.446 28.4179 114.719 28.5614 114.963 28.7331C115.198 28.9124 115.435 29.0892 115.647 29.2961C116.541 30.0739 117.227 31.0987 117.752 32.2207C118.308 33.3345 118.648 34.5745 118.94 35.836C119.471 38.3798 119.641 41.0532 119.641 43.7733Z" fill="#070606"/>
<path opacity="0.1" d="M66.7311 38.2318C66.9043 35.9148 67.226 33.6577 67.8711 31.5586C68.5267 29.4751 69.5685 27.5619 71.1797 26.3931C71.5726 26.093 72.0171 25.8563 72.459 25.6435C72.877 25.4617 73.3387 25.3299 73.8306 25.2619C74.8162 25.1206 75.8882 25.188 76.9674 25.3317C79.1321 25.664 81.3192 26.3159 83.5386 27.0309C82.6531 26.2555 81.6555 25.6328 80.6224 25.0635C80.0999 24.7917 79.5659 24.5355 79.0176 24.3006C78.4641 24.0813 77.899 23.8805 77.3162 23.7134C76.1517 23.3819 74.9098 23.1885 73.6055 23.2986C72.9562 23.3592 72.2882 23.5009 71.6511 23.7757C71.0529 24.046 70.4752 24.3515 69.9604 24.7591C68.905 25.5364 68.0881 26.5869 67.5051 27.6992C66.9189 28.8174 66.5659 30.0099 66.365 31.2C65.972 33.5806 66.0978 35.981 66.7311 38.2318Z" fill="#070606"/>
<path d="M101.975 40.3654C102.008 40.2417 102.249 40.5325 102.239 40.6667C101.982 43.9344 102.292 47.721 105.492 48.9493C105.591 48.9874 105.573 49.1514 105.454 49.1307C101.513 48.4497 101.158 43.4196 101.975 40.3654Z" fill="#181A20"/>
<path d="M105.329 37.0865C111.12 36.9381 111.112 47.5162 105.747 47.6536C100.468 47.7889 100.476 37.2109 105.329 37.0865Z" fill="#181A20"/>
<path d="M79.5969 37.7992C79.581 37.6721 79.3027 37.9265 79.2939 38.0607C79.0927 41.3322 78.258 45.0387 74.9179 45.8091C74.8144 45.833 74.8093 45.9977 74.9301 45.9938C78.9272 45.8689 79.9804 40.9375 79.5969 37.7992Z" fill="#181A20"/>
<path d="M76.7327 34.0848C71.0193 33.1304 69.5527 43.6062 74.8459 44.4901C80.0544 45.3601 81.5215 34.8848 76.7327 34.0848Z" fill="#181A20"/>
<path d="M85.216 49.0997C86.2417 49.4339 93.3889 47.1729 92.845 45.0077C92.2563 42.6644 82.2073 42.1126 80.9443 43.6341C79.6819 45.1556 84.1406 48.7496 85.216 49.0997Z" fill="#181A20"/>
<path d="M94.125 54.7002C92.9756 55.5337 91.7937 56.3508 90.4888 56.9724C89.8533 57.2764 89.1277 57.5481 88.5168 57.5359C88.1074 57.6172 87.7615 57.0544 87.5261 56.5283C87.0537 55.4438 86.8254 54.2454 86.6167 53.0647C86.4045 51.8806 86.2795 50.6748 86.1577 49.4871L85.8186 46.1875L84.8311 49.3923C84.5273 50.3779 84.1704 51.3684 83.812 52.3477C83.4355 53.3223 83.0413 54.2988 82.5349 55.2131C82.4072 55.4407 82.2673 55.6616 82.1125 55.8667C81.9626 56.0691 81.7881 56.2734 81.614 56.3823C81.4922 56.478 81.27 56.4827 81.0117 56.4463C80.7583 56.376 80.4868 56.2764 80.2373 56.1248C79.2278 55.5254 78.4133 54.6663 77.6577 53.814C78.1851 54.7703 78.8179 55.7063 79.8342 56.4883C80.085 56.6865 80.4038 56.8525 80.7734 56.9802C80.9797 57.0208 81.179 57.0835 81.415 57.0647C81.625 57.0806 81.9302 57.0051 82.1055 56.906C82.4783 56.7102 82.6956 56.4812 82.9077 56.2534C83.1125 56.0234 83.2883 55.7888 83.4495 55.5515C84.0989 54.6047 84.5674 53.623 85.0022 52.635C85.4438 51.6472 85.8032 50.6506 86.1404 49.635L84.8137 49.54C84.8948 50.7729 85.0833 51.9829 85.3132 53.2014C85.4265 53.8103 85.5852 54.4155 85.7668 55.021C85.9578 55.6252 86.1541 56.2322 86.4875 56.8296C86.6562 57.1282 86.8362 57.427 87.1267 57.7188C87.2798 57.863 87.4492 58.0107 87.7109 58.127C87.8403 58.1865 87.9846 58.2324 88.1562 58.251C88.3313 58.282 88.4194 58.2532 88.5549 58.2549C89.5464 58.1772 90.2407 57.7849 90.8955 57.415C92.1704 56.6287 93.2163 55.699 94.125 54.7002Z" fill="#181A20"/>
</svg>
