<svg width="14" height="11" viewBox="0 0 14 11" fill="none" xmlns="http://www.w3.org/2000/svg">
<path d="M7.00001 6.83329C7.64976 6.83329 8.17648 6.27365 8.17648 5.58329C8.17648 4.89294 7.64976 4.33329 7.00001 4.33329C6.35026 4.33329 5.82354 4.89294 5.82354 5.58329C5.82354 6.27365 6.35026 6.83329 7.00001 6.83329Z" fill="#94A2BE"/>
<path fill-rule="evenodd" clip-rule="evenodd" d="M0.363216 5.42379C1.60653 2.23586 4.1511 0.166626 7.00001 0.166626C9.84891 0.166626 12.3935 2.23586 13.6368 5.42379C13.6766 5.52591 13.6766 5.64067 13.6368 5.7428C12.3935 8.93073 9.84891 11 7.00001 11C4.1511 11 1.60653 8.93073 0.363216 5.7428C0.323386 5.64067 0.323386 5.52591 0.363216 5.42379ZM7.00001 7.66663C5.9171 7.66663 5.03923 6.73389 5.03923 5.58329C5.03923 4.4327 5.9171 3.49996 7.00001 3.49996C8.08292 3.49996 8.96079 4.4327 8.96079 5.58329C8.96079 6.73389 8.08292 7.66663 7.00001 7.66663Z" fill="#94A2BE"/>
</svg>
