<svg width="54" height="54" viewBox="0 0 54 54" fill="none" xmlns="http://www.w3.org/2000/svg">
<g clip-path="url(#clip0_820_9805)">
<path d="M13.6707 0.341797C11.8379 0.341797 10.3384 1.84132 10.3384 3.67408V50.326C10.3384 52.1587 11.8379 53.6583 13.6707 53.6583H46.9934C48.8262 53.6583 50.3257 52.1587 50.3257 50.326V13.6709L36.9966 0.341797H13.6707Z" fill="#E2E5E7"/>
<path d="M40.3289 13.6709H50.3257L36.9966 0.341797V10.3386C36.9966 12.1714 38.4961 13.6709 40.3289 13.6709Z" fill="#B0B7BD"/>
<path d="M50.3259 23.6677L40.3291 13.6709H50.3259V23.6677Z" fill="#CAD1D8"/>
<path d="M43.6615 43.6615C43.6615 44.5779 42.9118 45.3277 41.9954 45.3277H5.34033C4.42396 45.3277 3.67419 44.5779 3.67419 43.6615V27.0001C3.67419 26.0837 4.42396 25.334 5.34033 25.334H41.9954C42.9118 25.334 43.6615 26.0837 43.6615 27.0001V43.6615Z" fill="#F15642"/>
<path d="M10.9373 31.9102C10.9373 31.4703 11.2838 30.9905 11.842 30.9905H14.9193C16.6521 30.9905 18.2116 32.1501 18.2116 34.3727C18.2116 36.4787 16.6521 37.6517 14.9193 37.6517H12.695V39.4111C12.695 39.9976 12.3218 40.3292 11.842 40.3292C11.4021 40.3292 10.9373 39.9976 10.9373 39.4111V31.9102ZM12.695 32.6683V35.9872H14.9193C15.8124 35.9872 16.5188 35.1991 16.5188 34.3727C16.5188 33.4414 15.8124 32.6683 14.9193 32.6683H12.695Z" fill="white"/>
<path d="M20.8202 40.3291C20.3804 40.3291 19.9005 40.0892 19.9005 39.5044V31.9368C19.9005 31.4586 20.3804 31.1104 20.8202 31.1104H23.8709C29.959 31.1104 29.8257 40.3291 23.9909 40.3291H20.8202ZM21.66 32.7365V38.7046H23.8709C27.4681 38.7046 27.6281 32.7365 23.8709 32.7365H21.66Z" fill="white"/>
<path d="M31.9857 32.8431V34.9608H35.383C35.8628 34.9608 36.3427 35.4406 36.3427 35.9055C36.3427 36.3453 35.8628 36.7052 35.383 36.7052H31.9857V39.5027C31.9857 39.9692 31.6541 40.3274 31.1876 40.3274C30.6011 40.3274 30.2429 39.9692 30.2429 39.5027V31.935C30.2429 31.4569 30.6028 31.1086 31.1876 31.1086H35.8645C36.451 31.1086 36.7975 31.4569 36.7975 31.935C36.7975 32.3616 36.451 32.8414 35.8645 32.8414H31.9857V32.8431Z" fill="white"/>
<path d="M41.995 45.3275H10.3384V46.9937H41.995C42.9114 46.9937 43.6612 46.2439 43.6612 45.3275V43.6614C43.6612 44.5778 42.9114 45.3275 41.995 45.3275Z" fill="#CAD1D8"/>
</g>
<defs>
<clipPath id="clip0_820_9805">
<rect width="53.3165" height="53.3165" fill="white" transform="translate(0.341797 0.341797)"/>
</clipPath>
</defs>
</svg>
