<svg width="31" height="17" viewBox="0 0 31 17" fill="none" xmlns="http://www.w3.org/2000/svg">
<path d="M30.0608 2.80439C30.0608 8.00462 4.99176 13.7445 3.09351 13.7445C2.02925 13.7445 0.821756 13.4992 0.821756 12.5181C0.821756 12.1902 1.20012 11.7164 1.86406 11.1452L1.86332 11.1456L0.103588 8.01891C-0.134688 7.5956 0.0542233 7.05932 0.505136 6.87876L0.807561 6.75768C1.35568 6.53822 1.97257 6.57093 2.49436 6.84713L5.68901 8.53839C6.93285 7.80062 8.34384 7.02818 9.83101 6.26767L3.60543 2.22867C3.11291 1.9091 3.11817 1.18636 3.6153 0.874062L4.12457 0.5541C4.97216 0.0216013 6.00258 -0.135677 6.97042 0.119594L17.3272 2.8514C20.5563 1.56968 23.4759 0.694875 25.204 0.694875C25.6656 0.694875 26.1278 0.707106 26.5738 0.738984L23.4462 2.15091L23.3713 3.20294L28.1992 0.983597C29.3565 1.2596 30.0608 1.77471 30.0608 2.80439ZM17.4614 11.7811L21.3245 16.1696C21.5599 16.437 21.9434 16.5175 22.2664 16.3674L22.7838 16.1269C23.7273 15.6883 24.2829 14.694 24.1621 13.6607L23.6785 9.52554C23.6485 9.26968 23.3889 9.10773 23.1459 9.19329L17.6294 11.1365C17.361 11.2312 17.2732 11.5674 17.4614 11.7811Z" fill="#94A3B6" fill-opacity="0.84"/>
</svg>
