<svg width="22" height="22" viewBox="0 0 22 22" fill="none" xmlns="http://www.w3.org/2000/svg">
<path d="M21.4687 13.8901C21.5096 13.4311 20.871 13.0496 20.593 12.7752C20.5079 12.7044 20.4093 12.6516 20.3032 12.6198C20.1971 12.5881 20.0857 12.5782 19.9756 12.5906C19.8656 12.6031 19.7592 12.6376 19.6628 12.6922C19.5665 12.7469 19.4822 12.8204 19.415 12.9084L19.0184 11.9512C19.2518 11.682 19.7868 11.303 19.7375 10.8853C19.7752 10.4802 19.289 10.153 19.0484 9.89762C18.9274 9.77955 18.7711 9.70417 18.6033 9.68291C18.4355 9.66164 18.2653 9.69565 18.1186 9.77978L17.3844 8.00795C18.479 6.83442 19.8284 5.92132 20.1914 4.35817L20.6546 2.27186C20.7045 2.03601 20.697 1.79161 20.6325 1.55931C20.5681 1.32701 20.4486 1.11364 20.2844 0.937219C20.1201 0.7608 19.9157 0.626521 19.6886 0.545727C19.4614 0.464933 19.2182 0.439998 18.9794 0.473029C17.7814 0.643544 15.636 1.0891 14.7306 2.15531L13.1735 3.94762L11.5353 3.27009C11.6743 3.1234 11.7514 2.92878 11.7506 2.7267C11.7498 2.52462 11.6712 2.33063 11.531 2.18505C11.2554 1.93349 10.882 1.36067 10.4337 1.41565C9.96805 1.37988 9.57216 2.06372 9.29296 2.34274L8.48839 2.01L8.67478 1.77707C8.79708 1.62554 8.85806 1.43364 8.84566 1.23932C8.83326 1.04499 8.74839 0.862396 8.60783 0.727642L8.08081 0.218001C7.93303 0.0764634 7.7358 -0.00175143 7.53118 2.97684e-05C7.32656 0.00181097 7.13072 0.0834472 6.98542 0.227536L6.16417 1.04879L5.26309 0.676138C4.85261 0.507562 4.40284 0.458476 3.96566 0.534545C3.52848 0.610613 3.12172 0.808736 2.79231 1.10605L1.93934 1.87988C1.85608 1.95613 1.79025 2.04945 1.74636 2.15348C1.70247 2.2575 1.68155 2.36977 1.68503 2.48262C1.6885 2.59547 1.7163 2.70624 1.76651 2.80736C1.81673 2.90848 1.88818 2.99758 1.97598 3.06855C3.68805 4.43035 7.58798 7.52982 9.06131 8.68124L4.87599 13.499L2.29353 12.3085C2.01692 12.1809 1.70905 12.137 1.4078 12.1822C1.10656 12.2274 0.825105 12.3596 0.598088 12.5627L0.257815 12.867C0.174459 12.9426 0.108322 13.0353 0.0638757 13.1387C0.0194295 13.2421 -0.00228846 13.3539 0.000190704 13.4664C0.00266987 13.5789 0.0292885 13.6896 0.0782458 13.791C0.127203 13.8923 0.197357 13.982 0.283963 14.0539L3.17743 16.4212C3.04649 16.6649 3.0016 16.9456 3.05003 17.218C3.09846 17.4904 3.23737 17.7384 3.44429 17.9221C3.65121 18.1057 3.91403 18.2141 4.19023 18.2298C4.46643 18.2455 4.73985 18.1676 4.96626 18.0086L7.15194 21.1145C7.22412 21.2173 7.32007 21.3012 7.43162 21.3589C7.54316 21.4167 7.66701 21.4466 7.79262 21.4462C8.03288 21.4314 8.25981 21.3307 8.43195 21.1624C8.71896 20.9525 8.92527 20.6505 9.01642 20.3068C9.10758 19.9631 9.07807 19.5985 8.93283 19.2739L8.04839 17.2724C8.02772 17.2254 7.99797 17.1829 7.96087 17.1474C7.92376 17.1119 7.88001 17.084 7.83213 17.0655C7.78425 17.0469 7.73318 17.0379 7.68183 17.0391C7.63049 17.0403 7.57988 17.0516 7.53291 17.0724C7.48593 17.0931 7.44351 17.1229 7.40808 17.1601C7.37265 17.1973 7.3449 17.2411 7.32641 17.289C7.30793 17.3369 7.29907 17.388 7.30036 17.4394C7.30164 17.4907 7.31304 17.5413 7.3339 17.5882L8.21833 19.5898C8.29794 19.7897 8.29798 20.0125 8.21845 20.2124C8.13892 20.4123 7.98585 20.5742 7.79068 20.6648L5.63628 17.6031L8.0009 16.1718C8.01796 16.1615 8.03422 16.1499 8.04953 16.1371C8.0724 16.1179 10.2592 14.2867 12.7293 12.1495L18.2903 19.7975C18.3626 19.8954 18.4567 19.9751 18.5651 20.0304C18.6736 20.0857 18.7933 20.1151 18.915 20.1162C19.0367 20.1173 19.157 20.0901 19.2664 20.0368C19.3759 19.9835 19.4714 19.9055 19.5455 19.8089L20.4988 18.5472C20.7443 18.2209 20.9006 17.8363 20.9524 17.4312C21.0042 17.0261 20.9497 16.6145 20.7942 16.2369L20.3816 15.241L21.2162 14.4737C21.2967 14.3995 21.3609 14.3092 21.4044 14.2087C21.4479 14.1082 21.4698 13.9996 21.4687 13.8901V13.8901ZM18.505 10.4589L18.9563 10.8961L18.693 11.166L18.4275 10.5252L18.505 10.4589ZM10.4551 2.19649L10.9697 2.72845L10.7793 2.95743L10.0543 2.65762L10.4551 2.19649ZM7.53779 0.779697L8.06479 1.28915L7.73675 1.69913L6.94563 1.37195L7.53779 0.779697ZM2.46423 2.45856L3.3172 1.68474C3.53681 1.48652 3.80797 1.35442 4.09941 1.30367C4.39085 1.25291 4.6907 1.28557 4.96438 1.39787C5.62181 1.66886 12.6163 4.56601 12.6333 4.56955L9.57439 8.09063C8.13036 6.96297 4.18608 3.8282 2.46423 2.45856V2.45856ZM1.1188 13.1452C1.23229 13.0436 1.37303 12.9774 1.52368 12.9548C1.67433 12.9322 1.82831 12.9542 1.96662 13.018L4.4364 14.1566L3.56296 15.7272L0.778514 13.4495L1.1188 13.1452ZM19.8755 18.0761L18.922 19.338L13.1109 11.3462C13.0775 11.3033 13.0359 11.2675 12.9883 11.2411C12.9408 11.2147 12.8884 11.1982 12.8343 11.1927C12.7802 11.1871 12.7255 11.1926 12.6736 11.2087C12.6217 11.2249 12.5736 11.2514 12.5322 11.2867C10.0791 13.4146 7.82237 15.308 7.57117 15.5186L4.47535 17.3925C4.39176 17.4407 4.29476 17.4604 4.199 17.4485C4.10324 17.4367 4.01394 17.3941 3.94456 17.327C3.87519 17.26 3.82952 17.1721 3.81445 17.0768C3.79938 16.9816 3.81572 16.8839 3.86102 16.7988L5.31535 14.1846L15.3232 2.66456C16.0923 1.75895 18.2132 1.3712 19.0893 1.24663C19.2031 1.23236 19.3187 1.2453 19.4266 1.28438C19.5345 1.32347 19.6316 1.38759 19.7098 1.47148C19.7881 1.55537 19.8454 1.65663 19.8769 1.76695C19.9085 1.87728 19.9134 1.99351 19.8913 2.1061C19.6359 3.03885 19.4981 4.7825 18.7574 5.47674C17.1244 7.22055 15.3865 8.86316 13.5536 10.3954C13.4779 10.4643 13.4322 10.5601 13.4264 10.6623C13.4206 10.7644 13.4551 10.8648 13.5225 10.9418C13.5899 11.0188 13.6848 11.0663 13.7869 11.074C13.8889 11.0818 13.9899 11.0492 14.0682 10.9833C15.1592 10.0284 16.0133 9.2673 16.7729 8.57328L20.0725 16.5359C20.1761 16.7877 20.2125 17.0621 20.1779 17.3321C20.1434 17.6022 20.0391 17.8586 19.8755 18.0761V18.0761ZM20.0631 14.4725L19.7331 13.676L20.0771 13.3619L20.6874 13.8986L20.0631 14.4725Z" fill="#27B4D5"/>
<path d="M16.3672 3.12378C16.4248 3.13523 17.7744 3.42076 17.8003 4.69487C17.8039 4.79749 17.8477 4.89459 17.9223 4.96516C17.9968 5.03574 18.0962 5.07412 18.1989 5.07201C18.3015 5.06991 18.3992 5.02748 18.4708 4.9539C18.5425 4.88032 18.5822 4.78151 18.5816 4.67883C18.5503 3.15011 17.2169 2.49151 16.5163 2.35685C16.4157 2.33975 16.3124 2.36267 16.2285 2.42071C16.1446 2.47876 16.0867 2.56732 16.0672 2.66748C16.0478 2.76764 16.0682 2.87144 16.1243 2.9567C16.1803 3.04197 16.2675 3.10193 16.3672 3.12378Z" fill="#27B4D5"/>
</svg>
