<svg width="25" height="25" viewBox="0 0 25 25" fill="none" xmlns="http://www.w3.org/2000/svg">
<path d="M0.439252 12.4995C0.439252 5.83869 5.83972 0.439252 12.5 0.439252C19.1614 0.439252 24.5607 5.83867 24.5607 12.4995C24.5607 19.1602 19.1614 24.5596 12.5 24.5596C5.83918 24.5596 0.439252 19.1602 0.439252 12.4995ZM17.0743 7.87194C17.0743 5.34633 15.0267 3.29823 12.5 3.29823C9.97432 3.29823 7.92684 5.34641 7.92684 7.87194C7.92684 10.398 9.97436 12.4456 12.5 12.4456C15.0267 12.4456 17.0743 10.3981 17.0743 7.87194ZM5.46594 18.1889C5.46594 18.832 5.74855 19.4444 6.23832 19.8622C7.92395 21.3005 10.1106 22.1701 12.4973 22.1701C14.8843 22.1701 17.0713 21.3007 18.7564 19.8619C19.2473 19.4438 19.5286 18.8322 19.5286 18.1889C19.5286 15.6289 17.4631 13.5811 14.906 13.5811H10.0951C7.53945 13.5811 5.46594 15.628 5.46594 18.1889Z" fill="#D3D7DA" stroke="#BAC3CA" stroke-width="0.878503"/>
</svg>
