<svg width="21" height="21" viewBox="0 0 21 21" fill="none" xmlns="http://www.w3.org/2000/svg">
<path d="M10.5004 0.0842285C8.48006 0.0880671 6.50444 0.679344 4.81418 1.78604C3.12391 2.89273 1.79196 4.46708 0.980544 6.31732C0.169133 8.16756 -0.0867114 10.2138 0.244174 12.2069C0.57506 14.1999 1.47839 16.0538 2.84415 17.5426C3.81959 18.5999 5.00346 19.4437 6.32117 20.0209C7.63887 20.5981 9.06184 20.896 10.5004 20.896C11.939 20.896 13.3619 20.5981 14.6796 20.0209C15.9973 19.4437 17.1812 18.5999 18.1566 17.5426C19.5224 16.0538 20.4257 14.1999 20.7566 12.2069C21.0875 10.2138 20.8317 8.16756 20.0203 6.31732C19.2088 4.46708 17.8769 2.89273 16.1866 1.78604C14.4964 0.679344 12.5207 0.0880671 10.5004 0.0842285ZM10.5004 18.8342C8.34255 18.8309 6.2701 17.9908 4.71915 16.4905C5.19003 15.3442 5.99106 14.3637 7.02045 13.6737C8.04985 12.9837 9.26114 12.6153 10.5004 12.6153C11.7397 12.6153 12.9509 12.9837 13.9803 13.6737C15.0097 14.3637 15.8108 15.3442 16.2816 16.4905C14.7307 17.9908 12.6582 18.8309 10.5004 18.8342ZM8.41706 8.41756C8.41706 8.00552 8.53925 7.60273 8.76817 7.26012C8.99709 6.91752 9.32246 6.6505 9.70314 6.49281C10.0838 6.33513 10.5027 6.29387 10.9068 6.37426C11.311 6.45464 11.6822 6.65306 11.9735 6.94442C12.2649 7.23578 12.4633 7.607 12.5437 8.01112C12.6241 8.41525 12.5828 8.83414 12.4251 9.21482C12.2675 9.5955 12.0004 9.92087 11.6578 10.1498C11.3152 10.3787 10.9124 10.5009 10.5004 10.5009C9.94786 10.5009 9.41796 10.2814 9.02726 9.8907C8.63656 9.5 8.41706 8.9701 8.41706 8.41756ZM17.6983 14.6676C16.7676 13.0756 15.3352 11.8374 13.6254 11.1467C14.1558 10.5453 14.5014 9.80366 14.6207 9.01073C14.74 8.21779 14.628 7.40726 14.2981 6.67641C13.9681 5.94556 13.4343 5.32544 12.7607 4.89044C12.0871 4.45545 11.3023 4.22407 10.5004 4.22407C9.69853 4.22407 8.9137 4.45545 8.24008 4.89044C7.56645 5.32544 7.03266 5.94556 6.70274 6.67641C6.37282 7.40726 6.2608 8.21779 6.38012 9.01073C6.49943 9.80366 6.84501 10.5453 7.3754 11.1467C5.6656 11.8374 4.23318 13.0756 3.30248 14.6676C2.56076 13.4041 2.16886 11.966 2.16706 10.5009C2.16706 8.29076 3.04504 6.17114 4.60784 4.60834C6.17064 3.04554 8.29026 2.16756 10.5004 2.16756C12.7105 2.16756 14.8302 3.04554 16.393 4.60834C17.9558 6.17114 18.8337 8.29076 18.8337 10.5009C18.8319 11.966 18.44 13.4041 17.6983 14.6676Z" fill="#21417E"/>
</svg>
