<svg width="12" height="12" viewBox="0 0 12 12" fill="none" xmlns="http://www.w3.org/2000/svg">
<path d="M5.82813 11.6562C4.67543 11.6562 3.54862 11.3144 2.59019 10.674C1.63176 10.0336 0.884759 9.1234 0.443642 8.05845C0.00252524 6.9935 -0.112891 5.82166 0.111988 4.69112C0.336868 3.56057 0.891943 2.5221 1.70702 1.70702C2.5221 0.891943 3.56057 0.336868 4.69112 0.111988C5.82166 -0.112891 6.9935 0.00252524 8.05845 0.443642C9.1234 0.884759 10.0336 1.63176 10.674 2.59019C11.3144 3.54862 11.6562 4.67543 11.6562 5.82813C11.6545 7.37329 11.0399 8.85467 9.94727 9.94727C8.85467 11.0399 7.37329 11.6545 5.82813 11.6562ZM5.82813 0.896637C4.85277 0.896637 3.89932 1.18586 3.08834 1.72774C2.27736 2.26962 1.64528 3.03982 1.27202 3.94093C0.898771 4.84204 0.801112 5.8336 0.991394 6.79021C1.18168 7.74683 1.65136 8.62554 2.34104 9.31522C3.03072 10.0049 3.90943 10.4746 4.86604 10.6649C5.82266 10.8551 6.81421 10.7575 7.71533 10.3842C8.61644 10.011 9.38663 9.37889 9.92851 8.56791C10.4704 7.75694 10.7596 6.80348 10.7596 5.82813C10.7581 4.52069 10.238 3.26724 9.31351 2.34274C8.38901 1.41824 7.13556 0.898179 5.82813 0.896637Z" fill="#565656"/>
<path d="M5.82818 7.62136C5.70928 7.62136 5.59525 7.57412 5.51117 7.49005C5.4271 7.40597 5.37986 7.29194 5.37986 7.17304C5.40862 6.89121 5.49478 6.61826 5.63302 6.37099C5.77127 6.12373 5.95867 5.90738 6.1837 5.73529C6.4621 5.45688 6.72482 5.19417 6.72482 4.93145C6.72482 4.69365 6.63035 4.46559 6.4622 4.29744C6.29405 4.12928 6.06598 4.03482 5.82818 4.03482C5.59038 4.03482 5.36232 4.12928 5.19416 4.29744C5.02601 4.46559 4.93155 4.69365 4.93155 4.93145C4.93155 5.05035 4.88431 5.16438 4.80024 5.24846C4.71616 5.33254 4.60213 5.37977 4.48323 5.37977C4.36433 5.37977 4.2503 5.33254 4.16622 5.24846C4.08215 5.16438 4.03491 5.05035 4.03491 4.93145C4.03491 4.45585 4.22385 3.99972 4.56015 3.66342C4.89645 3.32712 5.35258 3.13818 5.82818 3.13818C6.30379 3.13818 6.75991 3.32712 7.09621 3.66342C7.43252 3.99972 7.62145 4.45585 7.62145 4.93145C7.59269 5.21328 7.50653 5.48623 7.36829 5.7335C7.23005 5.98076 7.04264 6.19711 6.81762 6.36921C6.53921 6.64761 6.2765 6.91032 6.2765 7.17304C6.2765 7.29194 6.22926 7.40597 6.14519 7.49005C6.06111 7.57412 5.94708 7.62136 5.82818 7.62136Z" fill="#565656"/>
<path d="M5.8282 8.96634C6.0758 8.96634 6.27652 8.76562 6.27652 8.51802C6.27652 8.27042 6.0758 8.0697 5.8282 8.0697C5.5806 8.0697 5.37988 8.27042 5.37988 8.51802C5.37988 8.76562 5.5806 8.96634 5.8282 8.96634Z" fill="#565656"/>
</svg>
