<svg width="18" height="18" viewBox="0 0 18 18" fill="none" xmlns="http://www.w3.org/2000/svg">
<path d="M12.7722 3.52336V3.96379H13.2126H16.736C16.9001 3.96379 17.0027 4.01659 17.0632 4.07702C17.1236 4.13746 17.1764 4.24004 17.1764 4.40421V7.92757C17.1764 9.18176 16.2285 10.1297 14.9743 10.1297H2.64252C1.38833 10.1297 0.440421 9.18176 0.440421 7.92757V4.40421C0.440421 4.24004 0.493221 4.13745 0.553656 4.07702C0.614091 4.01659 0.716673 3.96379 0.880841 3.96379H4.40421H4.84463V3.52336V2.64252C4.84463 1.38833 5.79254 0.440421 7.04673 0.440421H10.5701C11.8243 0.440421 12.7722 1.38833 12.7722 2.64252V3.52336ZM11.4509 3.96379H11.8914V3.52336V2.64252C11.8914 2.27819 11.768 1.94035 11.5201 1.69249C11.2723 1.44463 10.9344 1.32126 10.5701 1.32126H7.04673C6.68239 1.32126 6.34455 1.44463 6.09669 1.69249C5.84884 1.94035 5.72547 2.27819 5.72547 2.64252V3.52336V3.96379H6.16589H11.4509ZM13.653 13.2126V12.3318H14.9743C15.4291 12.3318 15.8781 12.2475 16.2956 12.1088V14.9743C16.2956 16.2285 15.3477 17.1764 14.0935 17.1764H3.52336C2.26917 17.1764 1.32126 16.2285 1.32126 14.9743V12.1088C1.7387 12.2475 2.18769 12.3318 2.64252 12.3318H3.96379V13.2126C3.96379 13.577 4.08715 13.9148 4.33501 14.1627C4.58287 14.4105 4.92071 14.5339 5.28505 14.5339C5.64938 14.5339 5.98722 14.4105 6.23508 14.1627C6.48294 13.9148 6.60631 13.577 6.60631 13.2126V12.3318H11.0105V13.2126C11.0105 13.577 11.1339 13.9148 11.3817 14.1627C11.6296 14.4105 11.9674 14.5339 12.3318 14.5339C12.6961 14.5339 13.034 14.4105 13.2818 14.1627C13.5297 13.9148 13.653 13.577 13.653 13.2126Z" fill="#03314C" stroke="#03314C" stroke-width="0.880841"/>
<path d="M13.9526 8H4.76559C4.34451 8 4 8.32922 4 8.7316C4 9.13397 4.34451 9.46319 4.76559 9.46319H13.9526C14.3737 9.46319 14.7182 9.13397 14.7182 8.7316C14.7182 8.32922 14.3737 8 13.9526 8Z" fill="#47DD95"/>
</svg>
