<svg width="18" height="18" viewBox="0 0 18 18" fill="none" xmlns="http://www.w3.org/2000/svg">
<path d="M13.047 3.52336V3.96379H13.4874H17.0108C17.1749 3.96379 17.2775 4.01659 17.3379 4.07702C17.3984 4.13746 17.4512 4.24004 17.4512 4.40421V7.92757C17.4512 9.18176 16.5033 10.1297 15.2491 10.1297H2.9173C1.66311 10.1297 0.715201 9.18176 0.715201 7.92757V4.40421C0.715201 4.24004 0.768001 4.13745 0.828436 4.07702C0.888871 4.01659 0.991454 3.96379 1.15562 3.96379H4.67899H5.11941V3.52336V2.64252C5.11941 1.38833 6.06732 0.440421 7.32151 0.440421H10.8449C12.0991 0.440421 13.047 1.38833 13.047 2.64252V3.52336ZM11.7257 3.96379H12.1661V3.52336V2.64252C12.1661 2.27819 12.0428 1.94035 11.7949 1.69249C11.547 1.44463 11.2092 1.32126 10.8449 1.32126H7.32151C6.95717 1.32126 6.61933 1.44463 6.37148 1.69249C6.12362 1.94035 6.00025 2.27819 6.00025 2.64252V3.52336V3.96379H6.44067H11.7257ZM13.9278 13.2126V12.3318H15.2491C15.7039 12.3318 16.1529 12.2475 16.5703 12.1088V14.9743C16.5703 16.2285 15.6224 17.1764 14.3682 17.1764H3.79814C2.54395 17.1764 1.59604 16.2285 1.59604 14.9743V12.1088C2.01348 12.2475 2.46247 12.3318 2.9173 12.3318H4.23857V13.2126C4.23857 13.577 4.36193 13.9148 4.60979 14.1627C4.85765 14.4105 5.19549 14.5339 5.55983 14.5339C5.92416 14.5339 6.262 14.4105 6.50986 14.1627C6.75772 13.9148 6.88109 13.577 6.88109 13.2126V12.3318H11.2853V13.2126C11.2853 13.577 11.4087 13.9148 11.6565 14.1627C11.9044 14.4105 12.2422 14.5339 12.6066 14.5339C12.9709 14.5339 13.3087 14.4105 13.5566 14.1627C13.8045 13.9148 13.9278 13.577 13.9278 13.2126Z" fill="#D3D7DA" stroke="#BAC3CA" stroke-width="0.880841"/>
</svg>
