<svg width="126" height="112" viewBox="0 0 126 112" fill="none" xmlns="http://www.w3.org/2000/svg">
<path d="M125.5 6.11206V78.0367C125.5 81.4075 122.767 84.1493 119.406 84.1493H53.2915L29.1277 110.683C28.349 111.538 27.28 111.996 26.1802 111.996C25.6912 111.996 25.1964 111.906 24.7189 111.72C23.1638 111.115 22.1602 109.644 22.1602 107.972V84.1493H6.59509C3.23389 84.1493 0.5 81.4075 0.5 78.0367V6.11206C0.5 2.74109 3.23389 -0.000488281 6.59509 -0.000488281H119.406C122.767 -0.000488281 125.5 2.74109 125.5 6.11206Z" fill="#064769"/>
<path d="M36.0078 41.3101C35.3796 41.9084 35.0861 42.7773 35.2231 43.634L36.4755 51.4851L29.4818 47.7036C29.0912 47.4924 28.6599 47.3865 28.2284 47.3865C27.8177 47.3865 27.4061 47.4822 27.0293 47.675L19.9496 51.2925L21.3848 43.4727C21.5414 42.6194 21.2681 41.7441 20.6541 41.1313L15.0259 35.5159L22.9064 34.4646C23.766 34.3496 24.5144 33.8193 24.9073 33.0459L28.5084 25.958L31.944 33.1279C32.3187 33.9097 33.0543 34.4578 33.9115 34.5925L41.7654 35.8274L36.0078 41.3101Z" fill="#FFCE00"/>
<path d="M68.5581 41.3101C67.9299 41.9084 67.6364 42.7773 67.7734 43.634L69.0258 51.4851L62.0321 47.7036C61.6415 47.4924 61.2102 47.3865 60.7787 47.3865C60.368 47.3865 59.9564 47.4822 59.5796 47.675L52.4999 51.2925L53.9351 43.4727C54.0917 42.6194 53.8184 41.7441 53.2043 41.1313L47.5762 35.5159L55.4567 34.4646C56.3163 34.3496 57.0647 33.8193 57.4576 33.0459L61.0587 25.958L64.4943 33.1279C64.869 33.9097 65.6046 34.4578 66.4618 34.5925L74.3157 35.8274L68.5581 41.3101Z" fill="#FFCE00"/>
<path d="M102.72 41.3101C102.092 41.9084 101.798 42.7773 101.936 43.634L103.188 51.4851L96.1942 47.7036C95.8036 47.4924 95.3723 47.3865 94.9408 47.3865C94.5302 47.3865 94.1185 47.4822 93.7417 47.675L86.662 51.2925L88.0972 43.4727C88.2538 42.6194 87.9805 41.7441 87.3665 41.1313L81.7383 35.5159L89.6188 34.4646C90.4784 34.3496 91.2268 33.8193 91.6198 33.0459L95.2208 25.958L98.6564 33.1279C99.0311 33.9097 99.7667 34.4578 100.624 34.5925L108.478 35.8274L102.72 41.3101Z" fill="#FFCE00"/>
<path d="M69.4612 52.1034L61.8699 47.9988C61.5349 47.8175 61.1567 47.7218 60.7759 47.7218C60.4143 47.7218 60.052 47.8087 59.7295 47.9735L52.0442 51.9004L53.6023 43.4119C53.739 42.6671 53.5007 41.9033 52.9646 41.3687L46.855 35.2729L55.4094 34.1317C56.1599 34.0315 56.8125 33.5687 57.1558 32.8938L61.0649 25.1997L64.7942 32.9828C65.1213 33.6655 65.7634 34.1433 66.5112 34.261L75.0366 35.6012L68.7866 41.5529C68.2385 42.0753 67.9827 42.8333 68.1018 43.5811L69.4612 52.1034ZM60.7759 47.0507C61.2673 47.0507 61.7563 47.1742 62.1892 47.4083L68.5845 50.8662L67.4392 43.6868C67.2847 42.7209 67.6157 41.7417 68.324 41.0669L73.5891 36.053L66.4072 34.924C65.4407 34.7721 64.6116 34.1547 64.1892 33.2726L61.0476 26.7158L57.7539 33.1976C57.3113 34.0697 56.4675 34.6674 55.498 34.7969L48.2915 35.7584L53.4385 40.8936C54.1306 41.5845 54.439 42.571 54.2622 43.5331L52.9502 50.6844L59.4243 47.3762C59.8411 47.1631 60.3081 47.0507 60.7759 47.0507Z" fill="#FFCE00"/>
<path d="M103.623 52.1034L96.032 47.9985C95.697 47.8176 95.3184 47.7218 94.9385 47.7218C94.5759 47.7218 94.2141 47.809 93.8916 47.9736L86.2068 51.9005L87.7642 43.4119C87.9009 42.6675 87.6628 41.9034 87.1267 41.3689L81.0171 35.2732L89.5715 34.132C90.3218 34.0316 90.9746 33.5687 91.3179 32.8938L95.2271 25.1997L98.9563 32.9828C99.2834 33.6654 99.9255 34.1436 100.673 34.261L109.199 35.6016L102.948 41.553C102.401 42.0752 102.145 42.8334 102.264 43.5809L103.623 52.1034ZM94.9385 47.0508C95.4297 47.0508 95.9185 47.1744 96.3511 47.4086L102.747 50.8665L101.602 43.6866C101.447 42.7212 101.778 41.7417 102.486 41.0671L107.751 36.0532L100.569 34.9238C99.603 34.772 98.7737 34.1547 98.3508 33.2728L95.2092 26.7162L91.916 33.1976C91.4729 34.0698 90.6299 34.6677 89.6602 34.7969L82.4536 35.7583L87.6008 40.8939C88.2932 41.5846 88.6006 42.5712 88.4243 43.5332L87.1121 50.6843L93.5864 47.3762C94.0032 47.1631 94.4705 47.0508 94.9385 47.0508Z" fill="#FFCE00"/>
</svg>
