<svg width="17" height="16" viewBox="0 0 17 16" fill="none" xmlns="http://www.w3.org/2000/svg">
<path d="M9.38438 1.22179L10.7924 4.03205C10.9844 4.42325 11.4964 4.79848 11.9285 4.87034L14.4805 5.29347C16.1126 5.56492 16.4966 6.74651 15.3205 7.91213L13.3365 9.89208C13.0005 10.2274 12.8165 10.8741 12.9205 11.3371L13.4885 13.7881C13.9365 15.7282 12.9045 16.4786 11.1844 15.4647L8.79237 14.0516C8.36035 13.7961 7.64833 13.7961 7.20832 14.0516L4.81626 15.4647C3.10421 16.4786 2.06418 15.7202 2.51219 13.7881L3.08021 11.3371C3.18421 10.8741 3.00021 10.2274 2.6642 9.89208L0.680141 7.91213C-0.487891 6.74651 -0.11188 5.56492 1.52016 5.29347L4.07224 4.87034C4.49625 4.79848 5.00826 4.42325 5.20027 4.03205L6.60831 1.22179C7.37633 -0.303096 8.62436 -0.303096 9.38438 1.22179Z" fill="#FECE2F"/>
</svg>
