<svg width="18" height="23" viewBox="0 0 18 23" fill="none" xmlns="http://www.w3.org/2000/svg">
<path d="M2.54138 16.5268H15.2824C16.2379 16.5268 17.0145 15.7525 17.0145 14.7955V4.33093C17.0145 1.93877 15.0757 0 12.6842 0H5.13877C2.74806 0 0.809296 1.93877 0.809296 4.33093V14.7955C0.809296 15.7518 1.58509 16.5268 2.54138 16.5268ZM13.6027 14.1456C12.9652 14.1456 12.4477 13.6281 12.4477 12.9899C12.4477 12.3531 12.9652 11.8357 13.6027 11.8357C14.2409 11.8357 14.7577 12.3531 14.7577 12.9899C14.7577 13.6289 14.2409 14.1456 13.6027 14.1456ZM14.7569 4.4743V9.23753H9.82122V4.4743H14.7569ZM3.0661 4.4743H8.00108V9.23753H3.0661V4.4743ZM4.22106 11.8364C4.85858 11.8364 5.3753 12.3538 5.3753 12.9906C5.3753 13.6289 4.85858 14.1463 4.22106 14.1463C3.58281 14.1463 3.0661 13.6289 3.0661 12.9906C3.0661 12.3538 3.58281 11.8364 4.22106 11.8364Z" fill="#94A3B6"/>
<path d="M15.6462 22.012H17.823L14.6245 17.8259H12.447L13.3159 18.9634H4.50632L5.37528 17.8259H3.19853L0 22.012H2.17602L3.30115 20.5398H14.5218L15.6462 22.012Z" fill="#94A3B6"/>
</svg>
