<svg width="23" height="23" viewBox="0 0 23 23" fill="none" xmlns="http://www.w3.org/2000/svg">
<g clip-path="url(#clip0_820_8905)">
<path d="M13.7998 22.9997H6.13074C5.1153 22.9978 4.14199 22.5936 3.42396 21.8755C2.70593 21.1575 2.3017 20.1842 2.2998 19.1687V3.83063C2.3017 2.81518 2.70593 1.84187 3.42396 1.12384C4.14199 0.405813 5.1153 0.00158738 6.13074 -0.000312428C6.2375 -0.0106692 6.34524 0.00141878 6.44705 0.035175C6.54885 0.0689313 6.64247 0.123609 6.72189 0.195697C6.80131 0.267784 6.86477 0.355687 6.9082 0.453758C6.95163 0.551829 6.97407 0.6579 6.97407 0.765156C6.97407 0.872413 6.95163 0.978484 6.9082 1.07655C6.86477 1.17463 6.80131 1.26253 6.72189 1.33462C6.64247 1.4067 6.54885 1.46138 6.44705 1.49514C6.34524 1.52889 6.2375 1.54098 6.13074 1.53063C5.52074 1.53063 4.93573 1.77295 4.5044 2.20428C4.07306 2.63561 3.83074 3.22063 3.83074 3.83063V19.1687C3.83074 19.7787 4.07306 20.3638 4.5044 20.7951C4.93573 21.2264 5.52074 21.4688 6.13074 21.4688H13.7998C13.9066 21.4584 14.0143 21.4705 14.1161 21.5042C14.2179 21.538 14.3115 21.5927 14.391 21.6648C14.4704 21.7368 14.5338 21.8247 14.5773 21.9228C14.6207 22.0209 14.6431 22.127 14.6431 22.2342C14.6431 22.3415 14.6207 22.4475 14.5773 22.5456C14.5338 22.6437 14.4704 22.7316 14.391 22.8037C14.3115 22.8758 14.2179 22.9304 14.1161 22.9642C14.0143 22.998 13.9066 23.01 13.7998 22.9997Z" fill="#21417E"/>
<path d="M16.8688 22.9997C16.7621 23.01 16.6543 22.998 16.5525 22.9642C16.4507 22.9304 16.3571 22.8758 16.2777 22.8037C16.1983 22.7316 16.1348 22.6437 16.0914 22.5456C16.0479 22.4475 16.0255 22.3415 16.0255 22.2342C16.0255 22.127 16.0479 22.0209 16.0914 21.9228C16.1348 21.8247 16.1983 21.7368 16.2777 21.6648C16.3571 21.5927 16.4507 21.538 16.5525 21.5042C16.6543 21.4705 16.7621 21.4584 16.8688 21.4688C17.4788 21.4688 18.0638 21.2264 18.4952 20.7951C18.9265 20.3638 19.1688 19.7787 19.1688 19.1687V3.83063C19.1688 3.22063 18.9265 2.63561 18.4952 2.20428C18.0638 1.77295 17.4788 1.53063 16.8688 1.53063H9.19977C9.09301 1.54098 8.98527 1.52889 8.88347 1.49514C8.78166 1.46138 8.68804 1.4067 8.60862 1.33462C8.5292 1.26253 8.46574 1.17463 8.42231 1.07655C8.37888 0.978484 8.35645 0.872413 8.35645 0.765156C8.35645 0.6579 8.37888 0.551829 8.42231 0.453758C8.46574 0.355687 8.5292 0.267784 8.60862 0.195697C8.68804 0.123609 8.78166 0.0689313 8.88347 0.035175C8.98527 0.00141878 9.09301 -0.0106692 9.19977 -0.000312428H16.8688C17.8843 0.00158738 18.8576 0.405813 19.5756 1.12384C20.2936 1.84187 20.6979 2.81518 20.6998 3.83063V19.1687C20.6979 20.1842 20.2936 21.1575 19.5756 21.8755C18.8576 22.5936 17.8843 22.9978 16.8688 22.9997Z" fill="#21417E"/>
<path d="M14.5622 15.3314H8.43121C8.32446 15.3418 8.21672 15.3297 8.11491 15.2959C8.0131 15.2622 7.91948 15.2075 7.84007 15.1354C7.76065 15.0633 7.69718 14.9754 7.65376 14.8773C7.61033 14.7793 7.58789 14.6732 7.58789 14.5659C7.58789 14.4587 7.61033 14.3526 7.65376 14.2545C7.69718 14.1565 7.76065 14.0686 7.84007 13.9965C7.91948 13.9244 8.0131 13.8697 8.11491 13.836C8.21672 13.8022 8.32446 13.7901 8.43121 13.8005H14.5622C14.6689 13.7901 14.7766 13.8022 14.8785 13.836C14.9803 13.8697 15.0739 13.9244 15.1533 13.9965C15.2327 14.0686 15.2962 14.1565 15.3396 14.2545C15.383 14.3526 15.4055 14.4587 15.4055 14.5659C15.4055 14.6732 15.383 14.7793 15.3396 14.8773C15.2962 14.9754 15.2327 15.0633 15.1533 15.1354C15.0739 15.2075 14.9803 15.2622 14.8785 15.2959C14.7766 15.3297 14.6689 15.3418 14.5622 15.3314Z" fill="#21417E"/>
<path d="M13.7998 18.4H9.19977C9.09301 18.4104 8.98527 18.3983 8.88347 18.3645C8.78166 18.3308 8.68804 18.2761 8.60862 18.204C8.5292 18.1319 8.46574 18.044 8.42231 17.9459C8.37888 17.8479 8.35645 17.7418 8.35645 17.6345C8.35645 17.5273 8.37888 17.4212 8.42231 17.3231C8.46574 17.2251 8.5292 17.1372 8.60862 17.0651C8.68804 16.993 8.78166 16.9383 8.88347 16.9046C8.98527 16.8708 9.09301 16.8587 9.19977 16.8691H13.7998C13.9065 16.8587 14.0143 16.8708 14.1161 16.9046C14.2179 16.9383 14.3115 16.993 14.3909 17.0651C14.4703 17.1372 14.5338 17.2251 14.5772 17.3231C14.6207 17.4212 14.6431 17.5273 14.6431 17.6345C14.6431 17.7418 14.6207 17.8479 14.5772 17.9459C14.5338 18.044 14.4703 18.1319 14.3909 18.204C14.3115 18.2761 14.2179 18.3308 14.1161 18.3645C14.0143 18.3983 13.9065 18.4104 13.7998 18.4Z" fill="#21417E"/>
<path d="M11.1911 9.60297C10.9872 9.60297 10.7916 9.52194 10.6473 9.37772C10.5031 9.23349 10.4221 9.03787 10.4221 8.83391V8.41703C10.4221 8.05103 10.5675 7.70002 10.8263 7.44122C11.0851 7.18242 11.4361 7.03703 11.8021 7.03703C11.8625 7.03798 11.9225 7.02702 11.9787 7.00478C12.0348 6.98254 12.0861 6.94945 12.1295 6.9074C12.1728 6.86535 12.2075 6.81517 12.2315 6.75972C12.2555 6.70426 12.2683 6.64463 12.2693 6.58422V5.63547C12.2674 5.51595 12.2191 5.40185 12.1346 5.31733C12.0501 5.23281 11.936 5.18451 11.8164 5.18266H11.1983C11.0782 5.18266 10.9631 5.23036 10.8781 5.31528C10.7932 5.4002 10.7455 5.51538 10.7455 5.63547C10.7446 5.73646 10.7237 5.83629 10.6842 5.92923C10.6447 6.02218 10.5873 6.10644 10.5152 6.17718C10.4431 6.24793 10.3578 6.30379 10.2641 6.34156C10.1704 6.37934 10.0703 6.39829 9.96926 6.39734C9.76653 6.39735 9.572 6.31731 9.42797 6.17464C9.28395 6.03196 9.20209 5.83819 9.2002 5.63547C9.2002 5.10744 9.40995 4.60104 9.78333 4.22766C10.1567 3.85429 10.6631 3.64453 11.1911 3.64453H11.8093C12.3373 3.64453 12.8437 3.85429 13.2171 4.22766C13.5904 4.60104 13.8002 5.10744 13.8002 5.63547V6.58422C13.7997 7.08702 13.609 7.57101 13.2663 7.93899C12.9237 8.30696 12.4545 8.53167 11.953 8.56797V8.83391C11.953 9.03663 11.873 9.23117 11.7303 9.37519C11.5876 9.51921 11.3939 9.60107 11.1911 9.60297Z" fill="#21417E"/>
<path d="M11.1909 11.9025C11.0388 11.9025 10.8901 11.8574 10.7637 11.7729C10.6372 11.6884 10.5386 11.5683 10.4804 11.4278C10.4222 11.2872 10.407 11.1326 10.4367 10.9834C10.4663 10.8342 10.5396 10.6972 10.6471 10.5896C10.7547 10.4821 10.8917 10.4088 11.0409 10.3792C11.1901 10.3495 11.3447 10.3647 11.4852 10.4229C11.6258 10.4811 11.7459 10.5797 11.8304 10.7062C11.9149 10.8326 11.96 10.9813 11.96 11.1334C11.96 11.3374 11.879 11.533 11.7347 11.6773C11.5905 11.8215 11.3949 11.9025 11.1909 11.9025Z" fill="#21417E"/>
</g>
<defs>
<clipPath id="clip0_820_8905">
<rect width="23" height="23" fill="white"/>
</clipPath>
</defs>
</svg>
