<svg width="23" height="23" viewBox="0 0 23 23" fill="none" xmlns="http://www.w3.org/2000/svg">
<path d="M5.1543 6.44922H8.66779V7.92441H5.1543V6.44922Z" fill="#21417E"/>
<path d="M5.1543 9.80371H8.66779V11.2789H5.1543V9.80371Z" fill="#21417E"/>
<path d="M5.1543 13.1582H8.66779V14.6334H5.1543V13.1582Z" fill="#21417E"/>
<path d="M5.1543 16.5127H8.66779V17.9879H5.1543V16.5127Z" fill="#21417E"/>
<path d="M12.2598 19.9518V7.89805L19.9628 7.88906V16.0206H21.4372V7.1506C21.4372 6.7482 21.101 6.41298 20.6991 6.41298L11.5217 6.42369C11.1149 6.42418 10.7854 6.75424 10.7854 7.16131V19.9518H3.03718V5.35581L10.7854 3.27141V4.94604H12.2598V2.30929C12.2598 1.83209 11.7924 1.47294 11.3312 1.59698L2.10858 4.07798C1.78663 4.16463 1.56282 4.4567 1.56282 4.7903V19.9518H0V21.427H23V19.9518H12.2598Z" fill="#21417E"/>
<path d="M19.9629 17.3486H21.4372V18.7228H19.9629V17.3486Z" fill="#21417E"/>
<path d="M14.332 9.80371H17.8455V11.2789H14.332V9.80371Z" fill="#21417E"/>
<path d="M14.332 13.1582H17.8455V14.6334H14.332V13.1582Z" fill="#21417E"/>
<path d="M14.332 16.5127H17.8455V17.9879H14.332V16.5127Z" fill="#21417E"/>
</svg>
