<svg width="25" height="25" viewBox="0 0 25 25" fill="none" xmlns="http://www.w3.org/2000/svg">
<path d="M12.4997 23.6062C12.221 23.6064 11.9437 23.5657 11.6768 23.4854L3.34345 20.9854C2.75194 20.8108 2.23308 20.4489 1.8649 19.9541C1.49672 19.4593 1.29911 18.8584 1.30178 18.2416V4.88329C1.30158 4.43667 1.40584 3.9962 1.60624 3.59707C1.80665 3.19794 2.09763 2.85122 2.45594 2.58462C2.81424 2.31801 3.22995 2.13891 3.66982 2.06163C4.1097 1.98435 4.56156 2.01103 4.98928 2.13954L12.1268 4.28016C12.3699 4.35412 12.6295 4.35412 12.8726 4.28016L20.0101 2.13954C20.4378 2.01103 20.8897 1.98435 21.3296 2.06163C21.7695 2.13891 22.1852 2.31801 22.5435 2.58462C22.9018 2.85122 23.1928 3.19794 23.3932 3.59707C23.5936 3.9962 23.6978 4.43667 23.6976 4.88329V18.2416C23.7003 18.8584 23.5027 19.4593 23.1345 19.9541C22.7663 20.4489 22.2475 20.8108 21.656 20.9854L13.3226 23.4854C13.0557 23.5657 12.7784 23.6064 12.4997 23.6062ZM4.16637 3.58016C3.82102 3.58071 3.49 3.71822 3.2459 3.96251C3.0018 4.2068 2.86456 4.53794 2.86428 4.88329V18.2416C2.8624 18.5226 2.95205 18.7966 3.11969 19.0221C3.28733 19.2476 3.52384 19.4124 3.79345 19.4916L12.1268 21.9916C12.3699 22.0656 12.6295 22.0656 12.8726 21.9916L21.2059 19.4916C21.4756 19.4124 21.7121 19.2476 21.8797 19.0221C22.0473 18.7966 22.137 18.5226 22.1351 18.2416V4.88329C22.1357 4.68013 22.0887 4.47965 21.9979 4.29792C21.9071 4.11618 21.775 3.95823 21.6122 3.83673C21.4494 3.71522 21.2604 3.63353 21.0603 3.59821C20.8603 3.56288 20.6547 3.57489 20.4601 3.63329L13.3226 5.77704C12.7859 5.93852 12.2135 5.93852 11.6768 5.77704L4.53928 3.63641C4.41833 3.59982 4.29273 3.58088 4.16637 3.58016Z" fill="#21417E"/>
<path d="M12.5 23.6037C12.2928 23.6037 12.0941 23.5214 11.9476 23.3749C11.8011 23.2284 11.7188 23.0297 11.7188 22.8225V5.11414C11.7188 4.90694 11.8011 4.70822 11.9476 4.56171C12.0941 4.4152 12.2928 4.33289 12.5 4.33289C12.7072 4.33289 12.9059 4.4152 13.0524 4.56171C13.1989 4.70822 13.2812 4.90694 13.2812 5.11414V22.8225C13.2812 23.0297 13.1989 23.2284 13.0524 23.3749C12.9059 23.5214 12.7072 23.6037 12.5 23.6037Z" fill="#21417E"/>
<path d="M16.1456 12.0934C15.9748 12.0931 15.8057 12.0592 15.6479 11.9935C15.4902 11.9279 15.3469 11.8318 15.2263 11.7108C15.1057 11.5898 15.0101 11.4462 14.9449 11.2883C14.8798 11.1303 14.8464 10.9611 14.8467 10.7902V8.74024C14.8464 8.44973 14.9434 8.16749 15.1222 7.9385C15.301 7.70951 15.5512 7.54694 15.8331 7.4767L18.9581 6.69545C19.1499 6.64783 19.35 6.64452 19.5433 6.68577C19.7366 6.72703 19.9179 6.81177 20.0735 6.93356C20.2291 7.05534 20.355 7.21098 20.4415 7.38866C20.528 7.56633 20.5729 7.76138 20.5727 7.95899V10.009C20.573 10.2995 20.476 10.5817 20.2972 10.8107C20.1184 11.0397 19.8682 11.2023 19.5863 11.2725L16.4613 12.0538C16.3581 12.08 16.2521 12.0933 16.1456 12.0934ZM16.4092 8.94233V10.458L19.0133 9.80691V8.29128L16.4092 8.94233Z" fill="#21417E"/>
<path d="M15.6247 15.3642C15.4339 15.3644 15.2495 15.2947 15.1065 15.1683C14.9635 15.0418 14.8718 14.8674 14.8486 14.6779C14.8254 14.4885 14.8723 14.2971 14.9806 14.1399C15.0888 13.9827 15.2509 13.8705 15.4362 13.8247L19.6029 12.783C19.804 12.7327 20.0168 12.7644 20.1946 12.871C20.3724 12.9777 20.5005 13.1506 20.5508 13.3517C20.6011 13.5529 20.5694 13.7657 20.4627 13.9435C20.3561 14.1213 20.1831 14.2494 19.982 14.2997L15.8154 15.3413C15.753 15.3566 15.689 15.3643 15.6247 15.3642Z" fill="#21417E"/>
<path d="M15.6247 18.4892C15.4339 18.4894 15.2495 18.4197 15.1065 18.2933C14.9635 18.1668 14.8718 17.9924 14.8486 17.8029C14.8254 17.6135 14.8723 17.4221 14.9806 17.2649C15.0888 17.1077 15.2509 16.9955 15.4362 16.9497L19.6029 15.908C19.804 15.8577 20.0168 15.8894 20.1946 15.996C20.3724 16.1027 20.5005 16.2756 20.5508 16.4767C20.6011 16.6779 20.5694 16.8907 20.4627 17.0685C20.3561 17.2463 20.1831 17.3744 19.982 17.4247L15.8154 18.4663C15.753 18.4816 15.689 18.4893 15.6247 18.4892Z" fill="#21417E"/>
<path d="M9.37516 15.3642C9.31093 15.3643 9.24692 15.3566 9.18454 15.3413L5.01787 14.2997C4.81675 14.2494 4.64384 14.1213 4.53718 13.9435C4.43052 13.7657 4.39884 13.5529 4.44912 13.3517C4.4994 13.1506 4.62752 12.9777 4.80529 12.871C4.98306 12.7644 5.19592 12.7327 5.39704 12.783L9.56371 13.8247C9.74898 13.8705 9.91105 13.9827 10.0193 14.1399C10.1276 14.2971 10.1745 14.4885 10.1513 14.6779C10.1281 14.8674 10.0364 15.0418 9.89337 15.1683C9.75038 15.2947 9.56604 15.3644 9.37516 15.3642Z" fill="#21417E"/>
<path d="M9.37516 18.4892C9.31093 18.4893 9.24692 18.4816 9.18454 18.4663L5.01787 17.4247C4.81675 17.3744 4.64384 17.2463 4.53718 17.0685C4.43052 16.8907 4.39884 16.6779 4.44912 16.4767C4.4994 16.2756 4.62752 16.1027 4.80529 15.996C4.98306 15.8894 5.19592 15.8577 5.39704 15.908L9.56371 16.9497C9.74898 16.9955 9.91105 17.1077 10.0193 17.2649C10.1276 17.4221 10.1745 17.6135 10.1513 17.8029C10.1281 17.9924 10.0364 18.1668 9.89337 18.2933C9.75038 18.4197 9.56604 18.4894 9.37516 18.4892Z" fill="#21417E"/>
<path d="M9.37516 9.11423C9.31093 9.11433 9.24692 9.10663 9.18454 9.09132L5.01787 8.04965C4.81675 7.99937 4.64384 7.87125 4.53718 7.69349C4.43052 7.51572 4.39884 7.30286 4.44912 7.10173C4.4994 6.90061 4.62752 6.7277 4.80529 6.62104C4.98306 6.51438 5.19592 6.4827 5.39704 6.53298L9.56371 7.57465C9.74898 7.62054 9.91105 7.73268 10.0193 7.88988C10.1276 8.04709 10.1745 8.23849 10.1513 8.42795C10.1281 8.61741 10.0364 8.79182 9.89337 8.91826C9.75038 9.0447 9.56604 9.11441 9.37516 9.11423Z" fill="#21417E"/>
<path d="M9.37516 12.2392C9.31093 12.2393 9.24692 12.2316 9.18454 12.2163L5.01787 11.1747C4.81675 11.1244 4.64384 10.9963 4.53718 10.8185C4.43052 10.6407 4.39884 10.4279 4.44912 10.2267C4.4994 10.0256 4.62752 9.8527 4.80529 9.74604C4.98306 9.63938 5.19592 9.6077 5.39704 9.65798L9.56371 10.6997C9.74898 10.7455 9.91105 10.8577 10.0193 11.0149C10.1276 11.1721 10.1745 11.3635 10.1513 11.5529C10.1281 11.7424 10.0364 11.9168 9.89337 12.0433C9.75038 12.1697 9.56604 12.2394 9.37516 12.2392Z" fill="#21417E"/>
</svg>
