<svg width="20" height="20" viewBox="0 0 20 20" fill="none" xmlns="http://www.w3.org/2000/svg">
<path d="M9.88098 10.771C11.9356 10.771 13.6012 9.1054 13.6012 7.05078C13.6012 4.99616 11.9356 3.33057 9.88098 3.33057C7.82636 3.33057 6.16077 4.99616 6.16077 7.05078C6.16077 9.1054 7.82636 10.771 9.88098 10.771Z" fill="#94A2BE"/>
<path d="M12.8572 11.74H6.90482C6.11576 11.7409 5.35926 12.0547 4.80131 12.6126C4.24335 13.1706 3.92952 13.9271 3.92865 14.7162V16.7003C3.92865 16.8318 3.98091 16.958 4.07393 17.051C4.16696 17.144 4.29312 17.1963 4.42468 17.1963H15.3373C15.4689 17.1963 15.595 17.144 15.6881 17.051C15.7811 16.958 15.8333 16.8318 15.8333 16.7003V14.7162C15.8325 13.9271 15.5186 13.1706 14.9607 12.6126C14.4027 12.0547 13.6462 11.7409 12.8572 11.74Z" fill="#94A2BE"/>
</svg>
