<svg width="20" height="20" viewBox="0 0 20 20" fill="none" xmlns="http://www.w3.org/2000/svg">
<path d="M18.3342 10.0009V14.1677C18.3342 16.6678 16.6675 18.3346 14.1674 18.3346H5.83362C3.3335 18.3346 1.66675 16.6678 1.66675 14.1677V10.0009C1.66675 7.73408 3.03348 6.15066 5.15859 5.88398C5.37526 5.85065 5.60027 5.83398 5.83362 5.83398H14.1674C14.384 5.83398 14.5924 5.84231 14.7924 5.87564C16.9425 6.12566 18.3342 7.71741 18.3342 10.0009Z" stroke="#6C829C" stroke-width="1.5" stroke-linecap="round" stroke-linejoin="round"/>
<path d="M14.7935 5.87553C14.5935 5.8422 14.3851 5.83387 14.1684 5.83387H5.8347C5.60136 5.83387 5.37635 5.85054 5.15967 5.88387C5.27634 5.65053 5.44302 5.43385 5.64302 5.23384L8.35149 2.51703C9.49321 1.38364 11.3433 1.38364 12.485 2.51703L13.9434 3.99212C14.4768 4.51715 14.7601 5.18383 14.7935 5.87553Z" stroke="#6C829C" stroke-width="1.5" stroke-linecap="round" stroke-linejoin="round"/>
<path d="M18.3344 10.417H15.8342C14.9175 10.417 14.1675 11.167 14.1675 12.0837C14.1675 13.0005 14.9175 13.7505 15.8342 13.7505H18.3344" stroke="#6C829C" stroke-width="1.5" stroke-linecap="round" stroke-linejoin="round"/>
</svg>
