<?xml version="1.0" standalone="no"?>
<!DOCTYPE svg PUBLIC "-//W3C//DTD SVG 20010904//EN"
 "http://www.w3.org/TR/2001/REC-SVG-20010904/DTD/svg10.dtd">
<svg version="1.0" xmlns="http://www.w3.org/2000/svg"
 width="880.000000pt" height="752.000000pt" viewBox="0 0 880.000000 752.000000"
 preserveAspectRatio="xMidYMid meet">

<g transform="translate(0.000000,752.000000) scale(0.100000,-0.100000)"
fill="#000000" stroke="none">
<path d="M4305 7110 c-124 -19 -233 -68 -337 -154 -53 -44 -80 -80 -167 -222
-110 -178 -178 -287 -356 -574 -60 -96 -127 -204 -148 -240 -22 -36 -54 -87
-72 -115 -18 -27 -110 -176 -206 -330 -95 -154 -276 -446 -402 -650 -127 -203
-287 -462 -357 -575 -70 -113 -232 -374 -360 -580 -128 -206 -321 -517 -428
-690 -107 -173 -205 -331 -217 -350 -13 -19 -116 -186 -230 -370 -173 -279
-326 -523 -553 -883 -111 -176 -88 -415 55 -568 60 -64 126 -105 221 -138 l77
-26 3565 0 c3384 0 3568 1 3630 18 190 52 319 176 365 352 37 144 6 280 -99
430 -44 62 -66 97 -641 1025 -359 579 -685 1104 -975 1570 -195 314 -365 588
-503 810 -49 80 -100 161 -112 180 -13 19 -94 150 -180 290 -87 140 -231 372
-320 515 -89 143 -274 442 -413 665 -228 369 -257 410 -314 458 -145 122 -342
179 -523 152z m248 -1202 c79 -128 238 -384 352 -568 114 -184 276 -445 360
-580 84 -135 235 -378 335 -540 101 -162 278 -448 395 -635 243 -391 701
-1129 1030 -1660 82 -132 179 -289 217 -348 37 -60 68 -111 68 -113 0 -2
-1310 -4 -2911 -4 -1601 0 -2909 4 -2907 8 2 4 80 131 174 282 94 151 254 408
354 570 223 361 504 813 785 1265 262 420 523 840 730 1175 729 1177 857 1380
865 1380 4 0 73 -105 153 -232z"/>
<path d="M4285 5237 c-137 -46 -228 -132 -278 -265 -22 -57 -22 -60 -25 -975
-2 -547 1 -947 7 -988 12 -91 49 -167 111 -233 167 -176 432 -177 598 -2 64
68 100 143 113 235 6 40 8 445 7 987 -3 917 -3 919 -25 976 -44 115 -117 193
-229 245 -48 22 -76 28 -149 30 -56 2 -105 -2 -130 -10z"/>
<path d="M4273 2416 c-66 -21 -124 -60 -177 -115 -151 -162 -146 -412 11 -567
164 -161 417 -161 579 0 200 200 142 532 -115 659 -57 28 -76 32 -160 34 -61
2 -111 -2 -138 -11z"/>
</g>
</svg>
